<?xml version="1.0" encoding="UTF-8"?>
<svg viewBox="0 0 744.09447 1052.362179" xmlns="http://www.w3.org/2000/svg" xmlns:xlink="http://www.w3.org/1999/xlink">
 <defs>
  <filter id="bb">
   <feGaussianBlur stdDeviation="4.81344"/>
  </filter>
  <filter id="ba">
   <feGaussianBlur stdDeviation="2.91189"/>
  </filter>
  <filter id="az">
   <feGaussianBlur stdDeviation="2.85873"/>
  </filter>
  <filter id="a">
   <feGaussianBlur stdDeviation="1.6415"/>
  </filter>
  <filter id="ay">
   <feGaussianBlur stdDeviation="1.32709"/>
  </filter>
  <filter id="ai">
   <feGaussianBlur stdDeviation="13.27088"/>
  </filter>
  <filter id="c">
   <feGaussianBlur stdDeviation="2.25842"/>
  </filter>
  <filter id="at">
   <feGaussianBlur stdDeviation="2.42427"/>
  </filter>
  <filter id="as">
   <feGaussianBlur stdDeviation=".40957"/>
  </filter>
  <filter id="ar">
   <feGaussianBlur stdDeviation=".58472"/>
  </filter>
  <filter id="ap">
   <feGaussianBlur stdDeviation=".51375"/>
  </filter>
  <filter id="am">
   <feGaussianBlur stdDeviation="12.30879"/>
  </filter>
  <filter id="ak">
   <feGaussianBlur stdDeviation=".79056"/>
  </filter>
  <filter id="f">
   <feGaussianBlur stdDeviation="3.90269"/>
  </filter>
  <filter id="aj">
   <feGaussianBlur stdDeviation="2.98183"/>
  </filter>
  <filter id="aq"/>
  <filter id="g" x="-.32442" y="-.26508" width="1.6488" height="1.5302">
   <feGaussianBlur stdDeviation="7.97331"/>
  </filter>
  <filter id="ax" x="-.31142" y="-.26883" width="1.6228" height="1.5377">
   <feGaussianBlur stdDeviation="7.97331"/>
  </filter>
  <filter id="aw" x="-.31142" y="-.26879" width="1.6228" height="1.5376">
   <feGaussianBlur stdDeviation="7.97331"/>
  </filter>
  <filter id="av" x="-.2956" y="-.24756" width="1.5912" height="1.4951">
   <feGaussianBlur stdDeviation="7.97331"/>
  </filter>
  <filter id="l" x="-.32882" y="-.26512" width="1.6576" height="1.5302">
   <feGaussianBlur stdDeviation="7.97331"/>
  </filter>
  <filter id="au" x="-.30102" y="-.22728" width="1.602" height="1.4546">
   <feGaussianBlur stdDeviation="7.97331"/>
  </filter>
  <filter id="ao" x="-.13655" y="-.16942" width="1.2731" height="1.3388">
   <feGaussianBlur stdDeviation="3.90269"/>
  </filter>
  <filter id="an" x="-.13376" y="-.15261" width="1.2675" height="1.3052">
   <feGaussianBlur stdDeviation="3.90269"/>
  </filter>
  <filter id="al" x="-.03479" y="-.29966" width="1.0696" height="1.5993">
   <feGaussianBlur stdDeviation=".72473"/>
  </filter>
  <linearGradient id="j">
   <stop stop-color="#d2d2d2" offset="0"/>
   <stop stop-color="#787878" offset=".84974"/>
   <stop stop-color="#1e1e1e" offset="1"/>
  </linearGradient>
  <linearGradient id="d">
   <stop offset="0"/>
   <stop stop-color="#8c8c8c" offset=".15345"/>
   <stop stop-color="#1e1e1e" offset=".3069"/>
   <stop stop-color="#a0a0a0" offset=".35837"/>
   <stop stop-color="#2d2d2d" offset=".40983"/>
   <stop stop-color="#c8c8c8" offset=".64087"/>
   <stop stop-color="#808080" offset=".75105"/>
   <stop stop-color="#fff" offset=".88984"/>
   <stop stop-color="#1e1e1e" offset="1"/>
  </linearGradient>
  <linearGradient id="e">
   <stop stop-color="#fff" offset="0"/>
   <stop stop-color="#fff" stop-opacity="0" offset="1"/>
  </linearGradient>
  <linearGradient id="ae" x1="71.781" x2="979.92" y1="351.69" y2="611.3" gradientUnits="userSpaceOnUse">
   <stop offset="0"/>
   <stop stop-opacity="0" offset="1"/>
  </linearGradient>
  <linearGradient id="o" x1="204.05" x2="157.58" y1="551.33" y2="587.69" gradientUnits="userSpaceOnUse">
   <stop stop-color="#969696" offset="0"/>
   <stop stop-color="#aaa" offset=".5"/>
   <stop stop-color="#dcdcdc" offset="1"/>
  </linearGradient>
  <linearGradient id="n" x1="320.73" x2="612.65" gradientUnits="userSpaceOnUse">
   <stop stop-color="#333" offset="0"/>
   <stop stop-color="#333" stop-opacity="0" offset="1"/>
  </linearGradient>
  <linearGradient id="b" x1="231.19" x2="337.97" gradientUnits="userSpaceOnUse">
   <stop stop-color="#0f0f0f" offset="0"/>
   <stop stop-color="#3c3c3c" offset="1"/>
  </linearGradient>
  <linearGradient id="ac" x1="577.69" x2="596" y1="729.55" y2="729.36" gradientUnits="userSpaceOnUse">
   <stop stop-color="#ccc" offset="0"/>
   <stop stop-color="#a0a0a0" offset="1"/>
  </linearGradient>
  <linearGradient id="ab" x1="149.25" x2="178.25" y1="259.11" y2="236.86" gradientUnits="userSpaceOnUse">
   <stop offset="0"/>
   <stop stop-color="#8c8c8c" offset=".35276"/>
   <stop stop-color="#a0a0a0" offset=".50002"/>
   <stop stop-color="#2d2d2d" offset=".57017"/>
   <stop stop-color="#c8c8c8" offset=".64087"/>
   <stop stop-color="#fff" offset=".88984"/>
   <stop stop-color="#1e1e1e" offset="1"/>
  </linearGradient>
  <linearGradient id="h" x1="379.92" x2="360.43" y1="512.89" y2="529.46" gradientUnits="userSpaceOnUse">
   <stop offset="0"/>
   <stop stop-color="#8c8c8c" offset=".35276"/>
   <stop stop-color="#1e1e1e" offset=".43723"/>
   <stop stop-color="#a0a0a0" offset=".50002"/>
   <stop stop-color="#2d2d2d" offset=".57017"/>
   <stop stop-color="#c8c8c8" offset=".64087"/>
   <stop stop-color="#808080" offset=".75105"/>
   <stop stop-color="#fff" offset=".88984"/>
   <stop stop-color="#1e1e1e" offset="1"/>
  </linearGradient>
  <linearGradient id="i">
   <stop stop-color="#9927af" offset="0"/>
   <stop stop-color="#fff" offset="1"/>
  </linearGradient>
  <linearGradient id="t" x1="250.93" x2="491.21" y1="347" y2="625.57" gradientUnits="userSpaceOnUse">
   <stop stop-color="#729fcf" offset="0"/>
   <stop stop-color="#3465a4" offset="1"/>
  </linearGradient>
  <linearGradient id="ah" x1="460.15" x2="620.17" gradientUnits="userSpaceOnUse" spreadMethod="reflect">
   <stop stop-color="#ffd543" offset="0"/>
   <stop stop-color="#ffeca9" offset="1"/>
  </linearGradient>
  <linearGradient id="y" x1="-4.1747" x2="-57.254" y1="549.75" y2="552.98" gradientTransform="matrix(.77715 -.62932 .62932 .77715 -4.5714 -3.4286)" gradientUnits="userSpaceOnUse">
   <stop stop-color="#00c264" offset="0"/>
   <stop stop-color="#64c293" offset="1"/>
  </linearGradient>
  <linearGradient id="x" x1="466.9" x2="528" y1="681.13" y2="642.95" gradientUnits="userSpaceOnUse">
   <stop stop-color="#ccc" offset="0"/>
   <stop stop-color="#b1b1b1" offset=".85628"/>
   <stop stop-color="#6e6e6e" offset="1"/>
  </linearGradient>
  <linearGradient id="u" x1="-4.1747" x2="-57.254" y1="549.75" y2="552.98" gradientTransform="matrix(-.77715 .62932 .62932 .77715 -90.668 76.672)" gradientUnits="userSpaceOnUse">
   <stop stop-color="#00c264" offset="0"/>
   <stop stop-color="#64c2c2" offset="1"/>
  </linearGradient>
  <linearGradient id="ag" x1="257.14" x2="-21.429" y1="223.79" y2="666.65" gradientUnits="userSpaceOnUse" xlink:href="#e"/>
  <linearGradient id="af" x1="518.54" x2="258.98" y1="585.89" y2="448.51" gradientUnits="userSpaceOnUse" xlink:href="#e"/>
  <linearGradient id="k" x1="404.33" x2="469.07" y1="610.86" y2="560.15" gradientUnits="userSpaceOnUse" xlink:href="#d"/>
  <linearGradient id="ad" x1="439.33" x2="504.07" y1="653.72" y2="603" gradientUnits="userSpaceOnUse" xlink:href="#d"/>
  <linearGradient id="s" x1="284.5" x2="706.93" y1="366.99" y2="678.42" gradientUnits="userSpaceOnUse" xlink:href="#e"/>
  <linearGradient id="r" x1="382.75" x2="371.73" y1="581.51" y2="506.56" gradientTransform="matrix(.92714 0 0 1.0018 32.09 -1.0019)" gradientUnits="userSpaceOnUse" xlink:href="#i"/>
  <linearGradient id="q" x1="415.16" x2="425.35" y1="580.09" y2="509.38" gradientTransform="matrix(.92714 0 0 1.0018 28.523 -1.0019)" gradientUnits="userSpaceOnUse" xlink:href="#i"/>
  <linearGradient id="p" x1="399.93" x2="410.42" y1="615.53" y2="615.1" gradientUnits="userSpaceOnUse" xlink:href="#e"/>
  <linearGradient id="aa" x1="511.1" x2="546.14" y1="717.36" y2="686.8" gradientUnits="userSpaceOnUse" xlink:href="#d"/>
  <linearGradient id="z" x1="431.77" x2="495.48" y1="641.93" y2="589.61" gradientUnits="userSpaceOnUse" xlink:href="#j"/>
  <linearGradient id="w" x1="404.33" x2="469.07" y1="610.86" y2="560.15" gradientTransform="matrix(-.20791 .97815 .97815 .20791 -53.621 125)" gradientUnits="userSpaceOnUse" xlink:href="#d"/>
  <linearGradient id="v" x1="431.77" x2="495.48" y1="641.93" y2="589.61" gradientTransform="matrix(-.20791 .97815 .97815 .20791 -88.264 81.856)" gradientUnits="userSpaceOnUse" xlink:href="#j"/>
  <radialGradient id="m" cx="398.86" cy="497.77" r="150.5" gradientTransform="matrix(1 0 0 1.3915 0 -190.8)" gradientUnits="userSpaceOnUse">
   <stop stop-color="#fff" stop-opacity=".33725" offset="0"/>
   <stop stop-color="#729fcf" stop-opacity=".8902" offset="1"/>
  </radialGradient>
 </defs>
 <path transform="matrix(1.05 0 0 1.05 -17.442 -26.648)" d="m629.16 589.53-279.81 193.95-280.82-400.02 286.88-101.02z" filter="url(#ai)" stroke="#000" stroke-width="2"/>
 <path transform="matrix(.9949 -.26658 .26658 .9949 -396.53 -208.92)" d="m288.53 742.72c-32.743 0-36.146-1.5831-36.132-17.04 0.0219-25.136 36.79-54.126 71.473-42.462" fill="none" filter="url(#g)" stroke="#1e1e1e" stroke-linecap="round" stroke-width="15"/>
 <path transform="matrix(.9949 -.26658 .26658 .9949 -369.86 -175.26)" d="m286.36 741.09c-32.743 0-36.146-1.5831-36.132-17.04 0.0219-25.136 38.968-52.497 73.651-40.833" fill="none" filter="url(#ax)" stroke="#1e1e1e" stroke-linecap="round" stroke-width="15"/>
 <path transform="matrix(.9949 -.26658 .26658 .9949 -347.91 -145.41)" d="m288.53 742.72c-32.743 0-39.761 2.154-39.748-13.302 0.0219-25.136 39.622-54.936 74.304-43.272" fill="none" filter="url(#aw)" stroke="#1e1e1e" stroke-linecap="round" stroke-width="15"/>
 <path transform="matrix(.9949 -.26658 .26658 .9949 -328.14 -104.83)" d="m288.53 742.72c-32.743 0-36.146-1.5831-36.132-17.04 0.0219-25.136 36.79-54.126 71.473-42.462" fill="none" filter="url(#g)" stroke="#1e1e1e" stroke-linecap="round" stroke-width="15"/>
 <path transform="matrix(.9949 -.26658 .26658 .9949 -302.13 -68.412)" d="m288.53 742.72c-32.743 0-36.146-1.5831-36.132-17.04 0.0219-25.136 36.79-54.126 71.473-42.462" fill="none" filter="url(#g)" stroke="#1e1e1e" stroke-linecap="round" stroke-width="15"/>
 <path transform="matrix(.9949 -.26658 .26658 .9949 -270.92 -27.314)" d="m288.53 742.72c-32.743 0-39.404 2.7726-41.926-14.932-3.5443-24.885 43.368-59.161 78.051-47.497" fill="none" filter="url(#av)" stroke="#1e1e1e" stroke-linecap="round" stroke-width="15"/>
 <path transform="matrix(.9949 -.26658 .26658 .9949 -247.49 3.8997)" d="m288.53 742.72c-32.743 0-37.487-1.6426-36.132-17.04 1.343-15.261 39.946-30.539 71.473-42.462" fill="none" filter="url(#l)" stroke="#1e1e1e" stroke-linecap="round" stroke-width="15"/>
 <path transform="matrix(.9949 -.26658 .26658 .9949 -220.86 48.542)" d="m288.53 742.72c-32.743 0-37.487-1.6426-36.132-17.04 1.343-15.261 39.946-30.539 71.473-42.462" fill="none" filter="url(#l)" stroke="#1e1e1e" stroke-linecap="round" stroke-width="15"/>
 <path transform="matrix(.9949 -.26658 .26658 .9949 -183.02 91.672)" d="m288.53 742.72c-32.743 0-44.826 9.7886-44.41-5.6623 0.58606-21.744 48.184-58.231 80.927-58.231" fill="none" filter="url(#au)" stroke="#1e1e1e" stroke-width="15"/>
 <path transform="matrix(1.03 0 0 1.03 -10.569 -14.922)" d="m129 228.38 13.594 47.75c-0.22908 1.4192-0.43098 2.9322-0.5625 4.5l237.91 311.19c-1.3473 4.4188-1.5188 7.891-0.21875 9.5625l45 57.812c-7.3e-4 0.0104 7.2e-4 0.0208 0 0.0312 1.3967 2.5095 5.6842 2.0118 8.5312 2.3438l7.375 9.6562c-0.55581 2.7728-0.41405 4.9751 0.59375 6.3125l18.5 24.531c0.0159-0.28346 0.0396-0.56219 0.0625-0.84375 6.5982 2.604 13.348 4.6736 21.781-0.0625 0.18853-0.43988 0.364-0.88357 0.5625-1.3125 0.10304 0.82523 0.34296 1.5381 0.8125 2.0938l50.312 59.531c-2e-3 -0.0841 2e-3 -0.16608 0-0.25 0.13884 0.19593 0.28514 0.4056 0.4375 0.59375 5.9086 7.2965 19.784 5.8325 31-3.25s13.752-23.235 7.8438-30.531l-0.0937-0.125c-0.63859-0.76458-1.3569-1.4184-2.125-1.9688l-47.563-56.125c-0.12304-0.0464-0.25146-0.0817-0.375-0.125 3.1404-12.991 3.0481-14.041 2.6562-23.5 0.0341 0.0161 0.0738 0.01 0.0937 0.0312l-0.0937-0.0937c-2e-3 -0.0464 2e-3 -0.0782 0-0.125h-0.0937l-20.938-22.5c-0.1782-0.0267-0.35325-0.0384-0.53125-0.0625l-15.812-18.156 0.40625 0.0312 8.125 9.7188c0.63112-6.2984 0.45105-7.3439-0.75-9.375l-53.594-61.438c-3.0975-1.4638-6.241-2.1546-9.4062-2.25l-250.78-287.66c-1.5669-0.33978-3.0969-0.61073-4.5938-0.84375l-48.062-25.094zm334.78 459.09c-1.6331 4.4237-2.8537 8.7983-3.9375 12.875 0.48769-4.5558 1.8832-8.8385 3.9375-12.875z" filter="url(#am)"/>
 <path d="m320.22 789.72 11.112-24.244-274.76-395.98-1.0102 35.355z" fill="url(#o)"/>
 <path d="m612.15 570.52-20.203 29.294-270.72 187.89 11.112-24.244z" fill="url(#n)"/>
 <path d="m613.16 571.53-279.81 193.95-280.82-400.02 286.88-101.02z" fill="#fff" filter="url(#ay)" stroke="#000" stroke-width="2"/>
 <path d="m104.05 375.56 237.39-90.914" fill="none" filter="url(#a)" stroke="#323232" stroke-width="8"/>
 <path d="m372.75 697.8-236.38-335.37" fill="none" filter="url(#az)" stroke="#323232" stroke-width="8"/>
 <path d="m118.69 400.81 237.39-95.964" fill="none" filter="url(#a)" stroke="#323232" stroke-width="8"/>
 <path d="m139.91 425.06 235.37-96.975" fill="none" filter="url(#a)" stroke="#323232" stroke-width="8"/>
 <path d="m163.14 453.34 237.39-103.04" fill="none" filter="url(#a)" stroke="#323232" stroke-width="8"/>
 <path d="m180.31 482.64 240.42-110.11" fill="none" filter="url(#a)" stroke="#323232" stroke-width="8"/>
 <path d="m199.51 511.93 240.42-114.15" fill="none" filter="url(#a)" stroke="#323232" stroke-width="8"/>
 <path d="m222.74 542.24 236.38-122.23" fill="none" filter="url(#a)" stroke="#323232" stroke-width="8"/>
 <path d="m244.96 573.55 239.41-130.31" fill="none" filter="url(#a)" stroke="#323232" stroke-width="8"/>
 <path d="m268.2 609.92 238.4-137.38" fill="none" filter="url(#a)" stroke="#323232" stroke-width="8"/>
 <path d="m293.45 642.24 236.38-141.42" fill="none" filter="url(#a)" stroke="#323232" stroke-width="8"/>
 <path d="m317.69 678.61 239.41-153.54" fill="none" filter="url(#a)" stroke="#323232" stroke-width="8"/>
 <path d="m343.96 716.99 235.37-161.62" fill="none" filter="url(#a)" stroke="#323232" stroke-width="8"/>
 <path d="m320.98 189s10-14.286 28.571 1.4286 294.29 308.57 294.29 308.57 14.286 15.714 0 28.571-294.29 224.29-294.29 224.29-17.143 20-32.857 0-251.43-368.57-251.43-368.57-8.5714-22.857 8.5714-32.857 247.14-161.43 247.14-161.43z" fill="#3235ff" filter="url(#ba)" opacity=".50204" stroke="url(#ae)" stroke-width="4"/>
 <path d="m256.09375,218.15625c-3.24576.15167-4.53125,2.15625-4.53125,2.15625l-.875-.59375-.875-.625c.31461-.44721-.35108.53725-.0312.0937s-.3875.50222-.0625.0625-.36138.49838-.0312.0625-.39772.49448-.0625.0625-.37151.49052-.0312.0625-.40775.48651-.0625.0625-.41269.48243-.0625.0625-.38634.4783-.0312.0625-.42244.44286-.0625.0312-.42723.46987-.0625.0625-.40073.46556-.0312.0625-.43668.46121-.0625.0625-.44133.45679-.0625.0625-.41467.45233-.0312.0625-.45046.44781-.0625.0625-.45495.41199-.0625.0312-.45939.43861-.0625.0625-.46377.43394-.0625.0625-.46809.42921-.0625.0625-.44111.39318-.0312.0312-.47657.4196-.0625.0625-.48073.41473-.0625.0625-.48483.37855-.0625.0312-.48887.40483-.0625.0625-.49285.36856-.0625.0312-.49677.39474-.0625.0625-.50064.35838-.0625.0312-.50444.38448-.0625.0625-.50818.34802-.0625.0312-.51186.37403-.0625.0625-.54673.33749-.0937.0312-.51904.36341-.0625.0625l.59375.875 .59375.875c0,0-57.50895,37.85353-117.15625,76.96875-29.82329,19.55737-60.19964,39.44836-84.1875,55.0625s-40.99211,26.60759-46.21915,29.6567c-2.7619,1.61111-4.26333,3.43746-5.15625,5.5s-1.15416,4.41878-1.15625,7.03125c-.00366,4.5634 1.11862,8.01892 1.40625,8.875 .78005,1.15339 58.55311,86.53564 119.03125,175.5625 10.59804,15.60085 21.00561,30.92799 31.40625,46.21875 40.02168-46.64778 70.86487-107.62417 60.34375-180.6875-12.88319-89.46661 2.87058-144.3819 21.9375-176.9375 9.53346-16.2778 19.88651-26.9811 27.875-33.59375 7.67102-6.34986 12.94578-8.83211 13.375-9.03125l.15625-.21875c-1.75483-1.71181-3.35187-3.25687-3.75-3.59375-5.77813-4.88918-9.05443-5.37216-11-5.28125z" fill="url(#ag)" filter="url(#bb)" opacity=".50204"/>
 <path d="m330.03 198.46c-0.92684 0.85975-3.118 2.8887-0.1875 0.15625 4.2626-3.9745-4.6509 4.0752-0.28125 0.21875s-4.7235 3.9856-0.25 0.25-4.8552 3.8306-0.28125 0.21875-4.9522 3.7042-0.28125 0.21875-5.077 3.5752-0.3125 0.21875-5.1358 3.4124-0.28125 0.1875l0.8125 1.2188c0.0799-0.97411 0.45471-1.9221 1.0625-2.6875zm2.5312 8.125 1.0938 1.6562s-57.525 37.875-117.19 77c-29.83 19.562-60.174 39.432-84.188 55.062-23.622 15.376-39.247 25.583-46.062 29.594-0.0082 0.2748-0.03098 0.38448-0.03125 0.71875-1e-3 1.2984 0.19602 2.2225 0.375 3.0625 2.1113 3.1215 57.852 85.495 117.59 173.44 30.439 44.807 61.347 90.212 85.625 125.66 12.134 17.716 23.018 33.423 31.062 44.969 4.0221 5.7731 7.3358 10.517 9.75 13.938 1.624 2.3008 2.1315 2.985 2.8438 3.9688 0.22174-0.1107 0.45176-0.20479 0.6875-0.28125 0.32899-0.75684 0.8497-1.4294 1.5-1.9375 0 0 70.017-52.839 141.78-107.28 35.881-27.22 72.193-54.845 100.41-76.438l35.125-27.062c7.2545-8.3275 7.1824-10.842 1.7768-20.959l-127.81-135.2c-35.611-37.57-71.786-75.65-100.19-105.25-14.2-14.8-26.47-27.496-35.688-36.906-4.5919-4.6877-8.6951-8.778-11.688-11.719-1.4962-1.4704-2.7161-2.65-3.5625-3.4688-0.4232-0.40936-0.77385-0.72108-1-0.9375l-0.15625-0.15625c-1.3227-1.1192-1.6207-1.23-2.0625-1.4688zm9.0625 534.78c-0.40193 0.28189-0.84583 0.50384-1.3125 0.65625-0.13831 0.35208-0.31693 0.6883-0.53125 1-2.3577 2.6145 4.04-4.1932 0.25-0.25-4.0408 4.2041 4.4026-4.3437 0.25-0.25s4.5114-4.2304 0.25-0.25 4.617-4.0829 0.25-0.21875 4.7508-3.9951 0.28125-0.25 4.8501-3.8421 0.28125-0.21875 4.946-3.7177 0.28125-0.21875z" fill="url(#af)" opacity=".50204"/>
 <path transform="matrix(.96593 -.25882 .25882 .96593 -381.62 -184.06)" d="m288.53 742.72c-32.743 0-36.146-1.5831-36.132-17.04 0.0219-25.136 36.79-54.126 71.473-42.462" fill="none" filter="url(#c)" stroke="url(#b)" stroke-linecap="round" stroke-width="15"/>
 <path transform="matrix(.96593 -.25882 .25882 .96593 -355.72 -151.39)" d="m286.36 741.09c-32.743 0-36.146-1.5831-36.132-17.04 0.0219-25.136 38.968-52.497 73.651-40.833" fill="none" filter="url(#c)" stroke="url(#b)" stroke-linecap="round" stroke-width="15"/>
 <path transform="matrix(.96593 -.25882 .25882 .96593 -334.41 -122.4)" d="m288.53 742.72c-32.743 0-39.761 2.154-39.748-13.302 0.0219-25.136 39.622-54.936 74.304-43.272" fill="none" filter="url(#c)" stroke="url(#b)" stroke-linecap="round" stroke-width="15"/>
 <path transform="matrix(.96593 -.25882 .25882 .96593 -315.22 -83.006)" d="m288.53 742.72c-32.743 0-36.146-1.5831-36.132-17.04 0.0219-25.136 36.79-54.126 71.473-42.462" fill="none" filter="url(#c)" stroke="url(#b)" stroke-linecap="round" stroke-width="15"/>
 <path transform="matrix(.96593 -.25882 .25882 .96593 -289.97 -47.65)" d="m288.53 742.72c-32.743 0-36.146-1.5831-36.132-17.04 0.0219-25.136 36.79-54.126 71.473-42.462" fill="none" filter="url(#c)" stroke="url(#b)" stroke-linecap="round" stroke-width="15"/>
 <path transform="matrix(.96593 -.25882 .25882 .96593 -259.66 -7.7492)" d="m288.53 742.72c-32.743 0-39.404 2.7726-41.926-14.932-3.5443-24.885 43.368-59.161 78.051-47.497" fill="none" filter="url(#c)" stroke="url(#b)" stroke-linecap="round" stroke-width="15"/>
 <path transform="matrix(.96593 -.25882 .25882 .96593 -236.91 22.555)" d="m288.53 742.72c-32.743 0-37.487-1.6426-36.132-17.04 1.343-15.261 39.946-30.539 71.473-42.462" fill="none" filter="url(#c)" stroke="url(#b)" stroke-linecap="round" stroke-width="15"/>
 <path transform="matrix(.96593 -.25882 .25882 .96593 -211.06 65.898)" d="m288.53 742.72c-32.743 0-37.487-1.6426-36.132-17.04 1.343-15.261 39.946-30.539 71.473-42.462" fill="none" filter="url(#c)" stroke="url(#b)" stroke-linecap="round" stroke-width="15"/>
 <path transform="matrix(.96593 -.25882 .25882 .96593 -174.32 107.77)" d="m288.53 742.72c-32.743 0-44.826 9.7886-44.41-5.6623 0.58606-21.744 48.184-58.231 80.927-58.231" fill="none" filter="url(#c)" stroke="url(#b)" stroke-width="15"/>
 <path d="m153.81 298.69c-8.6089 5.6273-16.603 10.84-24.375 15.906 32.811 27.096 113 96.983 227.5 221.06l-203.12-236.97z" fill="#fff" filter="url(#f)" opacity=".41009"/>
 <path d="m155.19 297.78c-15.009 9.8123-28.572 18.656-40.688 26.531l289.84 385.78 59.812-51.875-308.97-360.44z" fill="url(#u)" filter="url(#f)" opacity=".85"/>
 <path transform="matrix(-.20791 .97815 .97815 .20791 -88.264 81.856)" d="m430.71 645.22c2.555-36.979 59.514-66.414 70.714-53.571l-53.571-61.429c-31.641-14.953-69.309 47.929-62.143 57.143z" fill="url(#k)" filter="url(#f)" opacity=".85"/>
 <path d="m461.09 655.34c-17.069 0.33867-57.302 20.635-59.219 52.094l2.25 3.1875c19.467-14.727 42.138-31.9 66.344-50.25l-2.6875-3.0938c-1.1832-1.3611-3.5266-2.0002-6.6875-1.9375z" fill="url(#w)" filter="url(#ao)" opacity=".85"/>
 <path d="m453.26 637.3c-41.699-6.8454-77.175 44.143-67.057 58.041 1.737 1.5971 2.7192 2.0119 9.0112 2.704l-7.7992-9.9925c3.1594-27.805 51.19-53.59 62.075-46.363l4.3286 4.5033c0.26133-2.864 1.6426-7.0065-0.5586-8.8927z" fill="url(#v)" filter="url(#an)" opacity=".85"/>
 <path transform="matrix(-.20791 .97815 .97815 .20791 -88.264 81.856)" d="m317.84 443.54 130.81 144.6c3.4507 24.121-7.5906 26.988-24.042 21.92l-120.56-156.27c-3.1019-10.715 5.1262-14.459 13.789-10.253z" fill="url(#h)" filter="url(#f)" opacity=".85"/>
 <path d="m149.5 265.36-14.5-51 51.75 27z" fill="url(#ab)" filter="url(#ap)" opacity=".9386"/>
 <path d="m465.63 687.14c6.6486 2.6328 13.42 4.7738 21.92 0 7.0386-16.422 21.038-25.155 40.659-30.759 3.3519-13.815 3.235-14.557 2.8284-24.395-50.938 4.6135-59.831 34.047-65.407 55.154z" fill="url(#x)"/>
 <path d="m148.04 266.61c2.1483-25.609 17.509-31.085 39.608-26.293l324.45 372.13-63.179 47.722z" fill="url(#y)"/>
 <path d="m172.84 242.38c-9.6544 5.498-21.013 15.372-18.625 29.625l197.09 257.81c-129.85-183.4-178.47-287.44-178.47-287.44z" fill="#fff" filter="url(#at)" opacity=".48246"/>
 <path d="m430.71 645.22c2.555-36.979 59.514-66.414 70.714-53.571l-53.571-61.429c-31.641-14.953-69.309 47.929-62.143 57.143z" fill="url(#k)" filter="url(#ar)"/>
 <path d="m465.71 688.08c2.0732-36.951 63.582-57.812 65.411-55.844l-21.125-22.727c-36.941-5.5303-69.717 44.822-62.77 54.041z" fill="url(#ad)" filter="url(#as)"/>
 <path d="m430.71 645.17c1.9738-42.211 59.224-66.311 70.714-53.524 1.201 2.0311 1.4025 3.0781 0.77141 9.3765l-8.1526-9.7063c-27.854-2.6905-63.062 38.93-58.256 51.079l3.505 5.1703c-2.8558-0.33984-7.1949 0.15001-8.5823-2.3953z" fill="url(#z)"/>
 <path transform="matrix(.77715 -.62932 .62932 .77715 -342.75 523.88)" d="m596.31 727.56c0 9.3888-10.882 18.799-25.314 18.799s-26.132-7.6112-26.132-17 11.7-17 26.132-17c14.332 0 25.172 5.7099 25.313 15.033" fill="url(#ac)" filter="url(#aq)" opacity=".87719"/>
 <path d="m539.25 747.47c-0.50969-19.169 17.517-34.267 38.011-34.454l-48.526-57.199c-19.686-7.4217-45.875 24.919-39.79 32.12z" fill="url(#aa)"/>
 <path d="m317.84 443.54 130.81 144.6c3.4507 24.121-7.5906 26.988-24.042 21.92l-120.56-156.27c-3.1019-10.715 5.1262-14.459 13.789-10.253z" fill="url(#h)" filter="url(#ak)"/>
 <path d="m526.86 516.56h25.591a7.2046 7.2046 0 0 1 7.2046 7.2046v13.892a7.2046 7.2046 0 0 1 -7.2046 7.2046h-25.591a7.2046 7.2046 0 0 1 -7.2046 -7.2046v-13.892a7.2046 7.2046 0 0 1 7.2046 -7.2046" opacity=".38326"/>
 <path d="m469.65 431.59c25.65-17.421 110.39-11.895 140-3e-5 2.7408-0.22223 19.42 10.109 0 20.02 7.0609 7.2051 17.315 16.126 0 30 19.52 10 7.2271 30 0 30-27.192 27.192-112.81 27.192-140 0-4.4157 0.34861-18.968-10.169 0-20-14.265-10.586-10.977-21.73 0-30-18.046-9.026-5.0078-29.753 0-30.02z" fill="none" stroke="#d59600"/>
 <path d="m469.65 431.59c27.192-17.138 112.81-10.901 140-3e-5 2.7408-0.22223 19.42 10.109 0 20.02 7.0609 7.2051 17.315 16.126 0 30 19.52 10 7.2271 30 0 30-27.192 27.192-112.81 27.192-140 0-4.4157 0.34861-18.968-10.169 0-20-14.265-10.586-10.977-21.73 0-30-18.046-9.026-5.0078-29.753 0-30.02z" fill="url(#ah)"/>
 <path d="m471.65 462.61c11.624 11.224 88.75 36 134.75 19.5-65.334 5.6515-114.37-18.724-134.75-19.5z" fill="#d59600" opacity=".61674"/>
 <path d="m472.03 489.85c11.624 11.224 88.75 36 134.75 19.5-65.334 5.6515-114.37-18.724-134.75-19.5z" fill="#d59600" opacity=".59912"/>
 <g transform="translate(139.65 -220.75)" fill="#aeb000">
  <path d="m550 452.36c0 43.687-18.676 83.012-48.48 110.43-9.5487 8.7832-20.24 46.004-31.824 90.209-51.877 13.631-90.826 17.202-139.33-0.7295-11.458-43.765-22.041-80.486-31.512-89.139-30.02-27.429-48.851-66.898-48.851-110.77 0-82.843 67.157-150 150-150s150 67.157 150 150z" fill="#aeb000" opacity=".62115"/>
 </g>
 <g transform="translate(139.65 -220.75)">
  <path d="m550 452.36c0 43.687-18.676 83.012-48.48 110.43-9.5487 8.7832-20.24 46.004-31.824 90.209-51.877 13.631-90.826 17.202-139.33-0.7295-11.458-43.765-22.041-80.486-31.512-89.139-30.02-27.429-48.851-66.898-48.851-110.77 0-82.843 67.157-150 150-150s150 67.157 150 150z" fill="url(#m)" stroke="url(#t)"/>
 </g>
 <g transform="translate(139.65 -220.75)">
  <path d="m400 306.66c-80.53 0-145.72 65.189-145.72 145.72 0 42.643 18.269 80.943 47.438 107.59 6.3748 5.8246 10.889 17.293 16.219 33.219 5.1384 15.353 10.484 34.749 16 55.75 45.882 16.459 82.745 13.315 132.28 0.5 5.557-21.133 10.922-40.699 16.094-56.188 5.3817-16.118 9.9072-27.733 16.312-33.625 28.959-26.637 47.094-64.782 47.094-107.25 0-80.53-65.189-145.72-145.72-145.72z" fill="none" stroke="url(#s)"/>
  <path d="m376.93 503.3 11.145 78.634" fill="none" stroke="url(#r)" stroke-linecap="round" stroke-width="3.8551"/>
  <path d="m411.93 581.93 11.145-78.634" fill="none" stroke="url(#q)" stroke-linecap="round" stroke-width="3.855"/>
  <path d="m375 503.57c5.7747 0.77793 8.5734 3.3908 14.348-3.807 4.4917 4.5967 7.6361 10.362 19.006-1e-5 5.8926 7.5065 10.753 4.9897 16.646 4.4926" fill="none" filter="url(#al)" stroke="#fff" stroke-linecap="round" stroke-width="5"/>
  <path d="m380 658.67v-75.421c20.348-5.9155 21.655-6.0708 40 0v75.325" fill="url(#p)" opacity=".54185" stroke="#d0bfac" stroke-linecap="round" stroke-linejoin="round" stroke-width="5"/>
  <path transform="matrix(-.70711 .70711 -.70711 -.70711 926.99 430.07)" d="m478.28 413.03a84.187 63.446 0 1 1 -168.37 0 84.187 63.446 0 1 1 168.37 0z" fill="#fff" fill-opacity=".57068" filter="url(#aj)" opacity=".372"/>
 </g>
</svg>
