<?xml version="1.0" encoding="UTF-8"?>
<svg viewBox="0 0 48 48" xmlns="http://www.w3.org/2000/svg" xmlns:xlink="http://www.w3.org/1999/xlink">
 <defs>
  <filter id="b">
   <feGaussianBlur stdDeviation=".25349"/>
  </filter>
  <filter id="ad"/>
  <filter id="ai" x="-.18584" y="-.07908" width="1.3717" height="1.1582">
   <feGaussianBlur stdDeviation=".36244"/>
  </filter>
  <filter id="aj" x="-.13295" y="-.09941" width="1.2659" height="1.1988">
   <feGaussianBlur stdDeviation=".36244"/>
  </filter>
  <filter id="ak" x="-.1627" y="-.09341" width="1.3254" height="1.1868">
   <feGaussianBlur stdDeviation=".36244"/>
  </filter>
  <filter id="al" x="-.07863" y="-.18155" width="1.1573" height="1.3631">
   <feGaussianBlur stdDeviation=".36244"/>
  </filter>
  <filter id="ag" x="-.14308" y="-.12026" width="1.2862" height="1.2405">
   <feGaussianBlur stdDeviation=".24205"/>
  </filter>
  <filter id="af" x="-.16112" y="-.12349" width="1.3222" height="1.247">
   <feGaussianBlur stdDeviation=".24205"/>
  </filter>
  <filter id="ae" x="-.06678" y="-.1231" width="1.1336" height="1.2462">
   <feGaussianBlur stdDeviation=".25349"/>
  </filter>
  <filter id="am" x="-.06176" y="-.28524" width="1.1235" height="1.5705">
   <feGaussianBlur stdDeviation=".69081"/>
  </filter>
  <filter id="ah" x="-.14514" y="-.05459" width="1.2903" height="1.1092"/>
  <filter id="ac" x="-.0333" y="-.20499" width="1.0666" height="1.41"/>
  <filter id="ab" x="-.04126" y="-.11059" width="1.0825" height="1.2212"/>
  <filter id="aa" x="-.0495" y="-.10788" width="1.099" height="1.2158"/>
  <filter id="z" x="-.03361" y="-.17007" width="1.0672" height="1.3401"/>
  <linearGradient id="d">
   <stop stop-color="#ff7215" offset="0"/>
   <stop stop-color="#a40" offset="1"/>
  </linearGradient>
  <linearGradient id="c">
   <stop stop-color="#ffd73b" offset="0"/>
   <stop stop-color="#ee8400" offset="1"/>
  </linearGradient>
  <linearGradient id="a">
   <stop stop-color="#7ed249" offset="0"/>
   <stop stop-color="#286325" offset="1"/>
  </linearGradient>
  <linearGradient id="n" x1="31.621" x2="27.447" y1="20.246" y2="4.4245" gradientUnits="userSpaceOnUse">
   <stop stop-color="#ff5959" offset="0"/>
   <stop stop-color="#d90000" offset="1"/>
  </linearGradient>
  <linearGradient id="k" x1="32.269" x2="23.246" y1="21.623" y2="2.7508" gradientUnits="userSpaceOnUse">
   <stop stop-color="#d1f6f6" offset="0"/>
   <stop stop-color="#2adbdb" offset="1"/>
  </linearGradient>
  <linearGradient id="j" x1="24.822" x2="16.514" y1="11.76" y2="2.4454" gradientUnits="userSpaceOnUse">
   <stop stop-color="#d700d7" offset="0"/>
   <stop stop-color="#6e006e" offset="1"/>
  </linearGradient>
  <linearGradient id="i" x1="23.462" x2="40.401" y1="8.3436" y2="20.408" gradientUnits="userSpaceOnUse">
   <stop stop-color="#ffea00" offset="0"/>
   <stop stop-color="#ffffa4" offset="1"/>
  </linearGradient>
  <linearGradient id="q" x1="17.103" x2="13.833" y1="28.19" y2="12.81" gradientUnits="userSpaceOnUse" xlink:href="#c"/>
  <linearGradient id="p" x1="13.359" x2="12.322" y1="27.034" y2="25.789" gradientUnits="userSpaceOnUse" xlink:href="#c"/>
  <linearGradient id="o" x1="20.972" x2="21.866" y1="26.623" y2="22.221" gradientUnits="userSpaceOnUse" xlink:href="#c"/>
  <linearGradient id="m" x1="34.631" x2="31.411" y1="16.231" y2="9.9326" gradientUnits="userSpaceOnUse" xlink:href="#c"/>
  <linearGradient id="l" x1="31.201" x2="23.865" y1="18.17" y2="6.7488" gradientUnits="userSpaceOnUse" xlink:href="#a"/>
  <linearGradient id="r" x1="18.986" x2="31.46" y1="30.509" y2="32.337" gradientUnits="userSpaceOnUse" xlink:href="#a"/>
  <linearGradient id="s" x1="32.351" x2="21.157" y1="42.327" y2="27.794" gradientUnits="userSpaceOnUse" xlink:href="#a"/>
  <linearGradient id="t" x1="32.674" x2="22.772" y1="29.947" y2="30.316" gradientUnits="userSpaceOnUse" xlink:href="#a"/>
  <linearGradient id="u" x1="13.163" x2="31.722" y1="33.927" y2="23.669" gradientUnits="userSpaceOnUse" xlink:href="#a"/>
  <linearGradient id="v" x1="19.206" x2="33.202" y1="39.085" y2="25.56" gradientTransform="matrix(-.99278 -.11995 -.11995 .99278 56.679 3.5802)" gradientUnits="userSpaceOnUse" xlink:href="#a"/>
  <linearGradient id="w" x1="14.622" x2="33.095" y1="22.236" y2="46.232" gradientUnits="userSpaceOnUse" xlink:href="#a"/>
  <linearGradient id="x" x1="31.534" x2="24.197" y1="32.481" y2="30.773" gradientUnits="userSpaceOnUse" xlink:href="#a"/>
  <linearGradient id="y" x1="10.656" x2="33.095" y1="28.932" y2="46.232" gradientUnits="userSpaceOnUse" xlink:href="#a"/>
  <linearGradient id="h" x1="46.663" x2="37.325" y1="33.831" y2="41.263" gradientTransform="matrix(.99362 -.1128 .1128 .99362 -5.0759 3.767)" gradientUnits="userSpaceOnUse" xlink:href="#a"/>
  <linearGradient id="g" x1="26.845" x2="32.099" gradientUnits="userSpaceOnUse" xlink:href="#d"/>
  <radialGradient id="f" cx="13.855" cy="34.654" r="12.153" gradientTransform="matrix(1.4074 .20114 -.17448 1.2208 .40252 -12.118)" gradientUnits="userSpaceOnUse" xlink:href="#d"/>
  <radialGradient id="e" cx="18.185" cy="23.725" r="11.5" gradientTransform="matrix(1.4813 .009679 -.002254 .34494 -8.6992 16.6)" gradientUnits="userSpaceOnUse" xlink:href="#d"/>
 </defs>
 <path d="m21 38.156c-5.9298 0-10.719 1.3017-10.719 2.9062s4.789 2.9062 10.719 2.9062c3.7765 0 7.086-0.54613 9-1.3438 0.70299 0.11091 1.5026 0.1875 2.375 0.1875 1.098 0 3.536-0.53719 4.5938 0.09375-0.60465-0.65657 0.15625-0.96109 0.15625-1.375 0-0.71103-2.1223-1.2812-4.75-1.2812-0.35181 0-0.7012 0.01165-1.0312 0.03125-1.25-1.2296-5.4023-2.125-10.344-2.125z" fill-opacity=".76863" fill-rule="evenodd" filter="url(#am)"/>
 <path d="m7.579 28.969c3.9263 3.979-0.57895 7.7263 3.421 11.726s14.444 2.5153 18-1c7.4316-7.3474-2.2128-10.907 0.9375-14.844-1.9458-0.69107-20.78 6.2964-22.359 4.1174z" fill="url(#f)"/>
 <path transform="matrix(.98698 -.16086 .16086 .98698 -6.6723 4.8362)" d="m33 25.5a11.5 3.5 0 1 1 -23 0 11.5 3.5 0 1 1 23 0z" fill="url(#e)" fill-rule="evenodd"/>
 <path d="m27,30c1.44483-.07482 2.82289-.52979 3.39144-.96876 .42718-.32982.37553-1.02083-.7636-.86749-.13023-.27057-.25275-.55653-.30096-.99113 1.86266-.94592 5.6845,2.33803-1.07688,4.45238-1.56999-.22341-1.53986-1.57701-1.25-1.625z" fill="url(#g)"/>
 <path d="m9.9879 27.085c-0.91335-0.19151-1.9624 0.6438-1.149 1.0607 6.9122 3.0685 18.835-1.1034 20.108-3.3588 0.32409-1.4731-2.2686-2.3718-3.8007-1.5026-0.87421-1.1035-3.0664-1.5379-4.0659 0.44194-0.39775-0.72184-1.9445-0.86915-2.6516-0.04419-0.49684-0.85818-3.4988 0.52782-2.9168 1.6352-0.91299-1.1189-4.1647-0.28611-3.7123 0.61872-0.86915-0.36829-1.9151 0.27989-1.812 1.149z" fill="url(#q)"/>
 <path d="m11.093 28.146c-0.2642-0.82848-0.053-1.3174 1.3258-0.97227 0.14741-1.4238 0.97313-1.0387 1.812-0.61872 0.30057-0.30342-0.12319-1.3312 1.4584-0.35355 0.43874 0.78974-3.2961 2.5788-4.5962 1.9445z" fill="url(#p)"/>
 <path d="m18.517 25.803c-0.3783-0.2931 0.9774-2.1277 2.0329-0.57453 0.33658-0.84614 1.1376-0.80157 1.812 0.48614 0.89588-1.9174 2.5859-1.366 2.9168-0.26516 0 0-4.8172 2.3865-6.7617 0.35355z" fill="url(#o)"/>
 <g transform="matrix(.27083 0 0 .27083 25.182 31.575)">
  <path d="m23.633 23.73c4.717 6.6633 13.365 14.698 20.539 18.178 0.76025-1.5632 1.1306-2.9166 0.82764-3.9078-7.4702-0.95251-13.979-9.1462-19.409-15.115-0.88582-1.0444-2.313-0.53608-1.9585 0.8445z" fill="url(#h)"/>
  <g transform="translate(-2.1567 .60766)">
   <path d="m27.116 22.989c-2.7408 4.9064-8.129 6.5511-9.5741 11.15-1.5693 4.9948 0.48218 9.9463 8.2267 6.7864 6.271 4.0721 10.702-1.4037 9.3349-7.8776-0.7422-3.515-7.3199-6.7347-7.9876-10.059z" fill="url(#s)"/>
   <path d="m26.863 25.179c0.92209 5.0266 0.23524 9.7351-0.8421 14.316 0.15598 0 6.0527-5.8105 0.8421-14.316z" fill="url(#r)"/>
  </g>
  <g transform="matrix(.028213 -.9996 -.9996 -.028213 45.73 51.48)">
   <path d="m27.255 21.83c-3.4987 1.1169-8.2682 7.7107-9.7133 12.31-1.5693 4.9948 0.48218 9.9463 8.2267 6.7864 5.7039 3.7039 9.9333-0.87274 9.6534-6.8465-0.1949-4.1597-3.868-8.0007-8.1669-12.25z" fill="url(#y)"/>
   <path d="m26.863 25.179c0.92209 5.0266 0.23524 9.7351-0.8421 14.316 0.15598 0 6.0527-5.8105 0.8421-14.316z" fill="url(#x)"/>
  </g>
  <g transform="matrix(-.99819 .060081 -.060081 -.99819 53.445 45.028)">
   <path d="m27.256 22.996c-3.9937 5.1365-8.2688 6.5444-9.7138 11.144-1.5693 4.9948 0.48218 9.9463 8.2267 6.7864 5.9984 3.8773 11.079-0.71008 9.7918-6.7969-0.77412-3.6616-4.8642-5.442-8.3047-11.133z" fill="url(#w)"/>
   <path d="m26.99 25.355c-1.5184 4.8798-1.4012 9.6366-0.88109 14.313-0.15486-0.01871-5.3121-6.4946 0.88109-14.313z" fill="url(#v)"/>
  </g>
  <g transform="matrix(-.0001147 -1 1 -.0001147 2.4046 50.566)">
   <path d="m26.948 22.316c-2.5726 3.3907-7.9608 7.2248-9.4058 11.824-1.5693 4.9948 0.48218 9.9463 8.2267 6.7864 6.1976 4.0244 10.024-1.8059 8.7567-8.3785-0.71108-3.6886-4.4486-7.5224-7.5775-10.232z" fill="url(#u)"/>
   <path d="m26.863 25.179c0.92209 5.0266 0.23524 9.7351-0.8421 14.316 0.15598 0 6.0527-5.8105 0.8421-14.316z" fill="url(#t)"/>
  </g>
  <path d="m21.5 5c-5.7856 2.4194-4.8315 5.9316-4.6875 9.3125 0 0-3.25-8.25 4.6875-9.3125z" fill="#fff" fill-opacity=".66518" filter="url(#ak)"/>
  <path d="m11.375 15.5c-4.1299 1.1769-6.8401 3.4292-5.5 8.75-0.13451 0-4.4428-7.8125 5.5-8.75z" fill="#fff" fill-opacity=".66518" filter="url(#aj)"/>
  <path d="m16.062 41.188c-1.1857-4.7216 1.5887-9.6115 4-11 0 0-6.8125 2.5625-4 11z" fill="#fff" fill-opacity=".66518" filter="url(#ai)"/>
  <path d="m27.75 20.938c1.7191-1.29 5.3947-3.8487 11.062-4.5-0.55211-0.82817-7.2888-0.05817-11.062 4.5z" fill="#fff" fill-opacity=".66518" filter="url(#al)"/>
 </g>
 <path d="m9.5869 33.114c0.29312 3.099 0.10272 6.3634 2.9773 8.396 0 0-4.0491-0.7741-2.9773-8.396z" fill="#fff" fill-opacity=".53125" filter="url(#ah)"/>
 <path d="m11.611 25.134c-3.5708 1.8123-4.9137 3.4854-0.89319 4.8232-0.73955 0.12626-7.2587-1.3894 0.89319-4.8232z" fill="#fff" fill-opacity=".66518" filter="url(#ag)"/>
 <path d="m26.915 22.991c3.5602 0.81234 2.6774 2.3942-0.655 4.7041 1.316-0.54202 7.0121-2.9933 0.655-4.7041z" fill="#fff" fill-opacity=".66518" filter="url(#af)"/>
 <path d="m21.288 23.646c1.1824-1.278 2.4004-1.4506 3.6621-0.26796 1.0539-0.35569 2.0697-0.54608 2.888 0.11909-0.75497-0.27193-1.4857-0.57712-2.8582 0-1.0424-0.96648-2.2526-1.0271-3.6918 0.14887z" fill="#fff" filter="url(#ac)"/>
 <path d="m18.535 20.621c-1.1609 0.94678-1.757 0.34058-2.021-1.179 0.06253-17.674 21.072-19.58 28.286-14.639 0.96663 1.3675 0.20244 1.8696-0.08421 2.6105l-26.181 13.208z" fill="url(#j)"/>
 <path d="m20.512 21.442c-0.78042 0.21364-1.5916 0.56563-1.9368-1.179 1.8661-20.205 21.857-15.195 26.645-13.692 0.5186 1.0105 1.4102 2.5263-0.08421 3.0316-9.638 0.10084-19.462-0.29906-24.624 11.84z" fill="url(#k)"/>
 <path d="m21.765 22.164c-0.5614-0.05994-1.1228 0.4922-1.6842-1.6842 1.0884-15.996 16.729-15.343 25.14-11.298 0.58377 0.78596 1.3674 1.5719 0 2.3579-9.4402-2.3558-19.465-3.3703-23.456 10.624z" fill="url(#l)"/>
 <path d="m23.029 22.573c-0.66911-0.02546-1.3663 0.01935-1.6-1.0947 0.97621-16.522 18.389-14.292 24.298-10.191 0.38786 0.8404 0.60489 1.6238-0.33684 2.021-8.8077-2.1144-18.527-5.2732-22.361 9.2649z" fill="url(#i)"/>
 <path d="m24.042 22.508c-1.0697 0.17792-1.2761-0.74958-1.0421-1.579 0.78843-14.503 17.358-11.758 23-8 0.93808 1.3024-0.23259 1.5504-1 2-17.243-6.6856-18.777 0.51188-20.958 7.579z" fill="url(#m)"/>
 <path d="m25 22.929c3.0364-12.891 17-8 20-6 0.91725-0.85889 1.9232-1.7041 0-3-5-3-19.055-4.7955-21 7-0.19731 2.4355 0 2 1 2z" fill="url(#n)"/>
 <path d="m17.983 13.44c2.854-6.0015 7.6699-8.3028 12.564-10.063-0.20864-0.1138-9.7618 1.22-12.564 10.063z" fill="#fff" fill-opacity=".8125" filter="url(#b)"/>
 <path d="m20.424 14.333c2.1257-3.5015 4.2744-6.9934 10.897-8.6342 0-0.98002-9.5273 1.6102-10.897 8.6342z" fill="#fff" fill-opacity=".8125" filter="url(#b)"/>
 <path d="m21.972 14.928c1.9614-4.054 5.4224-6.5251 10.242-7.5623-0.07375-0.07375-8.2223 0.41189-10.242 7.5623z" fill="#fff" fill-opacity=".8125" filter="url(#b)"/>
 <path d="m23.044 16c2.4757-3.3999 5.7043-6.8087 10.837-7.086-2.4667-0.5279-9.2985 1.2662-10.837 7.086z" fill="#fff" fill-opacity=".8125" filter="url(#b)"/>
 <path d="m24.592 16.595c1.553-2.5725 2.6244-5.3189 9.706-5.895-1.6654-0.96222-9.6277 1.3999-9.706 5.895z" fill="#fff" fill-opacity=".8125" filter="url(#b)"/>
 <path d="m25.605 17.31c1.4751-1.5116 2.1027-3.0301 9.1105-4.9423 0 0-6.9669 0.11909-9.1105 4.9423z" fill="#fff" fill-opacity=".8125" filter="url(#ae)"/>
 <path d="m8.75324,27.75442c-.32211-.30688.32817-.47485 1.1016-.62523 .68302-1.2008 1.30103-1.29625 1.90547-1.16114 1.05198-1.2893 2.46123-1.37554 3.60252-.68478-1.77976-.58859-2.72602-.0231-3.48343.80387-.9717-.20702-1.45128.35928-1.87569,1.01228-.49445.11483-.98853.23015-1.25046.655z" fill="#fff" fill-opacity=".95982" filter="url(#ad)"/>
 <path d="m11.16484,27.90328c.05444-.59064.16544-1.12472 1.31001-.62523 .257-1.24103.87764-1.1487 1.60774-.655 .35364-.61377.74428-1.10175 1.48865-.38705-1.24645-.64107-1.06421.14655-1.36956.44659-.93364-.64354-1.44768-.30801-1.66728.71455-.94753-.42051-1.20491-.01282-1.36955.50614z" fill="#fff" filter="url(#aa)"/>
 <path d="m18.549 25.551c0.93189-1.2761 1.4427-0.79786 1.9055-0.11909 0.68793-1.1574 1.2946-0.3646 1.9055 0.3275 1.1442-1.6844 1.9252-1.2617 2.6796-0.68478-1.3982-0.85306-2.0602-0.08632-2.6796 0.7741-0.65647-0.74353-1.3145-1.5075-1.8162-0.23818-0.43137-0.72051-1.0105-0.99779-1.9948-0.05955z" fill="#fff" filter="url(#z)"/>
 <path d="m15.631 25.164c-0.17139-0.78683 1.0174-1.8896 2.62-1.3993 1.7329-1.113 2.0435-0.32954 2.6498 0.05955-0.77218-0.5534-1.6107-0.7306-2.62 0.05955-2.6174-0.29081-2.1508 0.69448-2.6498 1.2802z" fill="#fff" filter="url(#ab)"/>
</svg>
