<?xml version='1.0' encoding='utf-8'?>
<svg xmlns="http://www.w3.org/2000/svg" version="1.1" width="600px" height="976px" viewBox="0 0 600 976"> <g id="layer1"> <g style="fill:rgb(0,0,0); fill-opacity:1.0; stroke-linejoin: miter"> <path d="M118.048134,226.09712C119.35266,226.09712,120.99983,226.16785,122.81475,226.29198L122.81474,226.29198C120.999825,226.16785,119.35266,226.09712,118.048134,226.09712C116.84267,226.09712,115.92978,226.15752,115.44748,226.29198L115.44748,226.29198C115.92978,226.15752,116.84267,226.09712,118.048134,226.09712 Z M271.36176,263.5775C271.36255,263.5775,271.36334,263.5775,271.36417,263.5775L271.35934,263.5775C271.36017,263.5775,271.36096,263.5775,271.36176,263.5775 Z M94.050545,280.62137C94.32725,280.62137,94.671585,280.69003,95.07834,280.82492L95.078316,280.82492C94.67157,280.69003,94.32725,280.62137,94.050545,280.62137C93.77711,280.62137,93.56971,280.68842,93.43339,280.82492L93.43339,280.82492C93.56971,280.68842,93.77711,280.62137,94.050545,280.62137 Z M246.08006,282.93063C246.07416,282.93063,246.06825,282.93063,246.06235,282.93063C246.05644,282.93063,246.05052,282.93063,246.04462,282.93063 Z M216.85501,325.2563C216.85315,325.2563,216.85127,325.2563,216.84941,325.2563C216.84755,325.2563,216.84567,325.2563,216.84381,325.2563 Z M197.90266,315.40472C198.25627,315.4069,199.39757,316.5576,201.306,318.87595C202.69174,320.55124,206.20773,323.2961,209.2208,324.93906C212.97897,327.16565,214.42276,327.8012,217.01407,327.8012C217.77794,327.8012,218.64153,327.746,219.69351,327.66C222.59348,327.4017,226.32144,326.72116,228.23856,326.15695L231.525,325.1899L232.04764,328.28C232.59718,331.9556,232.04158,332.95102,229.04044,332.95102C228.853,332.95102,228.65602,332.94714,228.44919,332.9398C228.371,332.937,228.28545,332.93564,228.1929,332.93564C226.36331,332.93564,221.80763,333.46994,217.655,334.1821L209.65756,335.5239L206.06058,329.9758C204.00107,326.92136,201.09714,322.21115,199.56937,319.44662C198.06754,316.7625,197.52008,315.40707,197.90068,315.40472 Z M83.58445,341.43628C83.59441,341.4364,83.604256,341.43646,83.61399,341.43646C83.623436,341.43646,83.632774,341.4364,83.642006,341.43628L83.642845,341.43628C83.63334,341.4364,83.62372,341.43646,83.61399,341.43646C83.60398,341.43646,83.59386,341.4364,83.58362,341.43628 Z M28.236435,350.40872C28.23709,350.40872,28.237745,350.40872,28.238401,350.40872L28.2383,350.40872C28.237679,350.40872,28.237057,350.40872,28.236435,350.40872C28.235813,350.40872,28.235193,350.40872,28.234573,350.40872L28.234474,350.40872C28.235126,350.40872,28.23578,350.40872,28.236435,350.40872 Z M498.0966,354.17667C498.1347,354.17667,498.17157,354.17783,498.2071,354.18015L498.2069,354.18015C498.17142,354.17783,498.13464,354.17667,498.0966,354.17667C498.05844,354.17667,498.019,354.17783,497.97833,354.18015L497.97812,354.18015C498.01886,354.17783,498.05838,354.17667,498.0966,354.17667 Z M271.91254,355.62643C271.89862,355.62643,271.8847,355.62643,271.87076,355.62643C271.8568,355.62643,271.84286,355.62643,271.8289,355.62643 Z M167.19664,358.4381L167.19664,358.4381C167.1965,358.4381,167.19635,358.4381,167.19621,358.4381C167.19608,358.4381,167.19592,358.4381,167.19579,358.4381 Z M172.78482,358.8117C173.03297,358.8117,173.2751,358.88452,173.54268,359.04303L173.54266,359.04303C173.2751,358.88452,173.03297,358.8117,172.78482,358.8117C172.52104,358.8117,172.25047,358.89398,171.9353,359.04303L171.9353,359.04303C172.25047,358.89398,172.52104,358.8117,172.78482,358.8117 Z M126.3072,382.3357C126.379105,382.3357,126.45433,382.34247,126.53483,382.35776L126.53476,382.35776C126.454285,382.3425,126.37908,382.3357,126.3072,382.3357C126.22869,382.3357,126.15414,382.3438,126.08099,382.35776L126.08093,382.35776C126.15409,382.34378,126.22867,382.3357,126.3072,382.3357 Z M153.65765,402.77C153.65623,402.77,153.6548,402.77,153.65338,402.77C153.65196,402.77,153.65053,402.77,153.64911,402.77 Z M473.37967,406.50977C473.95456,406.50977,475.24677,407.0929,477.80743,408.38287C480.5562,409.8355,484.62323,412.32892,486.7276,414.12018C488.83527,415.8211,490.86224,417.24835,491.31342,417.26434C491.76447,417.28033,493.32428,419.14252,494.77777,421.4527L497.51764,425.70563L495.06268,428.68988C492.1374,432.19916,488.61908,434.6037,484.60126,435.81586C483.7615,436.063,483.03525,436.21454,482.39233,436.21454C479.2609,436.21454,478.10632,432.6191,475.44415,418.95868C474.37665,413.4101,473.2962,408.22247,473.05463,407.40082C472.9223,406.82303,472.9583,406.50977,473.37967,406.50977 Z M335.09677,438.08594C335.40494,438.08594,335.7175,438.0906,336.03763,438.10016L336.03748,438.10016C335.7174,438.09064,335.4049,438.08594,335.09677,438.08594C334.78516,438.08594,334.47806,438.09073,334.1721,438.10016L334.17194,438.10016C334.47794,438.09073,334.78513,438.08594,335.09677,438.08594 Z M62.520363,453.33044C62.599663,453.33054,62.678555,453.33063,62.757042,453.33066L62.757042,453.33066C62.678345,453.33063,62.599247,453.33054,62.51974,453.33044 Z M515.6311,495.96057L515.6311,495.96057C515.85876,495.9606,516.0725,495.9663,516.27203,495.97702L516.272,495.97702C516.07245,495.9663,515.85876,495.9606,515.6311,495.96057L515.6259,495.96057C515.40576,495.9606,515.17255,495.9659,514.9266,495.97702L514.9266,495.97702C515.17255,495.9659,515.40576,495.9606,515.6259,495.96057 Z M437.90158,503.23984C437.8966,503.23984,437.89166,503.23984,437.88672,503.23984C437.88177,503.23984,437.87683,503.23984,437.8719,503.23984 Z M387.8376,546.29047C387.83618,546.29047,387.83475,546.29047,387.8333,546.29047C387.83197,546.29047,387.83063,546.29047,387.82925,546.29047 Z M441.32822,567.21484C441.31476,567.21484,441.30127,567.21484,441.28778,567.21484C441.27423,567.21484,441.26068,567.21484,441.24713,567.21484 Z M448.9396,572.83093C448.93784,572.83093,448.93604,572.83093,448.93423,572.83093C448.93243,572.83093,448.93063,572.83093,448.92883,572.83093 Z M133.92397,575.8697C133.9234,575.8697,133.92284,575.8697,133.92227,575.8697C133.9217,575.8697,133.92114,575.8697,133.92058,575.8697 Z M169.38824,153.84769C163.39502,153.84769,158.67982,155.36766,151.35123,158.7391C147.76834,160.41853,137.52866,163.84871,128.49716,166.32808C119.46243,168.89766,106.31315,172.85677,99.27293,175.22615C92.232765,177.59578,83.54612,180.53914,79.889084,181.76399C72.12071,184.2884,62.899582,189.56148,60.61876,192.73262C59.75865,194.05696,58.612167,198.3525,57.907272,202.9344C56.22728,214.61873,56.320602,214.5317,51.73894,216.35616C46.60631,218.4322,38.761345,225.65118,36.326103,230.62347C34.680107,233.72675,34.31005,236.5141,33.899467,248.06268L33.411983,261.77658L28.53387,264.31332C22.18347,267.61057,21.429564,268.48715,16.124083,277.96457C8.30609,292.05038,6.7474356,297.77646,5.2393794,317.3259C4.2362056,330.29892,3.3961177,336.14096,1.7601316,341.50302C0.12091063,346.9553,-0.48095697,351.17978,-0.79528797,360.0217C-1.2699584,373.37473,0.058288567,396.99982,1.6835325,404.64594C3.002441,410.74542,8.682128,423.7751,13.381346,431.3499C17.310362,437.72284,25.683102,446.15082,31.087276,449.14325C40.571102,454.26837,44.154415,455.11847,58.593315,455.54144C61.066334,455.60214,63.2495,455.6382,65.19407,455.6382C76.166245,455.6382,79.542274,454.48996,84.531364,450.13983C86.6884,448.28632,88.02696,447.29874,88.82963,447.29874C89.830055,447.29874,89.997986,448.83292,89.88055,452.1369C89.784294,454.84344,90.98699,459.13214,98.39867,481.88947C99.94603,486.64203,102.05449,493.40192,103.10234,496.96234C104.153366,500.43256,106.34239,507.46625,108.06059,512.49603C109.68877,517.5224,112.203415,525.56146,113.75084,530.314C120.80156,553.05853,124.94066,563.6849,134.37529,582.9007C138.24644,590.89764,141.24437,598.0505,140.95128,598.6724C140.65489,599.38446,141.7476,601.6818,143.38487,603.908C145.11565,606.0474,149.09947,613.4161,152.38084,620.2176C162.39252,640.98975,169.36023,648.2837,181.99817,651.0818C185.40106,651.9254,190.83405,654.1061,194.46265,656.22253C199.9928,659.355,203.27472,660.7201,207.07587,660.7201C209.23973,660.7201,211.57184,660.2777,214.58276,659.46716C222.15143,657.4778,233.7248,652.10767,259.96448,638.2252C299.6461,617.23224,306.62473,614.04755,341.4388,600.37946C364.58786,591.19806,367.7758,589.9628,372.88943,589.9628C373.68616,589.9628,374.52957,589.9928,375.50253,590.0274C386.59686,590.512,399.4931,596.21014,424.77716,611.74347C438.15778,619.9932,447.9652,623.74274,456.87723,623.74274C459.56403,623.74274,462.16946,623.4019,464.7669,622.7409C467.22845,622.1058,470.992,620.4327,473.1214,618.9727C475.15778,617.5997,490.05804,602.50116,506.1148,585.3658C535.12604,554.50824,552.5297,537.6014,564.1219,529.1606C578.5914,518.56354,578.9777,517.85455,580.67255,498.13104C581.4157,489.9367,583.0965,462.98566,584.4327,438.10016C585.7659,413.30487,587.7619,382.5709,588.84564,369.8718C590.73663,347.17404,590.7558,346.63278,589.07904,337.90085C586.5667,324.71262,582.62726,313.55136,575.21686,298.38242C574.11774,296.2656,560.3155,288.09628,550.7061,283.96042C539.9666,279.26154,530.98517,276.91113,523.815,276.91113C522.4331,276.91113,521.11847,276.99844,519.8715,277.17307C504.6209,279.2507,485.85907,286.08176,458.002,299.72604C439.61407,308.7385,435.82526,311.13315,425.95355,319.45456C421.38837,323.3574,415.7083,328.124,413.47552,329.94174L409.29034,333.316L407.83368,331.09616C400.82025,320.00644,377.9039,301.39536,368.32382,298.97714C363.81375,297.82117,341.33966,296.53046,329.84537,296.53046C326.73782,296.53046,324.43283,296.6248,323.5023,296.84164C322.89792,296.98547,322.41815,297.08173,322.00092,297.08173C320.59406,297.08173,319.89804,295.98737,317.5339,291.93185C313.18588,284.64072,311.01047,282.30502,302.1097,276.0262C293.4763,269.84738,292.05515,269.16452,281.86606,266.09225C273.19455,263.52548,273.02377,263.24838,272.75458,253.03058C272.70245,249.41547,272.54718,246.15778,272.56,245.79694C272.4826,245.4328,271.87994,244.59833,271.18695,243.76068C269.9688,242.4527,255.60034,219.71883,242.19232,197.92268C233.4029,183.42744,223.16988,168.88057,219.67653,165.50423C215.39015,161.5577,213.43105,160.76558,201.93379,158.91122C196.54286,158.08725,188.1938,156.61618,183.53108,155.63742C177.60535,154.47345,173.23372,153.84769,169.38824,153.84769 Z"/> </g> <g style="fill:rgb(255,202,158); fill-opacity:1.0; stroke-linejoin: miter"> <path d="M160.88228,157.45187C159.14566,158.02267,154.83469,159.85666,151.25497,161.44576C147.7623,163.12837,136.79446,166.71333,127.031525,169.4377C117.26865,172.16219,105.94309,175.64412,101.915504,177.12703C97.88798,178.60994,90.486855,180.96638,85.55393,182.5074C75.78459,185.41231,65.567795,190.74043,62.732773,194.25288C61.595566,195.74825,60.65526,199.32845,59.70256,205.79878C59.065414,211.0157,58.18004,215.5915,57.893356,216.03291C57.606613,216.47444,55.58324,217.48653,53.382618,218.40181C48.5302,220.217,41.15569,226.91058,38.543205,231.78644C36.903557,234.70917,36.52703,237.67694,35.833,249.57684L34.96539,263.81918L30.177547,266.3591C23.92047,269.56955,23.263304,270.26877,18.044798,279.8397C10.600524,293.57736,9.360717,297.9597,7.946105,317.4222C6.9108877,331.29733,6.2058706,335.8795,4.3734126,341.68613C1.4426268,350.43503,0.7810668,363.96225,2.257263,385.9666C3.4362788,403.6242,4.294006,407.4488,10.424804,420.49457C14.292784,428.58173,16.519896,432.00348,21.737669,437.69952C32.695248,449.65216,42.230404,453.33368,62.466057,453.33038C75.654594,453.3476,77.66192,452.78656,85.02697,446.36334L89.59545,442.3703L89.63946,436.04816C89.73168,428.37286,92.24389,421.23517,99.59154,407.67487C106.73949,394.64948,115.88243,383.95334,122.023605,381.46152C123.673325,380.79745,124.874985,380.0272,124.79448,379.75327C124.37865,378.74484,113.27312,368.4128,106.60545,362.84604C103.008896,359.82736,97.49486,354.84348,94.35589,351.6605C91.21368,348.5676,87.70098,345.73264,86.53771,345.42014C84.30456,344.70847,80.55413,346.02048,73.639885,349.93015C71.333,351.29355,66.8543,352.76047,63.58703,353.18637C60.31658,353.70248,54.413567,354.57663,50.50512,355.2507C43.503414,356.53757,43.142513,356.52475,35.63757,354.18015C27.504269,351.723,26.88226,351.42978,27.81982,350.46945C28.190365,350.21164,31.87341,350.79416,36.081844,351.84714C42.52978,353.4315,44.60168,353.59543,48.96453,352.84714C51.780632,352.40524,57.409782,351.61166,61.405205,351.03098C66.58001,350.3116,70.140434,349.264,73.82958,347.1367C78.53033,344.50327,80.06048,342.1185,77.08312,342.01266C76.36138,341.98703,74.48589,341.3784,72.887566,340.59885C64.44787,336.59494,52.624565,331.20602,49.063774,329.72446C43.008785,327.25082,39.290035,325.13107,39.32214,324.22885C39.357418,323.23642,41.699947,323.41,43.649593,324.473C44.445553,324.9531,46.75604,326.0289,48.715324,326.82126C58.77581,330.9731,60.55468,331.75912,63.741753,333.5887C65.60107,334.64853,68.266106,335.91757,69.51641,336.32346C70.76348,336.81943,74.06005,338.11105,76.7282,339.29C79.39648,340.46884,82.52215,341.48325,83.698296,341.43478C84.78094,341.47324,85.67028,341.8663,85.65429,342.31735C85.635,342.85873,86.4342,343.2485,87.42669,343.28378C88.41912,343.31906,92.463554,346.44382,96.48552,350.20053C100.41728,353.95358,105.67021,358.65732,108.038925,360.63852C110.50102,362.5328,120.98784,372.4813,131.5584,382.6135C142.03874,392.7425,151.38792,401.65692,152.35796,402.32367C153.8532,403.46088,155.59312,402.8001,168.93852,395.867C177.13194,391.55096,184.03648,387.91193,184.13316,387.73468C184.50365,387.47687,180.89067,382.37997,164.95964,360.40366C159.27745,352.52292,153.1668,343.99472,151.53911,341.49777C132.51353,312.546,130.08995,309.56894,120.91521,303.37082C112.97801,297.93967,108.44713,295.79086,97.28795,292.05185C84.0761,287.60727,76.64489,283.1876,68.178764,274.84665C65.99688,272.6915,62.935356,269.87228,61.446404,268.55478C58.642693,266.1064,57.73687,263.6351,59.631584,263.70236C60.533806,263.73447,62.19671,265.23898,71.43957,274.6013C77.1986,280.31662,87.0274,285.9055,97.47124,289.43857C113.89903,294.90085,126.45732,302.48398,134.08586,311.5178C136.2484,314.21445,140.55418,320.14914,143.63866,324.86594C156.66624,344.66122,159.23827,348.54684,162.42888,352.81564C164.3272,355.32224,166.13853,357.73544,166.48338,358.19943C166.9185,358.66647,168.19121,358.44077,169.57658,357.58664L171.8867,356.13303L169.56944,352.70822C168.28014,350.85556,165.43755,346.96054,163.18791,344.17014C160.93834,341.38022,156.89354,335.7258,154.0573,331.65012C151.22105,327.57455,147.94334,323.21213,146.72514,321.90427C145.59715,320.59933,140.83702,314.73886,136.2636,308.70444C128.75096,298.95187,127.529526,297.73422,122.98912,295.8564C120.23064,294.67404,117.28221,293.7562,116.37999,293.7241C111.14702,293.53818,93.239555,283.95822,93.24236,281.3386C93.30004,279.71457,96.32909,280.90634,101.08568,284.3276C106.01317,288.02585,109.48363,289.50424,117.09483,291.40085C126.407455,293.71945,129.67204,295.91318,136.3209,304.55087C139.60179,308.8231,145.13554,315.795,148.68388,320.16708C152.14207,324.53598,156.19658,329.91953,157.65025,332.22958C159.10374,334.53976,161.68858,338.06442,163.33226,340.1102C165.06621,342.1594,168.68877,346.9857,171.35417,350.78415C177.02666,358.93552,179.7144,362.10263,190.23051,373.76852L198.05551,382.35776L208.4595,379.38522L218.7703,376.4996L220.99619,372.33286C223.52151,367.36374,223.34073,364.82785,219.405,356.10593C215.80118,348.20883,213.1614,343.68845,208.06601,337.09335C203.05753,330.59164,196.99814,320.61996,187.48973,303.4791C185.11424,299.1489,181.02739,292.1379,178.37798,287.8884C175.81877,283.6417,173.69786,279.77243,173.71391,279.32114C173.77165,277.6971,165.81078,265.30893,148.89963,240.40704C143.23349,232.07526,138.35147,229.64337,125.20456,228.45331C119.352875,227.88373,115.04465,227.0982,115.06387,226.55707C115.115204,225.11334,138.07077,227.37494,141.26102,229.11444C145.06686,231.32733,150.62625,237.5777,155.33188,244.97198C157.55264,248.57404,160.98195,253.7547,162.87071,256.5322C168.87834,265.41794,173.32298,272.53207,175.93388,277.86423C177.36827,280.7159,181.02013,287.2596,184.08849,292.42758C190.47679,303.3143,204.80222,319.63266,211.17636,323.29196C215.16263,325.51144,215.61063,325.61765,221.78415,324.75327C225.41568,324.24997,229.05338,323.56625,229.88461,323.05368C232.36557,321.8773,237.39713,312.48032,238.2084,307.4503C240.02396,297.03574,236.84482,284.81747,229.0643,272.43576C225.90573,267.26462,218.51167,254.17377,211.22408,240.63531C209.01942,236.58197,204.84224,229.56805,201.75136,225.03156C198.75069,220.49837,194.20625,213.65181,191.63423,209.76631C189.06227,205.88057,181.52394,196.84993,174.91084,189.74934C168.3008,182.5583,162.91872,176.40486,162.93471,175.95357C162.94759,175.59285,163.41151,175.248,163.95277,175.26729C165.5768,175.3249,189.1324,201.36641,192.9872,207.28499C194.86934,210.24251,198.05061,214.7823,199.94246,217.46931C204.16438,223.22029,209.19264,231.7099,219.04268,249.40472C226.67844,263.31723,233.4985,274.76157,236.93747,279.67172C238.82608,282.44882,239.35782,282.73886,243.95926,282.90244C252.71402,283.12326,256.545,282.08505,260.64963,278.43674C265.4114,274.08932,266.47122,272.22983,268.68015,263.4553C271.82953,251.10077,271.42645,249.73126,259.45917,230.60602C253.73175,221.45918,244.67487,206.86397,239.2923,198.18074C227.16064,178.59822,218.88417,167.46358,214.55305,164.7801C212.34242,163.43684,208.76546,162.40633,204.26717,161.88496C200.48744,161.47957,192.76674,160.12117,187.118,158.92648C175.64314,156.44089,165.6349,155.90463,160.88228,157.45187 Z"/> </g> <g style="fill:rgb(254,252,75); fill-opacity:1.0; stroke-linejoin: miter"> <path d="M270.3884,266.2263C268.97177,273.04147,267.71872,275.25534,262.86032,279.78024L257.9117,284.30185L249.04092,284.79953C244.14969,285.16757,239.98337,285.47116,239.79343,285.73544C239.60641,285.9094,239.70358,288.2617,240.15182,290.89743C240.50992,293.53,240.75253,299.4105,240.58578,304.10214C240.30673,311.9514,240.09421,312.84726,236.91806,318.33517C233.6484,323.91013,233.53574,324.53867,234.19382,328.89816C235.28091,336.43478,236.21567,338.0941,242.48715,344.6406C249.88986,352.40195,256.20584,355.15585,267.21304,355.5472C283.36618,356.0311,287.66452,354.55783,299.88132,343.79025C308.18063,336.49692,312.18173,330.67685,316.4526,319.8077C319.53818,311.78696,319.86972,310.08237,319.50168,305.191C319.10104,298.67258,314.78183,290.5693,308.7618,284.57382C303.6118,279.51254,292.66464,272.348,287.3961,270.62497C284.9858,269.8165,280.6096,268.39633,277.84164,267.48483C274.98337,266.57028,272.3248,265.12057,271.90573,264.20236C271.3159,263.00705,270.93893,263.44528,270.3884,266.2263 Z"/> </g> <g style="fill:rgb(255,202,158); fill-opacity:1.0; stroke-linejoin: miter"> <path d="M513.3277,280.82492C497.20428,284.58798,481.89984,290.72897,452.84088,305.14352C439.32135,311.88974,435.15863,314.63254,423.13507,325.0455C418.19598,329.2966,408.87872,337.2762,402.2708,342.73264C395.753,348.1921,388.02094,354.78293,385.13104,357.30002L379.90854,361.9023L388.95,361.6815C393.92194,361.58737,402.60895,361.17343,408.31207,360.83408C420.4406,360.18137,428.45123,361.00803,436.83917,363.92612C442.90692,366.0388,453.63788,371.65988,459.01312,375.46445L461.74603,377.36838L464.89386,375.22177C466.64972,374.10983,472.201,370.4227,477.28522,367.17062C482.36932,363.91867,488.66486,359.62546,491.17145,357.72726C495.35016,354.53317,499.10065,353.22128,498.8592,354.92905C498.8271,355.83127,490.85956,361.4199,479.03204,368.85873C473.9477,372.1108,469.13434,375.37253,468.38043,376.2491C467.6297,377.03537,466.05743,378.0637,464.8686,378.473L462.76447,379.21115L466.88385,387.8493C469.1563,392.5374,471.23553,397.57977,471.54523,399.0362C472.2514,402.04242,473.6468,403.4472,478.97028,406.16583C485.98248,409.6673,495.47003,417.2315,497.95172,421.11383L500.4367,424.90607L498.51666,428.0899C496.10724,432.34027,488.6905,437.67755,484.51154,438.3421C482.69415,438.63885,480.08405,438.36542,478.65973,437.77277C476.16547,436.7807,474.53192,436.9936,460.24506,439.91852C457.242,440.5345,450.4886,442.46246,445.19147,444.08087L435.59625,447.17255L402.19757,446.43695C371.96005,445.72333,367.4554,445.38263,354.1633,443.19366C336.1119,440.2032,332.68344,440.08124,323.94492,441.93866C314.83932,443.96368,310.79257,445.98798,306.01474,450.78656C300.67636,456.10736,300.06772,457.98297,300.7037,465.50348C301.87875,478.19244,302.1429,478.3825,329.07187,483.2243C341.18784,485.46185,357.973,488.49762,366.3187,490.05902C374.75497,491.62372,386.06537,493.6518,391.45624,494.47577C402.41205,496.31073,421.24982,500.05182,430.92645,502.2929C436.92657,503.77094,438.1961,503.6353,462.1369,501.05365C483.81244,498.6624,493.6916,497.74896,514.0783,496.0346C519.1534,495.58258,519.9045,497.32574,514.91656,497.87115C513.01227,498.07452,496.9594,499.85248,479.2729,501.84344C441.5412,506.1031,436.39203,506.10065,416.9323,502.06647C399.44794,498.37335,397.11493,497.92914,364.88864,492.1762C350.34616,489.58148,332.75546,486.33636,325.84995,484.91656C309.0809,481.42963,307.09274,481.44928,301.00986,484.84662C295.39072,487.899,294.0571,489.83893,293.00766,496.4865C291.39816,506.18573,298.01083,510.75702,322.71994,517.0556C342.23788,521.9953,351.96957,525.2321,360.84103,529.7933C364.47946,531.639,371.22714,534.9504,375.7612,537.0086C386.33734,541.90155,410.79633,555.2375,418.38544,560.2951C427.2121,566.11957,429.35492,566.82794,438.19684,567.1423C446.04633,567.4213,446.7746,567.2668,470.71454,559.62604C497.3963,551.0892,499.22003,550.6119,499.17523,551.87506C499.12384,553.31866,493.9975,555.2142,468.05682,563.2354C459.7437,565.8306,452.8001,568.0229,452.61334,568.19684C452.42657,568.37103,451.9981,570.25287,451.7343,572.5921C451.3836,574.8381,450.86823,576.6265,450.59772,576.6169C449.60516,576.5816,439.7989,570.36115,439.82135,569.72955C439.83734,569.2785,437.14032,568.91156,433.80206,568.7929C427.93756,568.5844,419.80743,566.0369,418.52155,564.09406C418.17657,563.6302,416.14325,562.3836,413.91962,561.4012C411.6961,560.41876,407.9677,558.56976,405.48004,557.3973C403.08563,556.13776,394.55255,552.2209,386.54803,548.68427C373.12314,542.606,371.33798,542.00055,361.9835,540.8549C351.1019,539.47455,344.7734,539.6109,337.1179,541.5068C331.37607,542.92865,325.52194,547.5085,323.92123,551.87823C322.926,554.46246,322.97763,555.5484,324.56686,559.128C325.65634,561.51556,327.81564,564.3024,329.66867,565.5428C333.5455,568.30023,353.035,576.5815,366.86874,581.31903C372.31137,583.2288,378.55002,585.61884,380.68002,586.6882C382.81345,587.6674,387.35382,589.54535,390.7437,590.7497C398.14886,593.36176,412.06696,600.81256,425.05402,609.0433C443.78326,620.9108,456.14764,623.7895,467.43414,618.8609C473.94586,616.11127,474.31964,615.76324,507.19342,580.4357C533.8625,551.9338,549.39105,536.94794,563.0324,526.773C572.7784,519.44086,575.0336,516.99164,576.367,512.52216C577.9062,507.33734,580.8869,469.23065,583.21246,424.14484C584.3946,401.0606,586.1464,374.65402,587.10504,365.47372C588.78436,348.73068,588.78754,348.64047,586.78815,338.81296C583.93744,324.98044,583.61163,323.9752,577.76434,310.57822L572.50055,298.55673L565.06915,294.13705C550.8288,285.5908,534.6877,279.68723,524.66986,279.42148C522.2338,279.3348,517.0621,279.96408,513.3277,280.82492 Z"/> </g> <g style="fill:rgb(0,0,0); fill-opacity:1.0; stroke-linejoin: miter"> <path d="M330.6783,298.2711C329.67648,298.50656,327.12778,299.0483,325.03647,299.42563L321.21188,300.2833L321.535,306.4377C321.80026,311.68674,321.36862,313.65878,318.66635,321.06076C314.87558,331.13412,310.20456,338.01425,302.73972,344.70493C288.65732,357.1224,286.55014,357.9509,269.85568,357.44772C252.5328,356.83188,249.2363,355.54037,240.09647,345.8204C236.70279,342.1766,233.67972,338.275,233.45065,337.0925C233.0574,335.45236,232.35489,334.88535,230.3699,334.8148C227.93387,334.72824,213.13449,336.82187,212.39023,337.42783C212.2034,337.60178,213.81497,340.5499,215.95193,343.96835C220.0516,350.61838,223.55887,358.69272,224.8873,364.52158C225.6741,367.8016,224.94626,370.4858,222.0665,375.2617C221.87643,375.52585,226.5162,374.6069,232.44168,373.10117C245.47513,369.86057,255.36703,368.58615,272.64462,367.93564C283.77084,367.51816,292.10995,366.73068,318.9603,363.61996C320.77438,363.41342,334.33994,362.99228,349.07834,362.61288L375.93222,361.94138L382.18564,356.29196C385.63934,353.16257,389.6441,349.7817,391.21637,348.75363C392.69843,347.72226,396.98016,344.17062,400.71088,340.87045L407.42828,334.87582L404.15375,330.42343C402.34247,328.01022,399.13263,324.28256,397.04095,322.13046C390.58575,315.6677,374.39206,303.61923,370.19662,302.20554C364.39304,300.28268,335.8564,297.4614,330.6783,298.2711 Z"/> </g> <g style="fill:rgb(43,66,66); fill-opacity:1.0; stroke-linejoin: miter"> <path d="M411.029,363.18918C410.74872,363.45016,392.65912,364.07187,370.78024,364.5587C327.65402,365.55515,318.42258,366.04,302.4503,368.0919C296.73093,368.8823,286.76462,369.70236,280.24936,370.0128C250.2958,371.4774,237.48135,373.64145,207.4515,382.3303C193.66751,386.35724,184.67491,390.2834,167.54387,399.52106C161.28038,402.91205,155.02019,406.21246,153.64433,406.79596C148.2249,409.31342,140.04558,420.85675,132.72069,436.31512C123.64049,455.41473,121.6151,464.1054,121.58916,482.62372C121.55553,493.73383,121.9525,497.81317,124.28075,508.55573C125.83818,515.5671,127.728195,525.9327,128.60881,531.6552C130.51512,544.0992,138.69646,583.32526,140.56944,589.08307C141.87517,593.0141,154.48802,619.3891,159.73877,629.24194C166.00787,640.9375,172.23724,646.1277,183.0741,648.77124C186.74438,649.7147,192.17737,651.8954,195.36127,653.8153C203.23395,658.5217,206.83008,659.01086,215.86475,656.4413C222.89209,654.43274,230.70544,650.64526,276.08652,626.8737C299.09787,614.86395,313.78683,608.2496,343.37473,596.74457C359.58798,590.45514,367.63022,587.8504,371.16183,587.61444L376.1434,587.2497L365.9669,583.81635C353.11594,579.3848,333.98105,571.2968,329.0311,568.23004C324.08444,565.0732,320.94833,559.2703,321.15036,553.58624C321.27866,549.97736,321.76816,548.9107,325.04794,545.59454C327.10983,543.4997,330.99545,540.9278,333.65353,539.84784C338.1451,538.0201,339.50485,537.8879,354.66232,538.4267C369.00778,538.9367,371.52438,539.29706,376.24533,541.18146C379.18417,542.3698,381.68466,543.18146,381.8685,543.0976C382.14865,542.8366,367.49924,535.6309,355.7662,530.2453C348.12253,526.7215,335.61313,522.8438,316.99106,518.11664C304.00827,514.8547,295.57162,510.76068,292.30356,506.1275C290.49557,503.6242,290.09897,502.07428,290.32382,498.28815C290.77695,490.62567,292.71616,486.90045,297.61337,483.82233C300.01376,482.372,302.50107,481.01508,303.14218,480.76678C303.96384,480.52496,303.54807,479.51654,301.81088,477.55768C299.72897,475.13495,299.1616,473.30792,298.4774,467.1407C297.37057,457.61603,298.28525,454.75775,304.181,449.00507C309.89316,443.33624,317.046,440.33844,328.03342,438.74164C335.57016,437.65448,336.83005,437.7896,352.01364,440.13605C373.75143,443.61896,388.35138,444.58966,414.10016,444.5114L435.78583,444.37885L445.37787,441.3775C456.0655,438.05353,458.16302,437.49567,468.7962,435.70563C475.61407,434.50275,476.34552,434.25763,475.86517,432.52423C475.5395,431.51886,473.76593,422.96417,471.84088,413.59088C468.83197,399.12042,467.6231,395.01227,464.00323,387.56635C459.70966,378.7413,459.70966,378.7413,452.45905,374.3281C441.58942,367.52768,432.3056,364.3972,420.95343,363.54196C415.73016,363.0853,411.30914,362.92807,411.029,363.18918 Z"/> </g> <g style="fill:rgb(0,0,0); fill-opacity:1.0; stroke-linejoin: miter"> <path d="M170.76591,359.70663L168.27855,361.0637L175.1757,370.34262C178.96916,375.4459,183.19444,381.10666,184.5706,383.0527L187.07164,386.39374L190.72868,385.16876C192.74234,384.4273,194.4017,383.49252,194.4177,383.04147C194.43051,382.6805,191.14,378.67905,187.14696,374.11057C183.24083,369.6356,178.37431,364.223,176.55351,362.08054C173.16624,358.2562,173.16624,358.2562,170.76591,359.70663 Z"/> </g> <g style="fill:rgb(0,0,0); fill-opacity:1.0; stroke-linejoin: miter"> <path d="M125.874374,382.41147C118.75035,384.59735,104.34001,401.15863,100.346176,411.85712C99.74394,413.5522,98.87096,415.2375,98.41026,415.49225C97.94951,415.7469,96.18114,419.74908,94.48376,424.29596L91.38213,432.76776L91.889885,443.89716C92.41686,454.4854,93.66155,460.13055,98.194016,472.3968C98.77428,473.86285,99.6577,476.96576,100.29924,479.247C101.33104,483.25848,104.90318,494.58734,110.76732,512.5922C112.39543,517.6187,114.75206,525.0197,116.05449,529.04083C122.28966,549.3173,132.87279,576.88495,133.99394,575.8409C134.18077,575.6668,132.83263,567.8499,130.91069,558.3864C128.98863,548.92316,126.80199,536.7403,126.00194,531.29144C125.11174,525.83966,123.60228,517.4749,122.59935,512.6514C118.25255,492.62286,117.45366,474.43658,120.313095,462.61383C124.23503,446.31183,138.25993,417.722,146.41734,409.33942L150.91795,404.7116L142.61943,396.7381C128.12029,382.7623,127.15349,382.00534,125.874374,382.41147 Z"/> </g> <g style="fill:rgb(0,0,0); fill-opacity:1.0; stroke-linejoin: miter"> <path d="M384.6944,544.9145C385.93207,545.6812,387.3565,546.27386,387.80743,546.29C388.3487,546.30914,387.7364,545.7453,386.49896,544.9786C385.26154,544.212,383.92734,543.6226,383.3862,543.60333C382.93503,543.5872,383.45724,544.14777,384.6944,544.9145 Z"/> </g> <g style="fill:rgb(0,0,0); fill-opacity:1.0; stroke-linejoin: miter"> <path d="M445.64728,571.0208C448.9958,573.39825,449.62726,573.4207,449.70734,571.1651C449.75873,569.7215,449.14008,569.3382,446.43317,569.242L443.00482,569.12006L445.64728,571.0208 Z"/> </g> <g style="fill:rgb(0,0,0); fill-opacity:1.0; stroke-linejoin: miter"> <path d="M197.90266,315.40472C198.25627,315.4069,199.39757,316.5576,201.306,318.87595C202.69174,320.55124,206.20773,323.2961,209.2208,324.93906C212.97897,327.16565,214.42276,327.8012,217.01407,327.8012C217.77794,327.8012,218.64153,327.746,219.69351,327.66C222.59348,327.4017,226.32144,326.72116,228.23856,326.15695L231.525,325.1899L232.04764,328.28C232.59718,331.9556,232.04158,332.95102,229.04044,332.95102C228.853,332.95102,228.65602,332.94714,228.44919,332.9398C228.371,332.937,228.28545,332.93564,228.1929,332.93564C226.36331,332.93564,221.80763,333.46994,217.655,334.1821L209.65756,335.5239L206.06058,329.9758C204.00107,326.92136,201.09714,322.21115,199.56937,319.44662C198.06754,316.7625,197.52008,315.40707,197.90068,315.40472 Z M271.36176,263.5775C271.52856,263.5775,271.7048,263.79517,271.90573,264.20236C272.3248,265.12057,274.98337,266.57028,277.84164,267.48483C280.6096,268.39633,284.9858,269.8165,287.3961,270.62497C292.66464,272.348,303.6118,279.51254,308.7618,284.57382C314.78183,290.5693,319.10104,298.67258,319.50168,305.191C319.86972,310.08237,319.53818,311.78696,316.4526,319.8077C312.18173,330.67685,308.18063,336.49692,299.88132,343.79025C288.92932,353.44308,284.34106,355.62643,271.87076,355.62643C270.43063,355.62643,268.88538,355.59732,267.21304,355.5472C256.20584,355.15585,249.88986,352.40195,242.48715,344.6406C236.21567,338.0941,235.28091,336.43478,234.19382,328.89816C233.53574,324.53867,233.6484,323.91013,236.91806,318.33517C240.09421,312.84726,240.30673,311.9514,240.58578,304.10214C240.75253,299.4105,240.50992,293.53,240.15182,290.89743C239.70358,288.2617,239.60641,285.9094,239.79343,285.73544C239.98337,285.47116,244.14969,285.16757,249.04092,284.79953L257.9117,284.30185L262.86032,279.78024C267.71872,275.25534,268.97177,273.04147,270.3884,266.2263C270.75137,264.3927,271.0389,263.5775,271.36176,263.5775 Z M172.78482,358.8117C173.65828,358.8117,174.45723,359.71378,176.55351,362.08054C178.37431,364.223,183.24083,369.6356,187.14696,374.11057C191.14,378.67905,194.43051,382.6805,194.4177,383.04147C194.4017,383.49252,192.74234,384.4273,190.72868,385.16876L187.07164,386.39374L184.5706,383.0527C183.19444,381.10666,178.96916,375.4459,175.1757,370.34262L168.27855,361.0637L170.76591,359.70663C171.68076,359.15384,172.24692,358.8117,172.78482,358.8117 Z M473.37967,406.50977C473.95456,406.50977,475.24677,407.0929,477.80743,408.38287C480.5562,409.8355,484.62323,412.32892,486.7276,414.12018C488.83527,415.8211,490.86224,417.24835,491.31342,417.26434C491.76447,417.28033,493.32428,419.14252,494.77777,421.4527L497.51764,425.70563L495.06268,428.68988C492.1374,432.19916,488.61908,434.6037,484.60126,435.81586C483.7615,436.063,483.03525,436.21454,482.39233,436.21454C479.2609,436.21454,478.10632,432.6191,475.44415,418.95868C474.37665,413.4101,473.2962,408.22247,473.05463,407.40082C472.9223,406.82303,472.9583,406.50977,473.37967,406.50977 Z M168.26738,156.58313C173.36542,156.58313,179.95604,157.37512,187.118,158.92648C192.76674,160.12117,200.48744,161.47957,204.26717,161.88496C208.76546,162.40633,212.34242,163.43684,214.55305,164.7801C218.88417,167.46358,227.16064,178.59822,239.2923,198.18074C244.67487,206.86397,253.73175,221.45918,259.45917,230.60602C271.42645,249.73126,271.82953,251.10077,268.68015,263.4553C266.47122,272.22983,265.4114,274.08932,260.64963,278.43674C256.88947,281.7789,253.35892,282.93063,246.06235,282.93063C245.39395,282.93063,244.69394,282.92096,243.95926,282.90244C239.35782,282.73886,238.82608,282.44882,236.93747,279.67172C233.4985,274.76157,226.67844,263.31723,219.04268,249.40472C209.19264,231.7099,204.16438,223.22029,199.94246,217.46931C198.05061,214.7823,194.86934,210.24251,192.9872,207.28499C189.1324,201.36641,165.5768,175.3249,163.95277,175.26729C163.93825,175.26677,163.92378,175.26651,163.9094,175.26651C163.38695,175.26651,162.94724,175.60252,162.93471,175.95357C162.91872,176.40486,168.3008,182.5583,174.91084,189.74934C181.52394,196.84993,189.06227,205.88057,191.63423,209.76631C194.20625,213.65181,198.75069,220.49837,201.75136,225.03156C204.84224,229.56805,209.01942,236.58197,211.22408,240.63531C218.51167,254.17377,225.90573,267.26462,229.0643,272.43576C236.84482,284.81747,240.02396,297.03574,238.2084,307.4503C237.39713,312.48032,232.36557,321.8773,229.88461,323.05368C229.05338,323.56625,225.41568,324.24997,221.78415,324.75327C219.52277,325.0699,218.02962,325.2563,216.84941,325.2563C214.80766,325.2563,213.70244,324.69843,211.17636,323.29196C204.80222,319.63266,190.47679,303.3143,184.08849,292.42758C181.02013,287.2596,177.36827,280.7159,175.93388,277.86423C173.32298,272.53207,168.87834,265.41794,162.87071,256.5322C160.98195,253.7547,157.55264,248.57404,155.33188,244.97198C150.62625,237.5777,145.06686,231.32733,141.26102,229.11444C138.78299,227.76328,124.37972,226.09712,118.048134,226.09712C116.22835,226.09712,115.07533,226.23476,115.06387,226.55707C115.04465,227.0982,119.352875,227.88373,125.20456,228.45331C138.35147,229.64337,143.23349,232.07526,148.89963,240.40704C165.81078,265.30893,173.77165,277.6971,173.71391,279.32114C173.69786,279.77243,175.81877,283.6417,178.37798,287.8884C181.02739,292.1379,185.11424,299.1489,187.48973,303.4791C196.99814,320.61996,203.05753,330.59164,208.06601,337.09335C213.1614,343.68845,215.80118,348.20883,219.405,356.10593C223.34073,364.82785,223.52151,367.36374,220.99619,372.33286L218.7703,376.4996L208.4595,379.38522L198.05551,382.35776L190.23051,373.76852C179.7144,362.10263,177.02666,358.93552,171.35417,350.78415C168.68877,346.9857,165.06621,342.1594,163.33226,340.1102C161.68858,338.06442,159.10374,334.53976,157.65025,332.22958C156.19658,329.91953,152.14207,324.53598,148.68388,320.16708C145.13554,315.795,139.60179,308.8231,136.3209,304.55087C129.67204,295.91318,126.407455,293.71945,117.09483,291.40085C109.48363,289.50424,106.01317,288.02585,101.08568,284.3276C97.74464,281.9245,95.25591,280.62137,94.050545,280.62137C93.53985,280.62137,93.25953,280.8553,93.24236,281.3386C93.239555,283.95822,111.14702,293.53818,116.37999,293.7241C117.28221,293.7562,120.23064,294.67404,122.98912,295.8564C127.529526,297.73422,128.75096,298.95187,136.2636,308.70444C140.83702,314.73886,145.59715,320.59933,146.72514,321.90427C147.94334,323.21213,151.22105,327.57455,154.0573,331.65012C156.89354,335.7258,160.93834,341.38022,163.18791,344.17014C165.43755,346.96054,168.28014,350.85556,169.56944,352.70822L171.8867,356.13303L169.57658,357.58664C168.66576,358.1482,167.80363,358.4381,167.19621,358.4381C166.87975,358.4381,166.63243,358.3594,166.48338,358.19943C166.13853,357.73544,164.3272,355.32224,162.42888,352.81564C159.23827,348.54684,156.66624,344.66122,143.63866,324.86594C140.55418,320.14914,136.2484,314.21445,134.08586,311.5178C126.45732,302.48398,113.89903,294.90085,97.47124,289.43857C87.0274,285.9055,77.1986,280.31662,71.43957,274.6013C62.19671,265.23898,60.533806,263.73447,59.631584,263.70236C59.60642,263.70148,59.581745,263.70102,59.557564,263.70102L59.556965,263.70102C57.76147,263.7013,58.68024,266.1392,61.446404,268.55478C62.935356,269.87228,65.99688,272.6915,68.178764,274.84665C76.64489,283.1876,84.0761,287.60727,97.28795,292.05185C108.44713,295.79086,112.97801,297.93967,120.91521,303.37082C130.08995,309.56894,132.51353,312.546,151.53911,341.49777C153.1668,343.99472,159.27745,352.52292,164.95964,360.40366C180.89067,382.37997,184.50365,387.47687,184.13316,387.73468C184.03648,387.91193,177.13194,391.55096,168.93852,395.867C158.83417,401.11633,155.3828,402.77,153.65338,402.77C153.09865,402.77,152.72108,402.59985,152.35796,402.32367C151.38792,401.65692,142.03874,392.7425,131.5584,382.6135C120.98784,372.4813,110.50102,362.5328,108.038925,360.63852C105.67021,358.65732,100.41728,353.95358,96.48552,350.20053C92.463554,346.44382,88.41912,343.31906,87.42669,343.28378C86.4342,343.2485,85.635,342.85873,85.65429,342.31735C85.67028,341.8663,84.78094,341.47324,83.698296,341.43478C83.67122,341.4359,83.64311,341.43646,83.61399,341.43646C82.37847,341.43646,79.335045,340.4417,76.7282,339.29C74.06005,338.11105,70.76348,336.81943,69.51641,336.32346C68.266106,335.91757,65.60107,334.64853,63.741753,333.5887C60.55468,331.75912,58.77581,330.9731,48.715324,326.82126C46.75604,326.0289,44.445553,324.9531,43.649593,324.473C42.57638,323.88785,41.38412,323.5722,40.52319,323.5722C39.82011,323.5722,39.337997,323.7827,39.32214,324.22885C39.290035,325.13107,43.008785,327.25082,49.063774,329.72446C52.624565,331.20602,64.44787,336.59494,72.887566,340.59885C74.48589,341.3784,76.36138,341.98703,77.08312,342.01266C80.06048,342.1185,78.53033,344.50327,73.82958,347.1367C70.140434,349.264,66.58001,350.3116,61.405205,351.03098C57.409782,351.61166,51.780632,352.40524,48.96453,352.84714C47.343002,353.12524,46.037937,353.27734,44.70705,353.27734C42.457077,353.27734,40.133293,352.84265,36.081844,351.84714C32.54238,350.96155,29.374556,350.40872,28.236435,350.40872C28.021326,350.40872,27.878723,350.42847,27.81982,350.46945C26.88226,351.42978,27.504269,351.723,35.63757,354.18015C39.962173,355.5312,41.91463,356.10797,44.132473,356.10797C45.76349,356.10797,47.538036,355.79602,50.50512,355.2507C54.413567,354.57663,60.31658,353.70248,63.58703,353.18637C66.8543,352.76047,71.333,351.29355,73.639885,349.93015C79.367256,346.6916,82.92376,345.23544,85.245255,345.23544C85.72633,345.23544,86.15437,345.29797,86.53771,345.42014C87.70098,345.73264,91.21368,348.5676,94.35589,351.6605C97.49486,354.84348,103.008896,359.82736,106.60545,362.84604C113.27312,368.4128,124.37865,378.74484,124.79448,379.75327C124.874985,380.0272,123.673325,380.79745,122.023605,381.46152C115.88243,383.95334,106.73949,394.64948,99.59154,407.67487C92.24389,421.23517,89.73168,428.37286,89.63946,436.04816L89.59545,442.3703L85.02697,446.36334C77.764946,452.69672,75.7118,453.33075,63.013012,453.33075C62.83285,453.33075,62.650547,453.33063,62.466057,453.33038L62.438923,453.33038C42.221878,453.33038,32.69035,449.64682,21.737669,437.69952C16.519896,432.00348,14.292784,428.58173,10.424804,420.49457C4.294006,407.4488,3.4362788,403.6242,2.257263,385.9666C0.7810668,363.96225,1.4426268,350.43503,4.3734126,341.68613C6.2058706,335.8795,6.9108877,331.29733,7.946105,317.4222C9.360717,297.9597,10.600524,293.57736,18.044798,279.8397C23.263304,270.26877,23.92047,269.56955,30.177547,266.3591L34.96539,263.81918L35.833,249.57684C36.52703,237.67694,36.903557,234.70917,38.543205,231.78644C41.15569,226.91058,48.5302,220.217,53.382618,218.40181C55.58324,217.48653,57.606613,216.47444,57.893356,216.03291C58.18004,215.5915,59.065414,211.0157,59.70256,205.79878C60.65526,199.32845,61.595566,195.74825,62.732773,194.25288C65.567795,190.74043,75.78459,185.41231,85.55393,182.5074C90.486855,180.96638,97.88798,178.60994,101.915504,177.12703C105.94309,175.64412,117.26865,172.16219,127.031525,169.4377C136.79446,166.71333,147.7623,163.12837,151.25497,161.44576C154.83469,159.85666,159.14566,158.02267,160.88228,157.45187C162.66858,156.87033,165.19734,156.58313,168.26738,156.58313 Z M383.36972,543.603C383.37506,543.603,383.38055,543.60315,383.3862,543.60333C383.92734,543.6226,385.26154,544.212,386.49896,544.9786C387.71594,545.7326,388.32828,546.29047,387.8333,546.29047C387.825,546.29047,387.81638,546.2903,387.80743,546.29C387.3565,546.27386,385.93207,545.6812,384.6944,544.9145C383.47647,544.15967,382.95145,543.6047,383.36588,543.603 Z M443.00482,569.12006L446.43317,569.242C449.14008,569.3382,449.75873,569.7215,449.70734,571.1651C449.66803,572.2726,449.49576,572.83093,448.93423,572.83093C448.3521,572.83093,447.35165,572.23096,445.64728,571.0208L443.00482,569.12006 Z M126.3072,382.3357C127.53424,382.3357,129.7279,384.3119,142.61943,396.7381L150.91795,404.7116L146.41734,409.33942C138.25993,417.722,124.23503,446.31183,120.313095,462.61383C117.45366,474.43658,118.25255,492.62286,122.59935,512.6514C123.60228,517.4749,125.11174,525.83966,126.00194,531.29144C126.80199,536.7403,128.98863,548.92316,130.91069,558.3864C132.83263,567.8499,134.18077,575.6668,133.99394,575.8409C133.97325,575.86017,133.94933,575.8697,133.92227,575.8697C132.48355,575.8697,122.17456,548.94305,116.05449,529.04083C114.75206,525.0197,112.39543,517.6187,110.76732,512.5922C104.90318,494.58734,101.33104,483.25848,100.29924,479.247C99.6577,476.96576,98.77428,473.86285,98.194016,472.3968C93.66155,460.13055,92.41686,454.4854,91.889885,443.89716L91.38213,432.76776L94.48376,424.29596C96.18114,419.74908,97.94951,415.7469,98.41026,415.49225C98.87096,415.2375,99.74394,413.5522,100.346176,411.85712C104.34001,401.15863,118.75035,384.59735,125.874374,382.41147C126.0162,382.36642,126.15418,382.3357,126.3072,382.3357 Z M524.1877,279.4135C524.3582,279.4135,524.5193,279.4161,524.66986,279.42148C534.6877,279.68723,550.8288,285.5908,565.06915,294.13705L572.50055,298.55673L577.76434,310.57822C583.61163,323.9752,583.93744,324.98044,586.78815,338.81296C588.78754,348.64047,588.78436,348.73068,587.10504,365.47372C586.1464,374.65402,584.3946,401.0606,583.21246,424.14484C580.8869,469.23065,577.9062,507.33734,576.367,512.52216C575.0336,516.99164,572.7784,519.44086,563.0324,526.773C549.39105,536.94794,533.8625,551.9338,507.19342,580.4357C474.31964,615.76324,473.94586,616.11127,467.43414,618.8609C463.9529,620.3811,460.36914,621.1585,456.52768,621.1585C447.91473,621.1585,438.00638,617.25037,425.05402,609.0433C412.06696,600.81256,398.14886,593.36176,390.7437,590.7497C387.35382,589.54535,382.81345,587.6674,380.68002,586.6882C378.55002,585.61884,372.31137,583.2288,366.86874,581.31903C353.035,576.5815,333.5455,568.30023,329.66867,565.5428C327.81564,564.3024,325.65634,561.51556,324.56686,559.128C322.97763,555.5484,322.926,554.46246,323.92123,551.87823C325.52194,547.5085,331.37607,542.92865,337.1179,541.5068C341.40817,540.4443,345.28168,539.93445,349.77335,539.93445C353.29657,539.93445,357.2001,540.2481,361.9835,540.8549C371.33798,542.00055,373.12314,542.606,386.54803,548.68427C394.55255,552.2209,403.08563,556.13776,405.48004,557.3973C407.9677,558.56976,411.6961,560.41876,413.91962,561.4012C416.14325,562.3836,418.17657,563.6302,418.52155,564.09406C419.80743,566.0369,427.93756,568.5844,433.80206,568.7929C437.14032,568.91156,439.83734,569.2785,439.82135,569.72955C439.7989,570.36115,449.60516,576.5816,450.59772,576.6169C450.59845,576.6169,450.59918,576.61694,450.5999,576.61694C450.871,576.61694,451.38455,574.83203,451.7343,572.5921C451.9981,570.25287,452.42657,568.37103,452.61334,568.19684C452.8001,568.0229,459.7437,565.8306,468.05682,563.2354C493.9975,555.2142,499.12384,553.31866,499.17523,551.87506C499.18643,551.55963,499.08112,551.3527,498.50137,551.3527C496.75937,551.3527,490.7339,553.2208,470.71454,559.62604C450.28705,566.14575,446.7597,567.21484,441.28778,567.21484C440.3469,567.21484,439.3485,567.1832,438.19684,567.1423C429.35492,566.82794,427.2121,566.11957,418.38544,560.2951C410.79633,555.2375,386.33734,541.90155,375.7612,537.0086C371.22714,534.9504,364.47946,531.639,360.84103,529.7933C351.96957,525.2321,342.23788,521.9953,322.71994,517.0556C298.01083,510.75702,291.39816,506.18573,293.00766,496.4865C294.0571,489.83893,295.39072,487.899,301.00986,484.84662C304.0402,483.15414,306.05432,482.29996,309.3859,482.29996C312.7419,482.29996,317.43478,483.16672,325.84995,484.91656C332.75546,486.33636,350.34616,489.58148,364.88864,492.1762C397.11493,497.92914,399.44794,498.37335,416.9323,502.06647C426.53275,504.05673,432.65012,505.0657,440.9152,505.0657C449.4031,505.0657,460.15613,504.0016,479.2729,501.84344C496.9594,499.85248,513.01227,498.07452,514.91656,497.87115C519.3408,497.3874,519.2499,495.96124,515.6311,495.96057L515.6259,495.96057C515.1662,495.96066,514.64966,495.9837,514.0783,496.0346C493.6916,497.74896,483.81244,498.6624,462.1369,501.05365C448.10306,502.567,441.85947,503.23984,437.88672,503.23984C435.0822,503.23984,433.40936,502.90454,430.92645,502.2929C421.24982,500.05182,402.41205,496.31073,391.45624,494.47577C386.06537,493.6518,374.75497,491.62372,366.3187,490.05902C357.973,488.49762,341.18784,485.46185,329.07187,483.2243C302.1429,478.3825,301.87875,478.19244,300.7037,465.50348C300.06772,457.98297,300.67636,456.10736,306.01474,450.78656C310.79257,445.98798,314.83932,443.96368,323.94492,441.93866C327.68536,441.14362,330.45294,440.7112,333.81082,440.7112C338.29773,440.7112,343.83868,441.48325,354.1633,443.19366C367.4554,445.38263,371.96005,445.72333,402.19757,446.43695L435.59625,447.17255L445.19147,444.08087C450.4886,442.46246,457.242,440.5345,460.24506,439.91852C469.68073,437.98676,473.5972,437.23798,475.88754,437.23798C477.0651,437.23798,477.81277,437.4359,478.65973,437.77277C479.68933,438.20117,481.33856,438.4628,482.86008,438.4628C483.44336,438.4628,484.0079,438.42435,484.51154,438.3421C488.6905,437.67755,496.10724,432.34027,498.51666,428.0899L500.4367,424.90607L497.95172,421.11383C495.47003,417.2315,485.98248,409.6673,478.97028,406.16583C473.6468,403.4472,472.2514,402.04242,471.54523,399.0362C471.23553,397.57977,469.1563,392.5374,466.88385,387.8493L462.76447,379.21115L464.8686,378.473C466.05743,378.0637,467.6297,377.03537,468.38043,376.2491C469.13434,375.37253,473.9477,372.1108,479.03204,368.85873C490.85956,361.4199,498.8271,355.83127,498.8592,354.92905C498.93155,354.41724,498.6454,354.17667,498.0966,354.17667C496.8142,354.17667,494.09784,355.49042,491.17145,357.72726C488.66486,359.62546,482.36932,363.91867,477.28522,367.17062C472.201,370.4227,466.64972,374.10983,464.89386,375.22177L461.74603,377.36838L459.01312,375.46445C453.63788,371.65988,442.90692,366.0388,436.83917,363.92612C430.22412,361.6248,423.84375,360.62424,415.4932,360.62424C413.25516,360.62424,410.87558,360.6961,408.31207,360.83408C402.60895,361.17343,393.92194,361.58737,388.95,361.6815L379.90854,361.9023L385.13104,357.30002C388.02094,354.78293,395.753,348.1921,402.2708,342.73264C408.87872,337.2762,418.19598,329.2966,423.13507,325.0455C435.15863,314.63254,439.32135,311.88974,452.84088,305.14352C481.89984,290.72897,497.20428,284.58798,513.3277,280.82492C516.83124,280.0173,521.59985,279.4135,524.1877,279.4135 Z M412.51782,363.06308C414.28912,363.06308,417.43976,363.23477,420.95343,363.54196C432.3056,364.3972,441.58942,367.52768,452.45905,374.3281C459.70966,378.7413,459.70966,378.7413,464.00323,387.56635C467.6231,395.01227,468.83197,399.12042,471.84088,413.59088C473.76593,422.96417,475.5395,431.51886,475.86517,432.52423C476.34552,434.25763,475.61407,434.50275,468.7962,435.70563C458.16302,437.49567,456.0655,438.05353,445.37787,441.3775L435.78583,444.37885L414.10016,444.5114C413.16354,444.51425,412.2417,444.51572,411.3337,444.51572C387.2798,444.51572,372.96072,443.49228,352.01364,440.13605C342.67288,438.69254,338.60162,438.08594,335.09677,438.08594C332.9044,438.08594,330.93365,438.32327,328.03342,438.74164C317.046,440.33844,309.89316,443.33624,304.181,449.00507C298.28525,454.75775,297.37057,457.61603,298.4774,467.1407C299.1616,473.30792,299.72897,475.13495,301.81088,477.55768C303.54807,479.51654,303.96384,480.52496,303.14218,480.76678C302.50107,481.01508,300.01376,482.372,297.61337,483.82233C292.71616,486.90045,290.77695,490.62567,290.32382,498.28815C290.09897,502.07428,290.49557,503.6242,292.30356,506.1275C295.57162,510.76068,304.00827,514.8547,316.99106,518.11664C335.61313,522.8438,348.12253,526.7215,355.7662,530.2453C367.49924,535.6309,382.14865,542.8366,381.8685,543.0976C381.85977,543.10156,381.84583,543.1035,381.82684,543.1035C381.44626,543.1035,379.04465,542.3134,376.24533,541.18146C371.52438,539.29706,369.00778,538.9367,354.66232,538.4267C349.7782,538.25305,346.32666,538.1491,343.74136,538.1491C338.30338,538.1491,336.6978,538.609,333.65353,539.84784C330.99545,540.9278,327.10983,543.4997,325.04794,545.59454C321.76816,548.9107,321.27866,549.97736,321.15036,553.58624C320.94833,559.2703,324.08444,565.0732,329.0311,568.23004C333.98105,571.2968,353.11594,579.3848,365.9669,583.81635L376.1434,587.2497L371.16183,587.61444C367.63022,587.8504,359.58798,590.45514,343.37473,596.74457C313.78683,608.2496,299.09787,614.86395,276.08652,626.8737C230.70544,650.64526,222.89209,654.43274,215.86475,656.4413C212.3315,657.44617,209.63002,657.9833,207.17924,657.9833C203.3633,657.9833,200.15512,656.68115,195.36127,653.8153C192.17737,651.8954,186.74438,649.7147,183.0741,648.77124C172.23724,646.1277,166.00787,640.9375,159.73877,629.24194C154.48802,619.3891,141.87517,593.0141,140.56944,589.08307C138.69646,583.32526,130.51512,544.0992,128.60881,531.6552C127.728195,525.9327,125.83818,515.5671,124.28075,508.55573C121.9525,497.81317,121.55553,493.73383,121.58916,482.62372C121.6151,464.1054,123.64049,455.41473,132.72069,436.31512C140.04558,420.85675,148.2249,409.31342,153.64433,406.79596C155.02019,406.21246,161.28038,402.91205,167.54387,399.52106C184.67491,390.2834,193.66751,386.35724,207.4515,382.3303C237.48135,373.64145,250.2958,371.4774,280.24936,370.0128C286.76462,369.70236,296.73093,368.8823,302.4503,368.0919C318.42258,366.04,327.65402,365.55515,370.78024,364.5587C392.65912,364.07187,410.74872,363.45016,411.029,363.18918C411.1207,363.10373,411.65598,363.06308,412.51782,363.06308 Z M169.38824,153.84769C163.39502,153.84769,158.67982,155.36766,151.35123,158.7391C147.76834,160.41853,137.52866,163.84871,128.49716,166.32808C119.46243,168.89766,106.31315,172.85677,99.27293,175.22615C92.232765,177.59578,83.54612,180.53914,79.889084,181.76399C72.12071,184.2884,62.899582,189.56148,60.61876,192.73262C59.75865,194.05696,58.612167,198.3525,57.907272,202.9344C56.22728,214.61873,56.320602,214.5317,51.73894,216.35616C46.60631,218.4322,38.761345,225.65118,36.326103,230.62347C34.680107,233.72675,34.31005,236.5141,33.899467,248.06268L33.411983,261.77658L28.53387,264.31332C22.18347,267.61057,21.429564,268.48715,16.124083,277.96457C8.30609,292.05038,6.7474356,297.77646,5.2393794,317.3259C4.2362056,330.29892,3.3961177,336.14096,1.7601316,341.50302C0.12091063,346.9553,-0.48095697,351.17978,-0.79528797,360.0217C-1.2699584,373.37473,0.058288567,396.99982,1.6835325,404.64594C3.002441,410.74542,8.682128,423.7751,13.381346,431.3499C17.310362,437.72284,25.683102,446.15082,31.087276,449.14325C40.571102,454.26837,44.154415,455.11847,58.593315,455.54144C61.066334,455.60214,63.2495,455.6382,65.19407,455.6382C76.166245,455.6382,79.542274,454.48996,84.531364,450.13983C86.6884,448.28632,88.02696,447.29874,88.82963,447.29874C89.830055,447.29874,89.997986,448.83292,89.88055,452.1369C89.784294,454.84344,90.98699,459.13214,98.39867,481.88947C99.94603,486.64203,102.05449,493.40192,103.10234,496.96234C104.153366,500.43256,106.34239,507.46625,108.06059,512.49603C109.68877,517.5224,112.203415,525.56146,113.75084,530.314C120.80156,553.05853,124.94066,563.6849,134.37529,582.9007C138.24644,590.89764,141.24437,598.0505,140.95128,598.6724C140.65489,599.38446,141.7476,601.6818,143.38487,603.908C145.11565,606.0474,149.09947,613.4161,152.38084,620.2176C162.39252,640.98975,169.36023,648.2837,181.99817,651.0818C185.40106,651.9254,190.83405,654.1061,194.46265,656.22253C199.9928,659.355,203.27472,660.7201,207.07587,660.7201C209.23973,660.7201,211.57184,660.2777,214.58276,659.46716C222.15143,657.4778,233.7248,652.10767,259.96448,638.2252C299.6461,617.23224,306.62473,614.04755,341.4388,600.37946C364.58786,591.19806,367.7758,589.9628,372.88943,589.9628C373.68616,589.9628,374.52957,589.9928,375.50253,590.0274C386.59686,590.512,399.4931,596.21014,424.77716,611.74347C438.15778,619.9932,447.9652,623.74274,456.87723,623.74274C459.56403,623.74274,462.16946,623.4019,464.7669,622.7409C467.22845,622.1058,470.992,620.4327,473.1214,618.9727C475.15778,617.5997,490.05804,602.50116,506.1148,585.3658C535.12604,554.50824,552.5297,537.6014,564.1219,529.1606C578.5914,518.56354,578.9777,517.85455,580.67255,498.13104C581.4157,489.9367,583.0965,462.98566,584.4327,438.10016C585.7659,413.30487,587.7619,382.5709,588.84564,369.8718C590.73663,347.17404,590.7558,346.63278,589.07904,337.90085C586.5667,324.71262,582.62726,313.55136,575.21686,298.38242C574.11774,296.2656,560.3155,288.09628,550.7061,283.96042C539.9666,279.26154,530.98517,276.91113,523.815,276.91113C522.4331,276.91113,521.11847,276.99844,519.8715,277.17307C504.6209,279.2507,485.85907,286.08176,458.002,299.72604C439.61407,308.7385,435.82526,311.13315,425.95355,319.45456C421.38837,323.3574,415.7083,328.124,413.47552,329.94174L409.29034,333.316L407.83368,331.09616C400.82025,320.00644,377.9039,301.39536,368.32382,298.97714C363.81375,297.82117,341.33966,296.53046,329.84537,296.53046C326.73782,296.53046,324.43283,296.6248,323.5023,296.84164C322.89792,296.98547,322.41815,297.08173,322.00092,297.08173C320.59406,297.08173,319.89804,295.98737,317.5339,291.93185C313.18588,284.64072,311.01047,282.30502,302.1097,276.0262C293.4763,269.84738,292.05515,269.16452,281.86606,266.09225C273.19455,263.52548,273.02377,263.24838,272.75458,253.03058C272.70245,249.41547,272.54718,246.15778,272.56,245.79694C272.4826,245.4328,271.87994,244.59833,271.18695,243.76068C269.9688,242.4527,255.60034,219.71883,242.19232,197.92268C233.4029,183.42744,223.16988,168.88057,219.67653,165.50423C215.39015,161.5577,213.43105,160.76558,201.93379,158.91122C196.54286,158.08725,188.1938,156.61618,183.53108,155.63742C177.60535,154.47345,173.23372,153.84769,169.38824,153.84769 Z"/> </g> </g> </svg>