<?xml version="1.0" encoding="UTF-8" standalone="no"?>
<!DOCTYPE svg PUBLIC "-//W3C//DTD SVG 1.1//EN"
 "http://www.w3.org/Graphics/SVG/1.1/DTD/svg11.dtd">
<!-- Generated by graphviz version 2.40.1 (20161225.0304)
 -->
<!-- Title: dependencies Pages: 1 -->
<svg width="504pt" height="211pt"
 viewBox="0.00 0.00 504.00 211.00" xmlns="http://www.w3.org/2000/svg" xmlns:xlink="http://www.w3.org/1999/xlink">
<g id="graph0" class="graph" transform="scale(1 1) rotate(0) translate(4 207)">
<title>dependencies</title>
<polygon fill="#ffffff" stroke="transparent" points="-4,4 -4,-207 500,-207 500,4 -4,4"/>
<text text-anchor="start" x="227.0091" y="-42.4" font-family="sans-serif" font-weight="bold" font-size="14.00" fill="#000000">Legend</text>
<polygon fill="#ffffb3" stroke="transparent" points="14,-10 14,-30 34,-30 34,-10 14,-10"/>
<text text-anchor="start" x="37.629" y="-15.4" font-family="sans-serif" font-size="14.00" fill="#000000"> &#160;Declarations</text>
<polygon fill="#8dd3c7" stroke="transparent" points="127,-10 127,-30 147,-30 147,-10 127,-10"/>
<text text-anchor="start" x="150.7251" y="-15.4" font-family="sans-serif" font-size="14.00" fill="#000000"> &#160;Module</text>
<polygon fill="#80b1d3" stroke="transparent" points="213,-10 213,-30 233,-30 233,-10 213,-10"/>
<text text-anchor="start" x="236.7812" y="-15.4" font-family="sans-serif" font-size="14.00" fill="#000000"> &#160;Bootstrap</text>
<polygon fill="#fdb462" stroke="transparent" points="310,-10 310,-30 330,-30 330,-10 310,-10"/>
<text text-anchor="start" x="333.6732" y="-15.4" font-family="sans-serif" font-size="14.00" fill="#000000"> &#160;Providers</text>
<polygon fill="#fb8072" stroke="transparent" points="406,-10 406,-30 426,-30 426,-10 406,-10"/>
<text text-anchor="start" x="429.7258" y="-15.4" font-family="sans-serif" font-size="14.00" fill="#000000"> &#160;Exports</text>
<g id="clust1" class="cluster">
<title>cluster_RegisterPageModule</title>
<polygon fill="none" stroke="#000000" stroke-dasharray="1,5" points="23.5,-70 23.5,-195 472.5,-195 472.5,-70 23.5,-70"/>
</g>
<g id="clust2" class="cluster">
<title>cluster_RegisterPageModule_declarations</title>
<polygon fill="none" stroke="#000000" points="358.5,-78 358.5,-130 464.5,-130 464.5,-78 358.5,-78"/>
</g>
<g id="clust4" class="cluster">
<title>cluster_RegisterPageModule_imports</title>
<polygon fill="none" stroke="#000000" points="31.5,-78 31.5,-130 350.5,-130 350.5,-78 31.5,-78"/>
</g>
<!-- RegisterPage -->
<g id="node1" class="node">
<title>RegisterPage</title>
<polygon fill="#ffffb3" stroke="#000000" points="456.3641,-122 366.6359,-122 366.6359,-86 456.3641,-86 456.3641,-122"/>
<text text-anchor="middle" x="411.5" y="-99.8" font-family="Times,serif" font-size="14.00" fill="#000000">RegisterPage</text>
</g>
<!-- RegisterPageModule -->
<g id="node2" class="node">
<title>RegisterPageModule</title>
<polygon fill="#8dd3c7" stroke="#000000" points="356.4144,-187 353.4144,-191 332.4144,-191 329.4144,-187 222.5856,-187 222.5856,-151 356.4144,-151 356.4144,-187"/>
<text text-anchor="middle" x="289.5" y="-164.8" font-family="Times,serif" font-size="14.00" fill="#000000">RegisterPageModule</text>
</g>
<!-- RegisterPage&#45;&gt;RegisterPageModule -->
<g id="edge1" class="edge">
<title>RegisterPage&#45;&gt;RegisterPageModule</title>
<path fill="none" stroke="#000000" d="M366.5116,-104C356.9109,-104 349.5961,-104 349.5961,-104 349.5961,-104 349.5961,-140.8939 349.5961,-140.8939"/>
<polygon fill="#000000" stroke="#000000" points="346.0962,-140.8938 349.5961,-150.8939 353.0962,-140.8939 346.0962,-140.8938"/>
</g>
<!-- MaterialModule -->
<g id="node3" class="node">
<title>MaterialModule</title>
<polygon fill="#8dd3c7" stroke="#000000" points="342.9706,-122 339.9706,-126 318.9706,-126 315.9706,-122 236.0294,-122 236.0294,-86 342.9706,-86 342.9706,-122"/>
<text text-anchor="middle" x="289.5" y="-99.8" font-family="Times,serif" font-size="14.00" fill="#000000">MaterialModule</text>
</g>
<!-- MaterialModule&#45;&gt;RegisterPageModule -->
<g id="edge2" class="edge">
<title>MaterialModule&#45;&gt;RegisterPageModule</title>
<path fill="none" stroke="#000000" d="M289.5,-122.1061C289.5,-122.1061 289.5,-140.991 289.5,-140.991"/>
<polygon fill="#000000" stroke="#000000" points="286.0001,-140.9909 289.5,-150.991 293.0001,-140.991 286.0001,-140.9909"/>
</g>
<!-- RegisterPageRoutingModule -->
<g id="node4" class="node">
<title>RegisterPageRoutingModule</title>
<polygon fill="#8dd3c7" stroke="#000000" points="217.5322,-122 214.5322,-126 193.5322,-126 190.5322,-122 39.4678,-122 39.4678,-86 217.5322,-86 217.5322,-122"/>
<text text-anchor="middle" x="128.5" y="-99.8" font-family="Times,serif" font-size="14.00" fill="#000000">RegisterPageRoutingModule</text>
</g>
<!-- RegisterPageRoutingModule&#45;&gt;RegisterPageModule -->
<g id="edge3" class="edge">
<title>RegisterPageRoutingModule&#45;&gt;RegisterPageModule</title>
<path fill="none" stroke="#000000" d="M217.8289,-104C224.9142,-104 229.4039,-104 229.4039,-104 229.4039,-104 229.4039,-140.8939 229.4039,-140.8939"/>
<polygon fill="#000000" stroke="#000000" points="225.904,-140.8938 229.4039,-150.8939 232.904,-140.8939 225.904,-140.8938"/>
</g>
</g>
</svg>
