<?xml version="1.0" encoding="UTF-8" standalone="no"?>
<!DOCTYPE svg PUBLIC "-//W3C//DTD SVG 1.1//EN"
 "http://www.w3.org/Graphics/SVG/1.1/DTD/svg11.dtd">
<!-- Generated by graphviz version 2.40.1 (20161225.0304)
 -->
<!-- Title: dependencies Pages: 1 -->
<svg width="504pt" height="211pt"
 viewBox="0.00 0.00 504.00 211.00" xmlns="http://www.w3.org/2000/svg" xmlns:xlink="http://www.w3.org/1999/xlink">
<g id="graph0" class="graph" transform="scale(1 1) rotate(0) translate(4 207)">
<title>dependencies</title>
<polygon fill="#ffffff" stroke="transparent" points="-4,4 -4,-207 500,-207 500,4 -4,4"/>
<text text-anchor="start" x="227.0091" y="-42.4" font-family="sans-serif" font-weight="bold" font-size="14.00" fill="#000000">Legend</text>
<polygon fill="#ffffb3" stroke="transparent" points="14,-10 14,-30 34,-30 34,-10 14,-10"/>
<text text-anchor="start" x="37.629" y="-15.4" font-family="sans-serif" font-size="14.00" fill="#000000"> &#160;Declarations</text>
<polygon fill="#8dd3c7" stroke="transparent" points="127,-10 127,-30 147,-30 147,-10 127,-10"/>
<text text-anchor="start" x="150.7251" y="-15.4" font-family="sans-serif" font-size="14.00" fill="#000000"> &#160;Module</text>
<polygon fill="#80b1d3" stroke="transparent" points="213,-10 213,-30 233,-30 233,-10 213,-10"/>
<text text-anchor="start" x="236.7812" y="-15.4" font-family="sans-serif" font-size="14.00" fill="#000000"> &#160;Bootstrap</text>
<polygon fill="#fdb462" stroke="transparent" points="310,-10 310,-30 330,-30 330,-10 310,-10"/>
<text text-anchor="start" x="333.6732" y="-15.4" font-family="sans-serif" font-size="14.00" fill="#000000"> &#160;Providers</text>
<polygon fill="#fb8072" stroke="transparent" points="406,-10 406,-30 426,-30 426,-10 406,-10"/>
<text text-anchor="start" x="429.7258" y="-15.4" font-family="sans-serif" font-size="14.00" fill="#000000"> &#160;Exports</text>
<g id="clust1" class="cluster">
<title>cluster_SavingsPageModule</title>
<polygon fill="none" stroke="#000000" stroke-dasharray="1,5" points="88,-70 88,-195 408,-195 408,-70 88,-70"/>
</g>
<g id="clust2" class="cluster">
<title>cluster_SavingsPageModule_declarations</title>
<polygon fill="none" stroke="#000000" points="296,-78 296,-130 400,-130 400,-78 296,-78"/>
</g>
<g id="clust4" class="cluster">
<title>cluster_SavingsPageModule_imports</title>
<polygon fill="none" stroke="#000000" points="96,-78 96,-130 288,-130 288,-78 96,-78"/>
</g>
<!-- SavingsPage -->
<g id="node1" class="node">
<title>SavingsPage</title>
<polygon fill="#ffffb3" stroke="#000000" points="391.5454,-122 304.4546,-122 304.4546,-86 391.5454,-86 391.5454,-122"/>
<text text-anchor="middle" x="348" y="-99.8" font-family="Times,serif" font-size="14.00" fill="#000000">SavingsPage</text>
</g>
<!-- SavingsPageModule -->
<g id="node2" class="node">
<title>SavingsPageModule</title>
<polygon fill="#8dd3c7" stroke="#000000" points="328.594,-187 325.594,-191 304.594,-191 301.594,-187 197.406,-187 197.406,-151 328.594,-151 328.594,-187"/>
<text text-anchor="middle" x="263" y="-164.8" font-family="Times,serif" font-size="14.00" fill="#000000">SavingsPageModule</text>
</g>
<!-- SavingsPage&#45;&gt;SavingsPageModule -->
<g id="edge1" class="edge">
<title>SavingsPage&#45;&gt;SavingsPageModule</title>
<path fill="none" stroke="#000000" d="M316.3875,-122.1061C316.3875,-122.1061 316.3875,-140.991 316.3875,-140.991"/>
<polygon fill="#000000" stroke="#000000" points="312.8875,-140.9909 316.3875,-150.991 319.8875,-140.991 312.8875,-140.9909"/>
</g>
<!-- SavingsPageRoutingModule -->
<g id="node3" class="node">
<title>SavingsPageRoutingModule</title>
<polygon fill="#8dd3c7" stroke="#000000" points="280.2119,-122 277.2119,-126 256.2119,-126 253.2119,-122 103.7881,-122 103.7881,-86 280.2119,-86 280.2119,-122"/>
<text text-anchor="middle" x="192" y="-99.8" font-family="Times,serif" font-size="14.00" fill="#000000">SavingsPageRoutingModule</text>
</g>
<!-- SavingsPageRoutingModule&#45;&gt;SavingsPageModule -->
<g id="edge2" class="edge">
<title>SavingsPageRoutingModule&#45;&gt;SavingsPageModule</title>
<path fill="none" stroke="#000000" d="M238.7795,-122.1061C238.7795,-122.1061 238.7795,-140.991 238.7795,-140.991"/>
<polygon fill="#000000" stroke="#000000" points="235.2795,-140.9909 238.7795,-150.991 242.2795,-140.991 235.2795,-140.9909"/>
</g>
</g>
</svg>
