<?xml version="1.0" encoding="UTF-8" standalone="no"?>
<!DOCTYPE svg PUBLIC "-//W3C//DTD SVG 1.1//EN"
 "http://www.w3.org/Graphics/SVG/1.1/DTD/svg11.dtd">
<!-- Generated by graphviz version 2.40.1 (20161225.0304)
 -->
<!-- Title: dependencies Pages: 1 -->
<svg width="504pt" height="211pt"
 viewBox="0.00 0.00 504.00 211.00" xmlns="http://www.w3.org/2000/svg" xmlns:xlink="http://www.w3.org/1999/xlink">
<g id="graph0" class="graph" transform="scale(1 1) rotate(0) translate(4 207)">
<title>dependencies</title>
<polygon fill="#ffffff" stroke="transparent" points="-4,4 -4,-207 500,-207 500,4 -4,4"/>
<text text-anchor="start" x="227.0091" y="-42.4" font-family="sans-serif" font-weight="bold" font-size="14.00" fill="#000000">Legend</text>
<polygon fill="#ffffb3" stroke="transparent" points="14,-10 14,-30 34,-30 34,-10 14,-10"/>
<text text-anchor="start" x="37.629" y="-15.4" font-family="sans-serif" font-size="14.00" fill="#000000"> &#160;Declarations</text>
<polygon fill="#8dd3c7" stroke="transparent" points="127,-10 127,-30 147,-30 147,-10 127,-10"/>
<text text-anchor="start" x="150.7251" y="-15.4" font-family="sans-serif" font-size="14.00" fill="#000000"> &#160;Module</text>
<polygon fill="#80b1d3" stroke="transparent" points="213,-10 213,-30 233,-30 233,-10 213,-10"/>
<text text-anchor="start" x="236.7812" y="-15.4" font-family="sans-serif" font-size="14.00" fill="#000000"> &#160;Bootstrap</text>
<polygon fill="#fdb462" stroke="transparent" points="310,-10 310,-30 330,-30 330,-10 310,-10"/>
<text text-anchor="start" x="333.6732" y="-15.4" font-family="sans-serif" font-size="14.00" fill="#000000"> &#160;Providers</text>
<polygon fill="#fb8072" stroke="transparent" points="406,-10 406,-30 426,-30 426,-10 406,-10"/>
<text text-anchor="start" x="429.7258" y="-15.4" font-family="sans-serif" font-size="14.00" fill="#000000"> &#160;Exports</text>
<g id="clust1" class="cluster">
<title>cluster_SMenuPageModule</title>
<polygon fill="none" stroke="#000000" stroke-dasharray="1,5" points="21,-70 21,-195 475,-195 475,-70 21,-70"/>
</g>
<g id="clust2" class="cluster">
<title>cluster_SMenuPageModule_declarations</title>
<polygon fill="none" stroke="#000000" points="367,-78 367,-130 467,-130 467,-78 367,-78"/>
</g>
<g id="clust4" class="cluster">
<title>cluster_SMenuPageModule_imports</title>
<polygon fill="none" stroke="#000000" points="29,-78 29,-130 359,-130 359,-78 29,-78"/>
</g>
<!-- SMenuPage -->
<g id="node1" class="node">
<title>SMenuPage</title>
<polygon fill="#ffffb3" stroke="#000000" points="458.6543,-122 375.3457,-122 375.3457,-86 458.6543,-86 458.6543,-122"/>
<text text-anchor="middle" x="417" y="-99.8" font-family="Times,serif" font-size="14.00" fill="#000000">SMenuPage</text>
</g>
<!-- SMenuPageModule -->
<g id="node2" class="node">
<title>SMenuPageModule</title>
<polygon fill="#8dd3c7" stroke="#000000" points="352.7036,-187 349.7036,-191 328.7036,-191 325.7036,-187 225.2964,-187 225.2964,-151 352.7036,-151 352.7036,-187"/>
<text text-anchor="middle" x="289" y="-164.8" font-family="Times,serif" font-size="14.00" fill="#000000">SMenuPageModule</text>
</g>
<!-- SMenuPage&#45;&gt;SMenuPageModule -->
<g id="edge1" class="edge">
<title>SMenuPage&#45;&gt;SMenuPageModule</title>
<path fill="none" stroke="#000000" d="M417,-122.1061C417,-141.3391 417,-169 417,-169 417,-169 362.625,-169 362.625,-169"/>
<polygon fill="#000000" stroke="#000000" points="362.625,-165.5001 352.625,-169 362.625,-172.5001 362.625,-165.5001"/>
</g>
<!-- MenuShareModule -->
<g id="node3" class="node">
<title>MenuShareModule</title>
<polygon fill="#8dd3c7" stroke="#000000" points="351.0814,-122 348.0814,-126 327.0814,-126 324.0814,-122 226.9186,-122 226.9186,-86 351.0814,-86 351.0814,-122"/>
<text text-anchor="middle" x="289" y="-99.8" font-family="Times,serif" font-size="14.00" fill="#000000">MenuShareModule</text>
</g>
<!-- MenuShareModule&#45;&gt;SMenuPageModule -->
<g id="edge2" class="edge">
<title>MenuShareModule&#45;&gt;SMenuPageModule</title>
<path fill="none" stroke="#000000" d="M289,-122.1061C289,-122.1061 289,-140.991 289,-140.991"/>
<polygon fill="#000000" stroke="#000000" points="285.5001,-140.9909 289,-150.991 292.5001,-140.991 285.5001,-140.9909"/>
</g>
<!-- SMenuPageRoutingModule -->
<g id="node4" class="node">
<title>SMenuPageRoutingModule</title>
<polygon fill="#8dd3c7" stroke="#000000" points="209.3215,-122 206.3215,-126 185.3215,-126 182.3215,-122 36.6785,-122 36.6785,-86 209.3215,-86 209.3215,-122"/>
<text text-anchor="middle" x="123" y="-99.8" font-family="Times,serif" font-size="14.00" fill="#000000">SMenuPageRoutingModule</text>
</g>
<!-- SMenuPageRoutingModule&#45;&gt;SMenuPageModule -->
<g id="edge3" class="edge">
<title>SMenuPageRoutingModule&#45;&gt;SMenuPageModule</title>
<path fill="none" stroke="#000000" d="M123,-122.1061C123,-141.3391 123,-169 123,-169 123,-169 215.2948,-169 215.2948,-169"/>
<polygon fill="#000000" stroke="#000000" points="215.2949,-172.5001 225.2948,-169 215.2948,-165.5001 215.2949,-172.5001"/>
</g>
</g>
</svg>
