<?xml version="1.0" encoding="UTF-8" standalone="no"?>
<!DOCTYPE svg PUBLIC "-//W3C//DTD SVG 1.1//EN"
 "http://www.w3.org/Graphics/SVG/1.1/DTD/svg11.dtd">
<!-- Generated by graphviz version 2.40.1 (20161225.0304)
 -->
<!-- Title: dependencies Pages: 1 -->
<svg width="504pt" height="211pt"
 viewBox="0.00 0.00 504.00 211.00" xmlns="http://www.w3.org/2000/svg" xmlns:xlink="http://www.w3.org/1999/xlink">
<g id="graph0" class="graph" transform="scale(1 1) rotate(0) translate(4 207)">
<title>dependencies</title>
<polygon fill="#ffffff" stroke="transparent" points="-4,4 -4,-207 500,-207 500,4 -4,4"/>
<text text-anchor="start" x="227.0091" y="-42.4" font-family="sans-serif" font-weight="bold" font-size="14.00" fill="#000000">Legend</text>
<polygon fill="#ffffb3" stroke="transparent" points="14,-10 14,-30 34,-30 34,-10 14,-10"/>
<text text-anchor="start" x="37.629" y="-15.4" font-family="sans-serif" font-size="14.00" fill="#000000"> &#160;Declarations</text>
<polygon fill="#8dd3c7" stroke="transparent" points="127,-10 127,-30 147,-30 147,-10 127,-10"/>
<text text-anchor="start" x="150.7251" y="-15.4" font-family="sans-serif" font-size="14.00" fill="#000000"> &#160;Module</text>
<polygon fill="#80b1d3" stroke="transparent" points="213,-10 213,-30 233,-30 233,-10 213,-10"/>
<text text-anchor="start" x="236.7812" y="-15.4" font-family="sans-serif" font-size="14.00" fill="#000000"> &#160;Bootstrap</text>
<polygon fill="#fdb462" stroke="transparent" points="310,-10 310,-30 330,-30 330,-10 310,-10"/>
<text text-anchor="start" x="333.6732" y="-15.4" font-family="sans-serif" font-size="14.00" fill="#000000"> &#160;Providers</text>
<polygon fill="#fb8072" stroke="transparent" points="406,-10 406,-30 426,-30 426,-10 406,-10"/>
<text text-anchor="start" x="429.7258" y="-15.4" font-family="sans-serif" font-size="14.00" fill="#000000"> &#160;Exports</text>
<g id="clust1" class="cluster">
<title>cluster_OcrPageModule</title>
<polygon fill="none" stroke="#000000" stroke-dasharray="1,5" points="112,-70 112,-195 384,-195 384,-70 112,-70"/>
</g>
<g id="clust2" class="cluster">
<title>cluster_OcrPageModule_declarations</title>
<polygon fill="none" stroke="#000000" points="296,-78 296,-130 376,-130 376,-78 296,-78"/>
</g>
<g id="clust4" class="cluster">
<title>cluster_OcrPageModule_imports</title>
<polygon fill="none" stroke="#000000" points="120,-78 120,-130 288,-130 288,-78 120,-78"/>
</g>
<!-- OcrPage -->
<g id="node1" class="node">
<title>OcrPage</title>
<polygon fill="#ffffb3" stroke="#000000" points="368.1939,-122 303.8061,-122 303.8061,-86 368.1939,-86 368.1939,-122"/>
<text text-anchor="middle" x="336" y="-99.8" font-family="Times,serif" font-size="14.00" fill="#000000">OcrPage</text>
</g>
<!-- OcrPageModule -->
<g id="node2" class="node">
<title>OcrPageModule</title>
<polygon fill="#8dd3c7" stroke="#000000" points="316.7437,-187 313.7437,-191 292.7437,-191 289.7437,-187 209.2563,-187 209.2563,-151 316.7437,-151 316.7437,-187"/>
<text text-anchor="middle" x="263" y="-164.8" font-family="Times,serif" font-size="14.00" fill="#000000">OcrPageModule</text>
</g>
<!-- OcrPage&#45;&gt;OcrPageModule -->
<g id="edge1" class="edge">
<title>OcrPage&#45;&gt;OcrPageModule</title>
<path fill="none" stroke="#000000" d="M310.3875,-122.1061C310.3875,-122.1061 310.3875,-140.991 310.3875,-140.991"/>
<polygon fill="#000000" stroke="#000000" points="306.8875,-140.9909 310.3875,-150.991 313.8875,-140.991 306.8875,-140.9909"/>
</g>
<!-- OcrPageRoutingModule -->
<g id="node3" class="node">
<title>OcrPageRoutingModule</title>
<polygon fill="#8dd3c7" stroke="#000000" points="280.3613,-122 277.3613,-126 256.3613,-126 253.3613,-122 127.6387,-122 127.6387,-86 280.3613,-86 280.3613,-122"/>
<text text-anchor="middle" x="204" y="-99.8" font-family="Times,serif" font-size="14.00" fill="#000000">OcrPageRoutingModule</text>
</g>
<!-- OcrPageRoutingModule&#45;&gt;OcrPageModule -->
<g id="edge2" class="edge">
<title>OcrPageRoutingModule&#45;&gt;OcrPageModule</title>
<path fill="none" stroke="#000000" d="M244.7795,-122.1061C244.7795,-122.1061 244.7795,-140.991 244.7795,-140.991"/>
<polygon fill="#000000" stroke="#000000" points="241.2795,-140.9909 244.7795,-150.991 248.2795,-140.991 241.2795,-140.9909"/>
</g>
</g>
</svg>
