<?xml version="1.0" encoding="UTF-8" standalone="no"?>
<!DOCTYPE svg PUBLIC "-//W3C//DTD SVG 1.1//EN"
 "http://www.w3.org/Graphics/SVG/1.1/DTD/svg11.dtd">
<!-- Generated by graphviz version 2.40.1 (20161225.0304)
 -->
<!-- Title: dependencies Pages: 1 -->
<svg width="900pt" height="284pt"
 viewBox="0.00 0.00 900.00 284.00" xmlns="http://www.w3.org/2000/svg" xmlns:xlink="http://www.w3.org/1999/xlink">
<g id="graph0" class="graph" transform="scale(1 1) rotate(0) translate(4 280)">
<title>dependencies</title>
<polygon fill="#ffffff" stroke="transparent" points="-4,4 -4,-280 896,-280 896,4 -4,4"/>
<text text-anchor="start" x="425.0091" y="-42.4" font-family="sans-serif" font-weight="bold" font-size="14.00" fill="#000000">Legend</text>
<polygon fill="#ffffb3" stroke="transparent" points="212,-10 212,-30 232,-30 232,-10 212,-10"/>
<text text-anchor="start" x="235.629" y="-15.4" font-family="sans-serif" font-size="14.00" fill="#000000"> &#160;Declarations</text>
<polygon fill="#8dd3c7" stroke="transparent" points="325,-10 325,-30 345,-30 345,-10 325,-10"/>
<text text-anchor="start" x="348.7251" y="-15.4" font-family="sans-serif" font-size="14.00" fill="#000000"> &#160;Module</text>
<polygon fill="#80b1d3" stroke="transparent" points="411,-10 411,-30 431,-30 431,-10 411,-10"/>
<text text-anchor="start" x="434.7812" y="-15.4" font-family="sans-serif" font-size="14.00" fill="#000000"> &#160;Bootstrap</text>
<polygon fill="#fdb462" stroke="transparent" points="508,-10 508,-30 528,-30 528,-10 508,-10"/>
<text text-anchor="start" x="531.6732" y="-15.4" font-family="sans-serif" font-size="14.00" fill="#000000"> &#160;Providers</text>
<polygon fill="#fb8072" stroke="transparent" points="604,-10 604,-30 624,-30 624,-10 604,-10"/>
<text text-anchor="start" x="627.7258" y="-15.4" font-family="sans-serif" font-size="14.00" fill="#000000"> &#160;Exports</text>
<g id="clust1" class="cluster">
<title>cluster_AppModule</title>
<polygon fill="none" stroke="#000000" stroke-dasharray="1,5" points="8,-70 8,-268 884,-268 884,-70 8,-70"/>
</g>
<g id="clust2" class="cluster">
<title>cluster_AppModule_declarations</title>
<polygon fill="none" stroke="#000000" points="754,-78 754,-130 876,-130 876,-78 754,-78"/>
</g>
<g id="clust4" class="cluster">
<title>cluster_AppModule_imports</title>
<polygon fill="none" stroke="#000000" points="477,-78 477,-130 746,-130 746,-78 477,-78"/>
</g>
<g id="clust6" class="cluster">
<title>cluster_AppModule_bootstrap</title>
<polygon fill="none" stroke="#000000" points="410,-208 410,-260 534,-260 534,-208 410,-208"/>
</g>
<g id="clust7" class="cluster">
<title>cluster_AppModule_providers</title>
<polygon fill="none" stroke="#000000" points="16,-78 16,-130 469,-130 469,-78 16,-78"/>
</g>
<!-- AppComponent -->
<g id="node1" class="node">
<title>AppComponent</title>
<polygon fill="#ffffb3" stroke="#000000" points="867.9399,-122 762.0601,-122 762.0601,-86 867.9399,-86 867.9399,-122"/>
<text text-anchor="middle" x="815" y="-99.8" font-family="Times,serif" font-size="14.00" fill="#000000">AppComponent</text>
</g>
<!-- AppModule -->
<g id="node2" class="node">
<title>AppModule</title>
<polygon fill="#8dd3c7" stroke="#000000" points="513.6571,-187 510.6571,-191 489.6571,-191 486.6571,-187 430.3429,-187 430.3429,-151 513.6571,-151 513.6571,-187"/>
<text text-anchor="middle" x="472" y="-164.8" font-family="Times,serif" font-size="14.00" fill="#000000">AppModule</text>
</g>
<!-- AppComponent&#45;&gt;AppModule -->
<g id="edge1" class="edge">
<title>AppComponent&#45;&gt;AppModule</title>
<path fill="none" stroke="#000000" d="M815,-122.2843C815,-143.3211 815,-175 815,-175 815,-175 523.7156,-175 523.7156,-175"/>
<polygon fill="#000000" stroke="#000000" points="523.7157,-171.5001 513.7156,-175 523.7156,-178.5001 523.7157,-171.5001"/>
</g>
<!-- AppComponent  -->
<g id="node5" class="node">
<title>AppComponent </title>
<polygon fill="#80b1d3" stroke="#000000" points="526.439,-252 417.561,-252 417.561,-216 526.439,-216 526.439,-252"/>
<text text-anchor="middle" x="472" y="-229.8" font-family="Times,serif" font-size="14.00" fill="#000000">AppComponent </text>
</g>
<!-- AppModule&#45;&gt;AppComponent  -->
<g id="edge4" class="edge">
<title>AppModule&#45;&gt;AppComponent </title>
<path fill="none" stroke="#000000" stroke-dasharray="1,5" d="M472,-187.1061C472,-187.1061 472,-205.991 472,-205.991"/>
<polygon fill="#000000" stroke="#000000" points="468.5001,-205.9909 472,-215.991 475.5001,-205.991 468.5001,-205.9909"/>
</g>
<!-- AppRoutingModule -->
<g id="node3" class="node">
<title>AppRoutingModule</title>
<polygon fill="#8dd3c7" stroke="#000000" points="738.2744,-122 735.2744,-126 714.2744,-126 711.2744,-122 609.7256,-122 609.7256,-86 738.2744,-86 738.2744,-122"/>
<text text-anchor="middle" x="674" y="-99.8" font-family="Times,serif" font-size="14.00" fill="#000000">AppRoutingModule</text>
</g>
<!-- AppRoutingModule&#45;&gt;AppModule -->
<g id="edge2" class="edge">
<title>AppRoutingModule&#45;&gt;AppModule</title>
<path fill="none" stroke="#000000" d="M674,-122.0225C674,-139.3734 674,-163 674,-163 674,-163 523.8545,-163 523.8545,-163"/>
<polygon fill="#000000" stroke="#000000" points="523.8546,-159.5001 513.8545,-163 523.8545,-166.5001 523.8546,-159.5001"/>
</g>
<!-- MaterialModule -->
<g id="node4" class="node">
<title>MaterialModule</title>
<polygon fill="#8dd3c7" stroke="#000000" points="591.4706,-122 588.4706,-126 567.4706,-126 564.4706,-122 484.5294,-122 484.5294,-86 591.4706,-86 591.4706,-122"/>
<text text-anchor="middle" x="538" y="-99.8" font-family="Times,serif" font-size="14.00" fill="#000000">MaterialModule</text>
</g>
<!-- MaterialModule&#45;&gt;AppModule -->
<g id="edge3" class="edge">
<title>MaterialModule&#45;&gt;AppModule</title>
<path fill="none" stroke="#000000" d="M499.1715,-122.1061C499.1715,-122.1061 499.1715,-140.991 499.1715,-140.991"/>
<polygon fill="#000000" stroke="#000000" points="495.6715,-140.9909 499.1715,-150.991 502.6715,-140.991 495.6715,-140.9909"/>
</g>
<!-- ApiService -->
<g id="node6" class="node">
<title>ApiService</title>
<ellipse fill="#fdb462" stroke="#000000" cx="407" cy="-104" rx="54.4508" ry="18"/>
<text text-anchor="middle" x="407" y="-99.8" font-family="Times,serif" font-size="14.00" fill="#000000">ApiService</text>
</g>
<!-- ApiService&#45;&gt;AppModule -->
<g id="edge5" class="edge">
<title>ApiService&#45;&gt;AppModule</title>
<path fill="none" stroke="#000000" d="M445.8236,-116.8419C445.8236,-116.8419 445.8236,-140.5231 445.8236,-140.5231"/>
<polygon fill="#000000" stroke="#000000" points="442.3237,-140.523 445.8236,-150.5231 449.3237,-140.5231 442.3237,-140.523"/>
</g>
<!-- AuthService -->
<g id="node7" class="node">
<title>AuthService</title>
<ellipse fill="#fdb462" stroke="#000000" cx="275" cy="-104" rx="59.1083" ry="18"/>
<text text-anchor="middle" x="275" y="-99.8" font-family="Times,serif" font-size="14.00" fill="#000000">AuthService</text>
</g>
<!-- AuthService&#45;&gt;AppModule -->
<g id="edge6" class="edge">
<title>AuthService&#45;&gt;AppModule</title>
<path fill="none" stroke="#000000" d="M275,-122.0225C275,-139.3734 275,-163 275,-163 275,-163 420.2214,-163 420.2214,-163"/>
<polygon fill="#000000" stroke="#000000" points="420.2214,-166.5001 430.2214,-163 420.2213,-159.5001 420.2214,-166.5001"/>
</g>
<!-- NotificationService -->
<g id="node8" class="node">
<title>NotificationService</title>
<ellipse fill="#fdb462" stroke="#000000" cx="111" cy="-104" rx="86.8107" ry="18"/>
<text text-anchor="middle" x="111" y="-99.8" font-family="Times,serif" font-size="14.00" fill="#000000">NotificationService</text>
</g>
<!-- NotificationService&#45;&gt;AppModule -->
<g id="edge7" class="edge">
<title>NotificationService&#45;&gt;AppModule</title>
<path fill="none" stroke="#000000" d="M111,-122.2843C111,-143.3211 111,-175 111,-175 111,-175 420.236,-175 420.236,-175"/>
<polygon fill="#000000" stroke="#000000" points="420.2361,-178.5001 430.236,-175 420.236,-171.5001 420.2361,-178.5001"/>
</g>
</g>
</svg>
