<?xml version="1.0" encoding="UTF-8" standalone="no"?>
<!DOCTYPE svg PUBLIC "-//W3C//DTD SVG 1.1//EN"
 "http://www.w3.org/Graphics/SVG/1.1/DTD/svg11.dtd">
<!-- Generated by graphviz version 2.40.1 (20161225.0304)
 -->
<!-- Title: dependencies Pages: 1 -->
<svg width="504pt" height="211pt"
 viewBox="0.00 0.00 504.00 211.00" xmlns="http://www.w3.org/2000/svg" xmlns:xlink="http://www.w3.org/1999/xlink">
<g id="graph0" class="graph" transform="scale(1 1) rotate(0) translate(4 207)">
<title>dependencies</title>
<polygon fill="#ffffff" stroke="transparent" points="-4,4 -4,-207 500,-207 500,4 -4,4"/>
<text text-anchor="start" x="227.0091" y="-42.4" font-family="sans-serif" font-weight="bold" font-size="14.00" fill="#000000">Legend</text>
<polygon fill="#ffffb3" stroke="transparent" points="14,-10 14,-30 34,-30 34,-10 14,-10"/>
<text text-anchor="start" x="37.629" y="-15.4" font-family="sans-serif" font-size="14.00" fill="#000000"> &#160;Declarations</text>
<polygon fill="#8dd3c7" stroke="transparent" points="127,-10 127,-30 147,-30 147,-10 127,-10"/>
<text text-anchor="start" x="150.7251" y="-15.4" font-family="sans-serif" font-size="14.00" fill="#000000"> &#160;Module</text>
<polygon fill="#80b1d3" stroke="transparent" points="213,-10 213,-30 233,-30 233,-10 213,-10"/>
<text text-anchor="start" x="236.7812" y="-15.4" font-family="sans-serif" font-size="14.00" fill="#000000"> &#160;Bootstrap</text>
<polygon fill="#fdb462" stroke="transparent" points="310,-10 310,-30 330,-30 330,-10 310,-10"/>
<text text-anchor="start" x="333.6732" y="-15.4" font-family="sans-serif" font-size="14.00" fill="#000000"> &#160;Providers</text>
<polygon fill="#fb8072" stroke="transparent" points="406,-10 406,-30 426,-30 426,-10 406,-10"/>
<text text-anchor="start" x="429.7258" y="-15.4" font-family="sans-serif" font-size="14.00" fill="#000000"> &#160;Exports</text>
<g id="clust1" class="cluster">
<title>cluster_TabsPageRoutingModule</title>
<polygon fill="none" stroke="#000000" stroke-dasharray="1,5" points="30,-70 30,-195 466,-195 466,-70 30,-70"/>
</g>
<g id="clust4" class="cluster">
<title>cluster_TabsPageRoutingModule_exports</title>
<polygon fill="none" stroke="#000000" points="38,-135 38,-187 458,-187 458,-135 38,-135"/>
</g>
<!-- GalleryPageModule  -->
<g id="node1" class="node">
<title>GalleryPageModule </title>
<polygon fill="#fb8072" stroke="#000000" points="450.2394,-179 317.7606,-179 317.7606,-143 450.2394,-143 450.2394,-179"/>
<text text-anchor="middle" x="384" y="-156.8" font-family="Times,serif" font-size="14.00" fill="#000000">GalleryPageModule </text>
</g>
<!-- HomePageModule  -->
<g id="node2" class="node">
<title>HomePageModule </title>
<polygon fill="#fb8072" stroke="#000000" points="300.4743,-179 175.5257,-179 175.5257,-143 300.4743,-143 300.4743,-179"/>
<text text-anchor="middle" x="238" y="-156.8" font-family="Times,serif" font-size="14.00" fill="#000000">HomePageModule </text>
</g>
<!-- OcrPageModule  -->
<g id="node3" class="node">
<title>OcrPageModule </title>
<polygon fill="#fb8072" stroke="#000000" points="157.7437,-179 46.2563,-179 46.2563,-143 157.7437,-143 157.7437,-179"/>
<text text-anchor="middle" x="102" y="-156.8" font-family="Times,serif" font-size="14.00" fill="#000000">OcrPageModule </text>
</g>
<!-- TabsPageRoutingModule -->
<g id="node4" class="node">
<title>TabsPageRoutingModule</title>
<polygon fill="#8dd3c7" stroke="#000000" points="317.5912,-114 314.5912,-118 293.5912,-118 290.5912,-114 158.4088,-114 158.4088,-78 317.5912,-78 317.5912,-114"/>
<text text-anchor="middle" x="238" y="-91.8" font-family="Times,serif" font-size="14.00" fill="#000000">TabsPageRoutingModule</text>
</g>
<!-- TabsPageRoutingModule&#45;&gt;GalleryPageModule  -->
<g id="edge1" class="edge">
<title>TabsPageRoutingModule&#45;&gt;GalleryPageModule </title>
<path fill="none" stroke="#000000" stroke-dasharray="5,2" d="M308.8912,-114.1061C308.8912,-133.3391 308.8912,-161 308.8912,-161 308.8912,-161 309.7822,-161 309.7822,-161"/>
<polygon fill="#000000" stroke="#000000" points="307.8021,-164.5001 317.8021,-161 307.802,-157.5001 307.8021,-164.5001"/>
</g>
<!-- TabsPageRoutingModule&#45;&gt;HomePageModule  -->
<g id="edge2" class="edge">
<title>TabsPageRoutingModule&#45;&gt;HomePageModule </title>
<path fill="none" stroke="#000000" stroke-dasharray="5,2" d="M238,-114.1061C238,-114.1061 238,-132.991 238,-132.991"/>
<polygon fill="#000000" stroke="#000000" points="234.5001,-132.9909 238,-142.991 241.5001,-132.991 234.5001,-132.9909"/>
</g>
<!-- TabsPageRoutingModule&#45;&gt;OcrPageModule  -->
<g id="edge3" class="edge">
<title>TabsPageRoutingModule&#45;&gt;OcrPageModule </title>
<path fill="none" stroke="#000000" stroke-dasharray="5,2" d="M167.1089,-114.1061C167.1089,-133.3391 167.1089,-161 167.1089,-161 167.1089,-161 166.176,-161 166.176,-161"/>
<polygon fill="#000000" stroke="#000000" points="167.7804,-157.5001 157.7803,-161 167.7803,-164.5001 167.7804,-157.5001"/>
</g>
</g>
</svg>
