<?xml version="1.0" encoding="UTF-8" standalone="no"?>
<!DOCTYPE svg PUBLIC "-//W3C//DTD SVG 1.1//EN"
 "http://www.w3.org/Graphics/SVG/1.1/DTD/svg11.dtd">
<!-- Generated by graphviz version 2.40.1 (20161225.0304)
 -->
<!-- Title: dependencies Pages: 1 -->
<svg width="504pt" height="211pt"
 viewBox="0.00 0.00 504.00 211.00" xmlns="http://www.w3.org/2000/svg" xmlns:xlink="http://www.w3.org/1999/xlink">
<g id="graph0" class="graph" transform="scale(1 1) rotate(0) translate(4 207)">
<title>dependencies</title>
<polygon fill="#ffffff" stroke="transparent" points="-4,4 -4,-207 500,-207 500,4 -4,4"/>
<text text-anchor="start" x="227.0091" y="-42.4" font-family="sans-serif" font-weight="bold" font-size="14.00" fill="#000000">Legend</text>
<polygon fill="#ffffb3" stroke="transparent" points="14,-10 14,-30 34,-30 34,-10 14,-10"/>
<text text-anchor="start" x="37.629" y="-15.4" font-family="sans-serif" font-size="14.00" fill="#000000"> &#160;Declarations</text>
<polygon fill="#8dd3c7" stroke="transparent" points="127,-10 127,-30 147,-30 147,-10 127,-10"/>
<text text-anchor="start" x="150.7251" y="-15.4" font-family="sans-serif" font-size="14.00" fill="#000000"> &#160;Module</text>
<polygon fill="#80b1d3" stroke="transparent" points="213,-10 213,-30 233,-30 233,-10 213,-10"/>
<text text-anchor="start" x="236.7812" y="-15.4" font-family="sans-serif" font-size="14.00" fill="#000000"> &#160;Bootstrap</text>
<polygon fill="#fdb462" stroke="transparent" points="310,-10 310,-30 330,-30 330,-10 310,-10"/>
<text text-anchor="start" x="333.6732" y="-15.4" font-family="sans-serif" font-size="14.00" fill="#000000"> &#160;Providers</text>
<polygon fill="#fb8072" stroke="transparent" points="406,-10 406,-30 426,-30 426,-10 406,-10"/>
<text text-anchor="start" x="429.7258" y="-15.4" font-family="sans-serif" font-size="14.00" fill="#000000"> &#160;Exports</text>
<g id="clust1" class="cluster">
<title>cluster_HomePageModule</title>
<polygon fill="none" stroke="#000000" stroke-dasharray="1,5" points="35.5,-70 35.5,-195 460.5,-195 460.5,-70 35.5,-70"/>
</g>
<g id="clust2" class="cluster">
<title>cluster_HomePageModule_declarations</title>
<polygon fill="none" stroke="#000000" points="358.5,-78 358.5,-130 452.5,-130 452.5,-78 358.5,-78"/>
</g>
<g id="clust4" class="cluster">
<title>cluster_HomePageModule_imports</title>
<polygon fill="none" stroke="#000000" points="43.5,-78 43.5,-130 350.5,-130 350.5,-78 43.5,-78"/>
</g>
<!-- HomePage -->
<g id="node1" class="node">
<title>HomePage</title>
<polygon fill="#ffffb3" stroke="#000000" points="444.4248,-122 366.5752,-122 366.5752,-86 444.4248,-86 444.4248,-122"/>
<text text-anchor="middle" x="405.5" y="-99.8" font-family="Times,serif" font-size="14.00" fill="#000000">HomePage</text>
</g>
<!-- HomePageModule -->
<g id="node2" class="node">
<title>HomePageModule</title>
<polygon fill="#8dd3c7" stroke="#000000" points="319.9734,-187 316.9734,-191 295.9734,-191 292.9734,-187 199.0266,-187 199.0266,-151 319.9734,-151 319.9734,-187"/>
<text text-anchor="middle" x="259.5" y="-164.8" font-family="Times,serif" font-size="14.00" fill="#000000">HomePageModule</text>
</g>
<!-- HomePage&#45;&gt;HomePageModule -->
<g id="edge1" class="edge">
<title>HomePage&#45;&gt;HomePageModule</title>
<path fill="none" stroke="#000000" d="M405.5,-122.1061C405.5,-141.3391 405.5,-169 405.5,-169 405.5,-169 330.1488,-169 330.1488,-169"/>
<polygon fill="#000000" stroke="#000000" points="330.1488,-165.5001 320.1488,-169 330.1487,-172.5001 330.1488,-165.5001"/>
</g>
<!-- HomePageRoutingModule -->
<g id="node3" class="node">
<title>HomePageRoutingModule</title>
<polygon fill="#8dd3c7" stroke="#000000" points="342.5912,-122 339.5912,-126 318.5912,-126 315.5912,-122 176.4088,-122 176.4088,-86 342.5912,-86 342.5912,-122"/>
<text text-anchor="middle" x="259.5" y="-99.8" font-family="Times,serif" font-size="14.00" fill="#000000">HomePageRoutingModule</text>
</g>
<!-- HomePageRoutingModule&#45;&gt;HomePageModule -->
<g id="edge2" class="edge">
<title>HomePageRoutingModule&#45;&gt;HomePageModule</title>
<path fill="none" stroke="#000000" d="M259.5,-122.1061C259.5,-122.1061 259.5,-140.991 259.5,-140.991"/>
<polygon fill="#000000" stroke="#000000" points="256.0001,-140.9909 259.5,-150.991 263.0001,-140.991 256.0001,-140.9909"/>
</g>
<!-- MaterialModule -->
<g id="node4" class="node">
<title>MaterialModule</title>
<polygon fill="#8dd3c7" stroke="#000000" points="157.9706,-122 154.9706,-126 133.9706,-126 130.9706,-122 51.0294,-122 51.0294,-86 157.9706,-86 157.9706,-122"/>
<text text-anchor="middle" x="104.5" y="-99.8" font-family="Times,serif" font-size="14.00" fill="#000000">MaterialModule</text>
</g>
<!-- MaterialModule&#45;&gt;HomePageModule -->
<g id="edge3" class="edge">
<title>MaterialModule&#45;&gt;HomePageModule</title>
<path fill="none" stroke="#000000" d="M104.5,-122.1061C104.5,-141.3391 104.5,-169 104.5,-169 104.5,-169 188.6848,-169 188.6848,-169"/>
<polygon fill="#000000" stroke="#000000" points="188.6848,-172.5001 198.6848,-169 188.6847,-165.5001 188.6848,-172.5001"/>
</g>
</g>
</svg>
