<?xml version="1.0" encoding="UTF-8" standalone="no"?>
<!DOCTYPE svg PUBLIC "-//W3C//DTD SVG 1.1//EN"
 "http://www.w3.org/Graphics/SVG/1.1/DTD/svg11.dtd">
<!-- Generated by graphviz version 2.40.1 (20161225.0304)
 -->
<!-- Title: dependencies Pages: 1 -->
<svg width="2057pt" height="284pt"
 viewBox="0.00 0.00 2057.00 284.00" xmlns="http://www.w3.org/2000/svg" xmlns:xlink="http://www.w3.org/1999/xlink">
<g id="graph0" class="graph" transform="scale(1 1) rotate(0) translate(4 280)">
<title>dependencies</title>
<polygon fill="#ffffff" stroke="transparent" points="-4,4 -4,-280 2053,-280 2053,4 -4,4"/>
<text text-anchor="start" x="1003.5091" y="-42.4" font-family="sans-serif" font-weight="bold" font-size="14.00" fill="#000000">Legend</text>
<polygon fill="#ffffb3" stroke="transparent" points="790.5,-10 790.5,-30 810.5,-30 810.5,-10 790.5,-10"/>
<text text-anchor="start" x="814.129" y="-15.4" font-family="sans-serif" font-size="14.00" fill="#000000"> &#160;Declarations</text>
<polygon fill="#8dd3c7" stroke="transparent" points="903.5,-10 903.5,-30 923.5,-30 923.5,-10 903.5,-10"/>
<text text-anchor="start" x="927.2251" y="-15.4" font-family="sans-serif" font-size="14.00" fill="#000000"> &#160;Module</text>
<polygon fill="#80b1d3" stroke="transparent" points="989.5,-10 989.5,-30 1009.5,-30 1009.5,-10 989.5,-10"/>
<text text-anchor="start" x="1013.2812" y="-15.4" font-family="sans-serif" font-size="14.00" fill="#000000"> &#160;Bootstrap</text>
<polygon fill="#fdb462" stroke="transparent" points="1086.5,-10 1086.5,-30 1106.5,-30 1106.5,-10 1086.5,-10"/>
<text text-anchor="start" x="1110.1732" y="-15.4" font-family="sans-serif" font-size="14.00" fill="#000000"> &#160;Providers</text>
<polygon fill="#fb8072" stroke="transparent" points="1182.5,-10 1182.5,-30 1202.5,-30 1202.5,-10 1182.5,-10"/>
<text text-anchor="start" x="1206.2258" y="-15.4" font-family="sans-serif" font-size="14.00" fill="#000000"> &#160;Exports</text>
<g id="clust1" class="cluster">
<title>cluster_ComponentsModule</title>
<polygon fill="none" stroke="#000000" stroke-dasharray="1,5" points="8,-70 8,-268 2041,-268 2041,-70 8,-70"/>
</g>
<g id="clust2" class="cluster">
<title>cluster_ComponentsModule_declarations</title>
<polygon fill="none" stroke="#000000" points="286,-78 286,-130 2033,-130 2033,-78 286,-78"/>
</g>
<g id="clust14" class="cluster">
<title>cluster_ComponentsModule_imports</title>
<polygon fill="none" stroke="#000000" points="156,-78 156,-130 278,-130 278,-78 156,-78"/>
</g>
<g id="clust15" class="cluster">
<title>cluster_ComponentsModule_exports</title>
<polygon fill="none" stroke="#000000" points="97,-208 97,-260 1883,-260 1883,-208 97,-208"/>
</g>
<g id="clust17" class="cluster">
<title>cluster_ComponentsModule_providers</title>
<polygon fill="none" stroke="#000000" points="16,-78 16,-130 148,-130 148,-78 16,-78"/>
</g>
<!-- AddExpenseComponent -->
<g id="node1" class="node">
<title>AddExpenseComponent</title>
<polygon fill="#ffffb3" stroke="#000000" points="2025.3655,-122 1872.6345,-122 1872.6345,-86 2025.3655,-86 2025.3655,-122"/>
<text text-anchor="middle" x="1949" y="-99.8" font-family="Times,serif" font-size="14.00" fill="#000000">AddExpenseComponent</text>
</g>
<!-- ComponentsModule -->
<g id="node12" class="node">
<title>ComponentsModule</title>
<polygon fill="#8dd3c7" stroke="#000000" points="1035.3272,-187 1032.3272,-191 1011.3272,-191 1008.3272,-187 904.6728,-187 904.6728,-151 1035.3272,-151 1035.3272,-187"/>
<text text-anchor="middle" x="970" y="-164.8" font-family="Times,serif" font-size="14.00" fill="#000000">ComponentsModule</text>
</g>
<!-- AddExpenseComponent&#45;&gt;ComponentsModule -->
<g id="edge1" class="edge">
<title>AddExpenseComponent&#45;&gt;ComponentsModule</title>
<path fill="none" stroke="#000000" d="M1950.3077,-122.1061C1950.3077,-141.3391 1950.3077,-169 1950.3077,-169 1950.3077,-169 1045.461,-169 1045.461,-169"/>
<polygon fill="#000000" stroke="#000000" points="1045.461,-165.5001 1035.461,-169 1045.4609,-172.5001 1045.461,-165.5001"/>
</g>
<!-- BarChartComponent -->
<g id="node2" class="node">
<title>BarChartComponent</title>
<polygon fill="#ffffb3" stroke="#000000" points="1854.1471,-122 1721.8529,-122 1721.8529,-86 1854.1471,-86 1854.1471,-122"/>
<text text-anchor="middle" x="1788" y="-99.8" font-family="Times,serif" font-size="14.00" fill="#000000">BarChartComponent</text>
</g>
<!-- BarChartComponent&#45;&gt;ComponentsModule -->
<g id="edge2" class="edge">
<title>BarChartComponent&#45;&gt;ComponentsModule</title>
<path fill="none" stroke="#000000" d="M1810.1078,-122.2667C1810.1078,-140.5552 1810.1078,-166 1810.1078,-166 1810.1078,-166 1045.2228,-166 1045.2228,-166"/>
<polygon fill="#000000" stroke="#000000" points="1045.2228,-162.5001 1035.2228,-166 1045.2228,-169.5001 1045.2228,-162.5001"/>
</g>
<!-- BudgetModalComponent -->
<g id="node3" class="node">
<title>BudgetModalComponent</title>
<polygon fill="#ffffb3" stroke="#000000" points="1704.3243,-122 1545.6757,-122 1545.6757,-86 1704.3243,-86 1704.3243,-122"/>
<text text-anchor="middle" x="1625" y="-99.8" font-family="Times,serif" font-size="14.00" fill="#000000">BudgetModalComponent</text>
</g>
<!-- BudgetModalComponent&#45;&gt;ComponentsModule -->
<g id="edge3" class="edge">
<title>BudgetModalComponent&#45;&gt;ComponentsModule</title>
<path fill="none" stroke="#000000" d="M1555.9194,-122.0225C1555.9194,-139.3734 1555.9194,-163 1555.9194,-163 1555.9194,-163 1045.2244,-163 1045.2244,-163"/>
<polygon fill="#000000" stroke="#000000" points="1045.2244,-159.5001 1035.2244,-163 1045.2243,-166.5001 1045.2244,-159.5001"/>
</g>
<!-- DetailsComponent -->
<g id="node4" class="node">
<title>DetailsComponent</title>
<polygon fill="#ffffb3" stroke="#000000" points="1527.4846,-122 1406.5154,-122 1406.5154,-86 1527.4846,-86 1527.4846,-122"/>
<text text-anchor="middle" x="1467" y="-99.8" font-family="Times,serif" font-size="14.00" fill="#000000">DetailsComponent</text>
</g>
<!-- DetailsComponent&#45;&gt;ComponentsModule -->
<g id="edge4" class="edge">
<title>DetailsComponent&#45;&gt;ComponentsModule</title>
<path fill="none" stroke="#000000" d="M1467,-122.027C1467,-138.3976 1467,-160 1467,-160 1467,-160 1045.2294,-160 1045.2294,-160"/>
<polygon fill="#000000" stroke="#000000" points="1045.2294,-156.5001 1035.2294,-160 1045.2294,-163.5001 1045.2294,-156.5001"/>
</g>
<!-- DoughnutChartComponent -->
<g id="node5" class="node">
<title>DoughnutChartComponent</title>
<polygon fill="#ffffb3" stroke="#000000" points="1388.4326,-122 1219.5674,-122 1219.5674,-86 1388.4326,-86 1388.4326,-122"/>
<text text-anchor="middle" x="1304" y="-99.8" font-family="Times,serif" font-size="14.00" fill="#000000">DoughnutChartComponent</text>
</g>
<!-- DoughnutChartComponent&#45;&gt;ComponentsModule -->
<g id="edge5" class="edge">
<title>DoughnutChartComponent&#45;&gt;ComponentsModule</title>
<path fill="none" stroke="#000000" d="M1233.8619,-122.2396C1233.8619,-137.5706 1233.8619,-157 1233.8619,-157 1233.8619,-157 1045.2243,-157 1045.2243,-157"/>
<polygon fill="#000000" stroke="#000000" points="1045.2243,-153.5001 1035.2243,-157 1045.2243,-160.5001 1045.2243,-153.5001"/>
</g>
<!-- EditAccComponent -->
<g id="node6" class="node">
<title>EditAccComponent</title>
<polygon fill="#ffffb3" stroke="#000000" points="1201.7022,-122 1074.2978,-122 1074.2978,-86 1201.7022,-86 1201.7022,-122"/>
<text text-anchor="middle" x="1138" y="-99.8" font-family="Times,serif" font-size="14.00" fill="#000000">EditAccComponent</text>
</g>
<!-- EditAccComponent&#45;&gt;ComponentsModule -->
<g id="edge6" class="edge">
<title>EditAccComponent&#45;&gt;ComponentsModule</title>
<path fill="none" stroke="#000000" d="M1138,-122.0511C1138,-136.373 1138,-154 1138,-154 1138,-154 1045.4342,-154 1045.4342,-154"/>
<polygon fill="#000000" stroke="#000000" points="1045.4343,-150.5001 1035.4342,-154 1045.4342,-157.5001 1045.4343,-150.5001"/>
</g>
<!-- ForgotPasswordComponent -->
<g id="node7" class="node">
<title>ForgotPasswordComponent</title>
<polygon fill="#ffffb3" stroke="#000000" points="1056.3201,-122 883.6799,-122 883.6799,-86 1056.3201,-86 1056.3201,-122"/>
<text text-anchor="middle" x="970" y="-99.8" font-family="Times,serif" font-size="14.00" fill="#000000">ForgotPasswordComponent</text>
</g>
<!-- ForgotPasswordComponent&#45;&gt;ComponentsModule -->
<g id="edge7" class="edge">
<title>ForgotPasswordComponent&#45;&gt;ComponentsModule</title>
<path fill="none" stroke="#000000" d="M970,-122.1061C970,-122.1061 970,-140.991 970,-140.991"/>
<polygon fill="#000000" stroke="#000000" points="966.5001,-140.9909 970,-150.991 973.5001,-140.991 966.5001,-140.9909"/>
</g>
<!-- ImageComponent -->
<g id="node8" class="node">
<title>ImageComponent</title>
<polygon fill="#ffffb3" stroke="#000000" points="866.3132,-122 749.6868,-122 749.6868,-86 866.3132,-86 866.3132,-122"/>
<text text-anchor="middle" x="808" y="-99.8" font-family="Times,serif" font-size="14.00" fill="#000000">ImageComponent</text>
</g>
<!-- ImageComponent&#45;&gt;ComponentsModule -->
<g id="edge8" class="edge">
<title>ImageComponent&#45;&gt;ComponentsModule</title>
<path fill="none" stroke="#000000" d="M808,-122.0511C808,-136.373 808,-154 808,-154 808,-154 894.5754,-154 894.5754,-154"/>
<polygon fill="#000000" stroke="#000000" points="894.5754,-157.5001 904.5754,-154 894.5753,-150.5001 894.5754,-157.5001"/>
</g>
<!-- NewPlanComponent -->
<g id="node9" class="node">
<title>NewPlanComponent</title>
<polygon fill="#ffffb3" stroke="#000000" points="732.1485,-122 599.8515,-122 599.8515,-86 732.1485,-86 732.1485,-122"/>
<text text-anchor="middle" x="666" y="-99.8" font-family="Times,serif" font-size="14.00" fill="#000000">NewPlanComponent</text>
</g>
<!-- NewPlanComponent&#45;&gt;ComponentsModule -->
<g id="edge9" class="edge">
<title>NewPlanComponent&#45;&gt;ComponentsModule</title>
<path fill="none" stroke="#000000" d="M721.7071,-122.2396C721.7071,-137.5706 721.7071,-157 721.7071,-157 721.7071,-157 894.764,-157 894.764,-157"/>
<polygon fill="#000000" stroke="#000000" points="894.764,-160.5001 904.764,-157 894.7639,-153.5001 894.764,-160.5001"/>
</g>
<!-- PieChartComponent -->
<g id="node10" class="node">
<title>PieChartComponent</title>
<polygon fill="#ffffb3" stroke="#000000" points="582.323,-122 451.677,-122 451.677,-86 582.323,-86 582.323,-122"/>
<text text-anchor="middle" x="517" y="-99.8" font-family="Times,serif" font-size="14.00" fill="#000000">PieChartComponent</text>
</g>
<!-- PieChartComponent&#45;&gt;ComponentsModule -->
<g id="edge10" class="edge">
<title>PieChartComponent&#45;&gt;ComponentsModule</title>
<path fill="none" stroke="#000000" d="M577.6275,-122.027C577.6275,-138.3976 577.6275,-160 577.6275,-160 577.6275,-160 894.7672,-160 894.7672,-160"/>
<polygon fill="#000000" stroke="#000000" points="894.7672,-163.5001 904.7672,-160 894.7672,-156.5001 894.7672,-163.5001"/>
</g>
<!-- PlanDetailComponent -->
<g id="node11" class="node">
<title>PlanDetailComponent</title>
<polygon fill="#ffffb3" stroke="#000000" points="434.4285,-122 293.5715,-122 293.5715,-86 434.4285,-86 434.4285,-122"/>
<text text-anchor="middle" x="364" y="-99.8" font-family="Times,serif" font-size="14.00" fill="#000000">PlanDetailComponent</text>
</g>
<!-- PlanDetailComponent&#45;&gt;ComponentsModule -->
<g id="edge11" class="edge">
<title>PlanDetailComponent&#45;&gt;ComponentsModule</title>
<path fill="none" stroke="#000000" d="M426.5699,-122.0225C426.5699,-139.3734 426.5699,-163 426.5699,-163 426.5699,-163 894.7197,-163 894.7197,-163"/>
<polygon fill="#000000" stroke="#000000" points="894.7198,-166.5001 904.7197,-163 894.7197,-159.5001 894.7198,-166.5001"/>
</g>
<!-- AddExpenseComponent  -->
<g id="node14" class="node">
<title>AddExpenseComponent </title>
<polygon fill="#fb8072" stroke="#000000" points="1875.3658,-252 1718.6342,-252 1718.6342,-216 1875.3658,-216 1875.3658,-252"/>
<text text-anchor="middle" x="1797" y="-229.8" font-family="Times,serif" font-size="14.00" fill="#000000">AddExpenseComponent </text>
</g>
<!-- ComponentsModule&#45;&gt;AddExpenseComponent  -->
<g id="edge13" class="edge">
<title>ComponentsModule&#45;&gt;AddExpenseComponent </title>
<path fill="none" stroke="#000000" stroke-dasharray="5,2" d="M1035.4694,-172C1225.854,-172 1765.8922,-172 1765.8922,-172 1765.8922,-172 1765.8922,-205.7333 1765.8922,-205.7333"/>
<polygon fill="#000000" stroke="#000000" points="1762.3923,-205.7333 1765.8922,-215.7333 1769.3923,-205.7333 1762.3923,-205.7333"/>
</g>
<!-- BarChartComponent  -->
<g id="node15" class="node">
<title>BarChartComponent </title>
<polygon fill="#fb8072" stroke="#000000" points="1701.1467,-252 1564.8533,-252 1564.8533,-216 1701.1467,-216 1701.1467,-252"/>
<text text-anchor="middle" x="1633" y="-229.8" font-family="Times,serif" font-size="14.00" fill="#000000">BarChartComponent </text>
</g>
<!-- ComponentsModule&#45;&gt;BarChartComponent  -->
<g id="edge14" class="edge">
<title>ComponentsModule&#45;&gt;BarChartComponent </title>
<path fill="none" stroke="#000000" stroke-dasharray="5,2" d="M1035.3855,-175C1202.6503,-175 1633,-175 1633,-175 1633,-175 1633,-205.9775 1633,-205.9775"/>
<polygon fill="#000000" stroke="#000000" points="1629.5001,-205.9774 1633,-215.9775 1636.5001,-205.9775 1629.5001,-205.9774"/>
</g>
<!-- BudgetModalComponent  -->
<g id="node16" class="node">
<title>BudgetModalComponent </title>
<polygon fill="#fb8072" stroke="#000000" points="1546.8241,-252 1385.1759,-252 1385.1759,-216 1546.8241,-216 1546.8241,-252"/>
<text text-anchor="middle" x="1466" y="-229.8" font-family="Times,serif" font-size="14.00" fill="#000000">BudgetModalComponent </text>
</g>
<!-- ComponentsModule&#45;&gt;BudgetModalComponent  -->
<g id="edge15" class="edge">
<title>ComponentsModule&#45;&gt;BudgetModalComponent </title>
<path fill="none" stroke="#000000" stroke-dasharray="5,2" d="M1035.3723,-178C1155.0891,-178 1397.3619,-178 1397.3619,-178 1397.3619,-178 1397.3619,-205.973 1397.3619,-205.973"/>
<polygon fill="#000000" stroke="#000000" points="1393.8619,-205.973 1397.3619,-215.973 1400.8619,-205.973 1393.8619,-205.973"/>
</g>
<!-- DetailsComponent  -->
<g id="node17" class="node">
<title>DetailsComponent </title>
<polygon fill="#fb8072" stroke="#000000" points="1367.4855,-252 1242.5145,-252 1242.5145,-216 1367.4855,-216 1367.4855,-252"/>
<text text-anchor="middle" x="1305" y="-229.8" font-family="Times,serif" font-size="14.00" fill="#000000">DetailsComponent </text>
</g>
<!-- ComponentsModule&#45;&gt;DetailsComponent  -->
<g id="edge16" class="edge">
<title>ComponentsModule&#45;&gt;DetailsComponent </title>
<path fill="none" stroke="#000000" stroke-dasharray="5,2" d="M1035.3866,-181C1132.8778,-181 1305,-181 1305,-181 1305,-181 1305,-205.7604 1305,-205.7604"/>
<polygon fill="#000000" stroke="#000000" points="1301.5001,-205.7604 1305,-215.7604 1308.5001,-205.7604 1301.5001,-205.7604"/>
</g>
<!-- DoughnutChartComponent  -->
<g id="node18" class="node">
<title>DoughnutChartComponent </title>
<polygon fill="#fb8072" stroke="#000000" points="1224.932,-252 1053.068,-252 1053.068,-216 1224.932,-216 1224.932,-252"/>
<text text-anchor="middle" x="1139" y="-229.8" font-family="Times,serif" font-size="14.00" fill="#000000">DoughnutChartComponent </text>
</g>
<!-- ComponentsModule&#45;&gt;DoughnutChartComponent  -->
<g id="edge17" class="edge">
<title>ComponentsModule&#45;&gt;DoughnutChartComponent </title>
<path fill="none" stroke="#000000" stroke-dasharray="5,2" d="M1035.3939,-184C1052.02,-184 1065.2795,-184 1065.2795,-184 1065.2795,-184 1065.2795,-205.9489 1065.2795,-205.9489"/>
<polygon fill="#000000" stroke="#000000" points="1061.7795,-205.9488 1065.2795,-215.9489 1068.7795,-205.9489 1061.7795,-205.9488"/>
</g>
<!-- EditAccComponent  -->
<g id="node19" class="node">
<title>EditAccComponent </title>
<polygon fill="#fb8072" stroke="#000000" points="1035.2023,-252 904.7977,-252 904.7977,-216 1035.2023,-216 1035.2023,-252"/>
<text text-anchor="middle" x="970" y="-229.8" font-family="Times,serif" font-size="14.00" fill="#000000">EditAccComponent </text>
</g>
<!-- ComponentsModule&#45;&gt;EditAccComponent  -->
<g id="edge18" class="edge">
<title>ComponentsModule&#45;&gt;EditAccComponent </title>
<path fill="none" stroke="#000000" stroke-dasharray="5,2" d="M970,-187.1061C970,-187.1061 970,-205.991 970,-205.991"/>
<polygon fill="#000000" stroke="#000000" points="966.5001,-205.9909 970,-215.991 973.5001,-205.991 966.5001,-205.9909"/>
</g>
<!-- ForgotPasswordComponent  -->
<g id="node20" class="node">
<title>ForgotPasswordComponent </title>
<polygon fill="#fb8072" stroke="#000000" points="886.8199,-252 711.1801,-252 711.1801,-216 886.8199,-216 886.8199,-252"/>
<text text-anchor="middle" x="799" y="-229.8" font-family="Times,serif" font-size="14.00" fill="#000000">ForgotPasswordComponent </text>
</g>
<!-- ComponentsModule&#45;&gt;ForgotPasswordComponent  -->
<g id="edge19" class="edge">
<title>ComponentsModule&#45;&gt;ForgotPasswordComponent </title>
<path fill="none" stroke="#000000" stroke-dasharray="5,2" d="M904.7967,-184C888.2191,-184 874.9983,-184 874.9983,-184 874.9983,-184 874.9983,-205.9489 874.9983,-205.9489"/>
<polygon fill="#000000" stroke="#000000" points="871.4983,-205.9488 874.9983,-215.9489 878.4983,-205.9489 871.4983,-205.9488"/>
</g>
<!-- ImageComponent  -->
<g id="node21" class="node">
<title>ImageComponent </title>
<polygon fill="#fb8072" stroke="#000000" points="692.8129,-252 573.1871,-252 573.1871,-216 692.8129,-216 692.8129,-252"/>
<text text-anchor="middle" x="633" y="-229.8" font-family="Times,serif" font-size="14.00" fill="#000000">ImageComponent </text>
</g>
<!-- ComponentsModule&#45;&gt;ImageComponent  -->
<g id="edge20" class="edge">
<title>ComponentsModule&#45;&gt;ImageComponent </title>
<path fill="none" stroke="#000000" stroke-dasharray="5,2" d="M904.4927,-181C809.904,-181 646.2912,-181 646.2912,-181 646.2912,-181 646.2912,-205.7604 646.2912,-205.7604"/>
<polygon fill="#000000" stroke="#000000" points="642.7913,-205.7604 646.2912,-215.7604 649.7913,-205.7604 642.7913,-205.7604"/>
</g>
<!-- NewPlanComponent  -->
<g id="node22" class="node">
<title>NewPlanComponent </title>
<polygon fill="#fb8072" stroke="#000000" points="555.1481,-252 418.8519,-252 418.8519,-216 555.1481,-216 555.1481,-252"/>
<text text-anchor="middle" x="487" y="-229.8" font-family="Times,serif" font-size="14.00" fill="#000000">NewPlanComponent </text>
</g>
<!-- ComponentsModule&#45;&gt;NewPlanComponent  -->
<g id="edge21" class="edge">
<title>ComponentsModule&#45;&gt;NewPlanComponent </title>
<path fill="none" stroke="#000000" stroke-dasharray="5,2" d="M904.6379,-178C776.2385,-178 503.4564,-178 503.4564,-178 503.4564,-178 503.4564,-205.973 503.4564,-205.973"/>
<polygon fill="#000000" stroke="#000000" points="499.9564,-205.973 503.4564,-215.973 506.9564,-205.973 499.9564,-205.973"/>
</g>
<!-- PieChartComponent  -->
<g id="node23" class="node">
<title>PieChartComponent </title>
<polygon fill="#fb8072" stroke="#000000" points="400.8227,-252 267.1773,-252 267.1773,-216 400.8227,-216 400.8227,-252"/>
<text text-anchor="middle" x="334" y="-229.8" font-family="Times,serif" font-size="14.00" fill="#000000">PieChartComponent </text>
</g>
<!-- ComponentsModule&#45;&gt;PieChartComponent  -->
<g id="edge22" class="edge">
<title>ComponentsModule&#45;&gt;PieChartComponent </title>
<path fill="none" stroke="#000000" stroke-dasharray="5,2" d="M904.8351,-175C745.1648,-175 347.3487,-175 347.3487,-175 347.3487,-175 347.3487,-205.9775 347.3487,-205.9775"/>
<polygon fill="#000000" stroke="#000000" points="343.8488,-205.9774 347.3487,-215.9775 350.8488,-205.9775 343.8488,-205.9774"/>
</g>
<!-- PlanDetailComponent  -->
<g id="node24" class="node">
<title>PlanDetailComponent </title>
<polygon fill="#fb8072" stroke="#000000" points="248.9278,-252 105.0722,-252 105.0722,-216 248.9278,-216 248.9278,-252"/>
<text text-anchor="middle" x="177" y="-229.8" font-family="Times,serif" font-size="14.00" fill="#000000">PlanDetailComponent </text>
</g>
<!-- ComponentsModule&#45;&gt;PlanDetailComponent  -->
<g id="edge23" class="edge">
<title>ComponentsModule&#45;&gt;PlanDetailComponent </title>
<path fill="none" stroke="#000000" stroke-dasharray="5,2" d="M904.552,-172C719.5718,-172 206.2393,-172 206.2393,-172 206.2393,-172 206.2393,-205.7333 206.2393,-205.7333"/>
<polygon fill="#000000" stroke="#000000" points="202.7392,-205.7333 206.2393,-215.7333 209.7392,-205.7333 202.7392,-205.7333"/>
</g>
<!-- MaterialModule -->
<g id="node13" class="node">
<title>MaterialModule</title>
<polygon fill="#8dd3c7" stroke="#000000" points="270.4706,-122 267.4706,-126 246.4706,-126 243.4706,-122 163.5294,-122 163.5294,-86 270.4706,-86 270.4706,-122"/>
<text text-anchor="middle" x="217" y="-99.8" font-family="Times,serif" font-size="14.00" fill="#000000">MaterialModule</text>
</g>
<!-- MaterialModule&#45;&gt;ComponentsModule -->
<g id="edge12" class="edge">
<title>MaterialModule&#45;&gt;ComponentsModule</title>
<path fill="none" stroke="#000000" d="M258.0263,-122.2667C258.0263,-140.5552 258.0263,-166 258.0263,-166 258.0263,-166 894.6128,-166 894.6128,-166"/>
<polygon fill="#000000" stroke="#000000" points="894.6129,-169.5001 904.6128,-166 894.6128,-162.5001 894.6129,-169.5001"/>
</g>
<!-- DataService -->
<g id="node25" class="node">
<title>DataService</title>
<ellipse fill="#fdb462" stroke="#000000" cx="82" cy="-104" rx="58.4415" ry="18"/>
<text text-anchor="middle" x="82" y="-99.8" font-family="Times,serif" font-size="14.00" fill="#000000">DataService</text>
</g>
<!-- DataService&#45;&gt;ComponentsModule -->
<g id="edge24" class="edge">
<title>DataService&#45;&gt;ComponentsModule</title>
<path fill="none" stroke="#000000" d="M122.6282,-117.1537C122.6282,-136.1469 122.6282,-169 122.6282,-169 122.6282,-169 894.5646,-169 894.5646,-169"/>
<polygon fill="#000000" stroke="#000000" points="894.5647,-172.5001 904.5646,-169 894.5646,-165.5001 894.5647,-172.5001"/>
</g>
</g>
</svg>
