<?xml version="1.0" encoding="UTF-8" standalone="no"?>
<!DOCTYPE svg PUBLIC "-//W3C//DTD SVG 1.1//EN"
 "http://www.w3.org/Graphics/SVG/1.1/DTD/svg11.dtd">
<!-- Generated by graphviz version 2.40.1 (20161225.0304)
 -->
<!-- Title: dependencies Pages: 1 -->
<svg width="504pt" height="211pt"
 viewBox="0.00 0.00 504.00 211.00" xmlns="http://www.w3.org/2000/svg" xmlns:xlink="http://www.w3.org/1999/xlink">
<g id="graph0" class="graph" transform="scale(1 1) rotate(0) translate(4 207)">
<title>dependencies</title>
<polygon fill="#ffffff" stroke="transparent" points="-4,4 -4,-207 500,-207 500,4 -4,4"/>
<text text-anchor="start" x="227.0091" y="-42.4" font-family="sans-serif" font-weight="bold" font-size="14.00" fill="#000000">Legend</text>
<polygon fill="#ffffb3" stroke="transparent" points="14,-10 14,-30 34,-30 34,-10 14,-10"/>
<text text-anchor="start" x="37.629" y="-15.4" font-family="sans-serif" font-size="14.00" fill="#000000"> &#160;Declarations</text>
<polygon fill="#8dd3c7" stroke="transparent" points="127,-10 127,-30 147,-30 147,-10 127,-10"/>
<text text-anchor="start" x="150.7251" y="-15.4" font-family="sans-serif" font-size="14.00" fill="#000000"> &#160;Module</text>
<polygon fill="#80b1d3" stroke="transparent" points="213,-10 213,-30 233,-30 233,-10 213,-10"/>
<text text-anchor="start" x="236.7812" y="-15.4" font-family="sans-serif" font-size="14.00" fill="#000000"> &#160;Bootstrap</text>
<polygon fill="#fdb462" stroke="transparent" points="310,-10 310,-30 330,-30 330,-10 310,-10"/>
<text text-anchor="start" x="333.6732" y="-15.4" font-family="sans-serif" font-size="14.00" fill="#000000"> &#160;Providers</text>
<polygon fill="#fb8072" stroke="transparent" points="406,-10 406,-30 426,-30 426,-10 406,-10"/>
<text text-anchor="start" x="429.7258" y="-15.4" font-family="sans-serif" font-size="14.00" fill="#000000"> &#160;Exports</text>
<g id="clust1" class="cluster">
<title>cluster_TabsPageModule</title>
<polygon fill="none" stroke="#000000" stroke-dasharray="1,5" points="39.5,-70 39.5,-195 456.5,-195 456.5,-70 39.5,-70"/>
</g>
<g id="clust2" class="cluster">
<title>cluster_TabsPageModule_declarations</title>
<polygon fill="none" stroke="#000000" points="362.5,-78 362.5,-130 448.5,-130 448.5,-78 362.5,-78"/>
</g>
<g id="clust4" class="cluster">
<title>cluster_TabsPageModule_imports</title>
<polygon fill="none" stroke="#000000" points="47.5,-78 47.5,-130 354.5,-130 354.5,-78 47.5,-78"/>
</g>
<!-- TabsPage -->
<g id="node1" class="node">
<title>TabsPage</title>
<polygon fill="#ffffb3" stroke="#000000" points="440.9249,-122 370.0751,-122 370.0751,-86 440.9249,-86 440.9249,-122"/>
<text text-anchor="middle" x="405.5" y="-99.8" font-family="Times,serif" font-size="14.00" fill="#000000">TabsPage</text>
</g>
<!-- TabsPageModule -->
<g id="node2" class="node">
<title>TabsPageModule</title>
<polygon fill="#8dd3c7" stroke="#000000" points="346.4734,-187 343.4734,-191 322.4734,-191 319.4734,-187 232.5266,-187 232.5266,-151 346.4734,-151 346.4734,-187"/>
<text text-anchor="middle" x="289.5" y="-164.8" font-family="Times,serif" font-size="14.00" fill="#000000">TabsPageModule</text>
</g>
<!-- TabsPage&#45;&gt;TabsPageModule -->
<g id="edge1" class="edge">
<title>TabsPage&#45;&gt;TabsPageModule</title>
<path fill="none" stroke="#000000" d="M405.5,-122.1061C405.5,-141.3391 405.5,-169 405.5,-169 405.5,-169 356.4805,-169 356.4805,-169"/>
<polygon fill="#000000" stroke="#000000" points="356.4806,-165.5001 346.4805,-169 356.4805,-172.5001 356.4806,-165.5001"/>
</g>
<!-- TabShareModule -->
<g id="node3" class="node">
<title>TabShareModule</title>
<polygon fill="#8dd3c7" stroke="#000000" points="346.1896,-122 343.1896,-126 322.1896,-126 319.1896,-122 232.8104,-122 232.8104,-86 346.1896,-86 346.1896,-122"/>
<text text-anchor="middle" x="289.5" y="-99.8" font-family="Times,serif" font-size="14.00" fill="#000000">TabShareModule</text>
</g>
<!-- TabShareModule&#45;&gt;TabsPageModule -->
<g id="edge2" class="edge">
<title>TabShareModule&#45;&gt;TabsPageModule</title>
<path fill="none" stroke="#000000" d="M289.5,-122.1061C289.5,-122.1061 289.5,-140.991 289.5,-140.991"/>
<polygon fill="#000000" stroke="#000000" points="286.0001,-140.9909 289.5,-150.991 293.0001,-140.991 286.0001,-140.9909"/>
</g>
<!-- TabsPageRoutingModule -->
<g id="node4" class="node">
<title>TabsPageRoutingModule</title>
<polygon fill="#8dd3c7" stroke="#000000" points="215.0912,-122 212.0912,-126 191.0912,-126 188.0912,-122 55.9088,-122 55.9088,-86 215.0912,-86 215.0912,-122"/>
<text text-anchor="middle" x="135.5" y="-99.8" font-family="Times,serif" font-size="14.00" fill="#000000">TabsPageRoutingModule</text>
</g>
<!-- TabsPageRoutingModule&#45;&gt;TabsPageModule -->
<g id="edge3" class="edge">
<title>TabsPageRoutingModule&#45;&gt;TabsPageModule</title>
<path fill="none" stroke="#000000" d="M135.5,-122.1061C135.5,-141.3391 135.5,-169 135.5,-169 135.5,-169 222.1561,-169 222.1561,-169"/>
<polygon fill="#000000" stroke="#000000" points="222.1561,-172.5001 232.1561,-169 222.156,-165.5001 222.1561,-172.5001"/>
</g>
</g>
</svg>
